<svg id="Layer_3" enable-background="new 0 0 64 64" height="512" viewBox="0 0 64 64" width="512" xmlns="http://www.w3.org/2000/svg"><g><path d="m32 24c.664-3.984 1.83-7.868 3.47-11.558l1.53-3.442 7.472-5.811c.99-.771 2.209-1.189 3.464-1.189 1.14 0 2.064.924 2.064 2.064 0 .595-.257 1.161-.705 1.553l-7.295 6.383-3 7" fill="#e8a989"/><path d="m44 61v1h-7l-2-12-8-8-8 7-3 13h-8v-1c0-.83.34-1.58.88-2.12s1.29-.88 2.12-.88l2-14 5.42-7.39c1.35-1.84 2.82-3.58 4.4-5.21l11.18 8.6 4.73 3.95 2.27 6.05v8c1.66 0 3 1.34 3 3z" fill="#1d549c"/><path d="m27 42 8 8 2 12h7v-1c0-1.66-1.34-3-3-3v-8l-2.27-6.05-4.73-3.95-10.001-7.693c-1.264 1.37-2.471 2.793-3.579 4.303l-5.42 7.39-2 14c-.83 0-1.58.34-2.12.88s-.88 1.29-.88 2.12v1h6l3-13z" fill="#2b6bb2"/><path d="m46 31-.62 2h-5.6l-.11 1-5.67 6-11.18-8.6c2.75-2.82 5.83-5.31 9.18-7.4.44-2.68 1.12-5.31 2.02-7.87l5.9.73-.92 2.14 3.26 2.45 3.02 3.75z" fill="#52a04f"/><path d="m42.26 21.45-1.606-1.207-10.603 9.787c-.67.618-1.051 1.488-1.051 2.4 0 .992.451 1.931 1.226 2.551l4.85 3.88 4.594-4.861.11-1h5.6l.62-2-.72-5.8z" fill="#6db569"/><path d="m42 19.636c0 3.515 2.849 6.364 6.364 6.364 1.688 0 3.307-.67 4.5-1.864l1.272-1.272c1.194-1.194 1.864-2.812 1.864-4.5 0-3.515-2.849-6.364-6.364-6.364-1.688 0-3.307.67-4.5 1.864l-1.272 1.272c-1.194 1.194-1.864 2.812-1.864 4.5z" fill="#e8a989"/><path d="m50.636 13c-1.688 0-3.307.67-4.5 1.864l-1.272 1.272c-1.194 1.194-1.864 2.812-1.864 4.5 0 1.502.524 2.881 1.394 3.969 1.089.871 2.468 1.395 3.97 1.395 1.688 0 3.307-.67 4.5-1.864l1.272-1.272c1.194-1.194 1.864-2.812 1.864-4.5 0-1.502-.524-2.881-1.394-3.969-1.089-.871-2.468-1.395-3.97-1.395z" fill="#f6bb95"/><path d="m49.636 12c-1.688 0-3.307.67-4.5 1.864l-.136.136 2.764 2.764c1.37 1.37 3.397 1.849 5.236 1.236v1.172c0 1.332.389 2.624 1.105 3.724l.031-.031c1.194-1.195 1.864-2.813 1.864-4.501 0-3.515-2.849-6.364-6.364-6.364z" fill="#3f4042"/><path d="m54.606 14.394c-1.089-.87-2.468-1.394-3.97-1.394-1.688 0-3.307.67-4.5 1.864l-.136.136 1.764 1.764c1.37 1.37 3.397 1.849 5.236 1.236v1.172c0 1.332.389 2.624 1.105 3.724l.031-.031c1.194-1.195 1.864-2.813 1.864-4.501 0-1.502-.524-2.881-1.394-3.97z" fill="#5a5b5d"/><path d="m45.38 33h-5.6l-.559 5.012c-.126 1.132-1.082 1.988-2.221 1.988h-3c-1.105 0-2 .895-2 2s.895 2 2 2h4c2.378 0 4.477-1.551 5.176-3.823l2.824-9.177z" fill="#f6bb95"/><path d="m41.119 29.979-1.989-.218-.599 5.444 1.139-1.205.11-1h1.006z" fill="#52a04f"/><g fill="#969696"><path d="m8.88 58.88c-.54.54-.88 1.29-.88 2.12v1h8l.923-4h-5.923c-.83 0-1.58.34-2.12.88z"/><path d="m41 58h-4.667l.667 4h7v-1c0-1.66-1.34-3-3-3z"/></g></g></svg>