<?xml version="1.0" encoding="utf-8"?>
<!-- Generator: Adobe Illustrator 27.5.0, SVG Export Plug-In . SVG Version: 6.00 Build 0)  -->
<svg version="1.1" xmlns="http://www.w3.org/2000/svg" xmlns:xlink="http://www.w3.org/1999/xlink" x="0px" y="0px"
	 viewBox="0 0 750 500" style="enable-background:new 0 0 750 500;" xml:space="preserve">
<g id="Background_Complete">
	<g>
		<g>
			<g>
				<g>
					<g>
						<path style="fill:#F5F5F5;" d="M164.6,446.268c15.552-10.865,19.08-31.033,18.465-49.162c-0.102-3.026,0.23-6.216-1.209-8.872
							c-1.44-2.654-4.799-4.469-7.508-3.194c-2.247,1.058-3.227,3.672-4.484,5.834c-1.672,2.877-4.164,5.257-7.097,6.779
							c-1.927,1-4.311,1.611-6.213,0.562c-2.61-1.44-2.918-5.046-2.899-8.057c0.035-5.61,0.07-11.219,0.105-16.828
							c0.019-3.009,0.028-6.083-0.908-8.939c-0.936-2.857-3.005-5.51-5.867-6.312c-2.864-0.802-6.404,0.849-7.009,3.795
							c-0.252,1.226-0.002,2.499-0.085,3.748c-0.084,1.25-0.666,2.632-1.852,2.98c-1.201,0.353-2.406-0.5-3.305-1.381
							c-3.107-3.039-5.214-6.954-7.185-10.847c-1.97-3.893-3.882-7.879-6.701-11.193c-2.819-3.315-6.718-5.941-11.028-6.185
							c-4.311-0.244-8.903,2.417-9.992,6.648c-1.092,4.243,1.383,8.548,4.077,11.983c3.996,5.096,8.724,9.603,13.988,13.333
							c0.949,0.673,1.977,1.401,2.34,2.516c0.654,2.007-1.247,3.999-3.229,4.659c-2.243,0.747-4.678,0.514-7.024,0.79
							c-2.347,0.276-4.889,1.311-5.777,3.529c-1.233,3.076,1.34,6.301,3.871,8.413c5.069,4.229,10.858,7.57,17.033,9.832
							c2.214,0.81,4.544,1.521,6.329,3.076c1.785,1.556,2.863,4.261,1.784,6.38c-1.079,2.123-3.848,2.801-6.167,2.37
							c-2.318-0.43-4.395-1.689-6.605-2.523c-4.136-1.561-9.477-1.276-12.127,2.299c-1.741,2.35-1.895,5.622-1.014,8.422
							c0.88,2.801,2.666,5.214,4.563,7.438c6.629,7.777,15.115,14.039,24.711,17.366C146.174,448.855,155.064,449.756,164.6,446.268
							"/>
					</g>
				</g>
			</g>
		</g>
		<g>
			<g>
				<g>
					<g>
						<g>
							<path style="fill:#E0E0E0;" d="M164.838,459.709c-0.657-7.182-2.232-15.663-4.918-24.805
								c-2.668-9.149-6.425-18.935-10.705-29.036c-1.079-2.521-2.146-5.012-3.197-7.467c-1.055-2.448-2.101-4.876-3.271-7.188
								c-2.32-4.634-4.904-8.913-7.484-12.898c-2.579-3.987-5.171-7.677-7.62-11.109c-2.458-3.429-4.809-6.581-7.074-9.363
								c-4.515-5.583-8.681-9.646-11.655-12.319c-1.485-1.342-2.67-2.345-3.483-3.014c-0.391-0.318-0.698-0.567-0.929-0.755
								c-0.211-0.167-0.322-0.249-0.328-0.242c-0.007,0.008,0.092,0.104,0.292,0.286c0.222,0.198,0.518,0.462,0.894,0.797
								c0.788,0.697,1.951,1.725,3.411,3.089c2.925,2.719,7.033,6.81,11.496,12.408c2.24,2.79,4.567,5.948,7.004,9.383
								c2.431,3.442,5.006,7.135,7.567,11.12c2.561,3.983,5.125,8.251,7.426,12.863c1.16,2.301,2.194,4.708,3.25,7.163
								c1.05,2.454,2.115,4.944,3.193,7.464c4.277,10.093,8.038,19.849,10.726,28.963c2.703,9.106,4.312,17.545,5.016,24.696"/>
						</g>
					</g>
				</g>
			</g>
		</g>
		<g>
			<g>
				<g>
					<g>
						<g>
							<path style="fill:#E0E0E0;" d="M142.589,391.192c0.037,0.006,0.14-0.451,0.294-1.284c0.158-0.832,0.347-2.042,0.558-3.541
								c0.426-2.997,0.872-7.155,1.347-11.741c0.475-4.589,0.979-8.729,1.449-11.711c0.231-1.491,0.43-2.697,0.578-3.528
								c0.144-0.833,0.206-1.298,0.168-1.307c-0.037-0.008-0.17,0.44-0.378,1.261c-0.213,0.819-0.472,2.018-0.752,3.506
								c-0.571,2.975-1.139,7.126-1.614,11.719c-0.457,4.527-0.87,8.623-1.186,11.752c-0.151,1.413-0.28,2.603-0.383,3.559
								C142.582,390.717,142.55,391.186,142.589,391.192z"/>
						</g>
					</g>
				</g>
			</g>
		</g>
		<g>
			<g>
				<g>
					<g>
						<g>
							<path style="fill:#E0E0E0;" d="M103.893,383.96c-0.001,0.038,0.549,0.102,1.544,0.185c0.993,0.089,2.43,0.208,4.201,0.414
								c3.544,0.382,8.421,1.082,13.769,2.09c5.347,1.018,10.147,2.144,13.595,3.06c1.728,0.445,3.117,0.844,4.078,1.113
								c0.96,0.273,1.497,0.407,1.51,0.371c0.012-0.037-0.503-0.241-1.446-0.579c-0.944-0.333-2.319-0.79-4.039-1.287
								c-3.431-1.016-8.234-2.207-13.597-3.228c-5.363-1.01-10.268-1.651-13.833-1.933c-1.781-0.155-3.228-0.216-4.227-0.237
								C104.448,383.912,103.895,383.921,103.893,383.96z"/>
						</g>
					</g>
				</g>
			</g>
		</g>
		<g>
			<g>
				<g>
					<g>
						<g>
							<path style="fill:#E0E0E0;" d="M159.444,434.192c0.018,0.008,0.108-0.154,0.265-0.472c0.179-0.379,0.397-0.841,0.662-1.4
								c0.569-1.218,1.347-3.002,2.279-5.219c1.867-4.433,4.253-10.637,6.793-17.519c2.542-6.885,4.867-13.103,6.639-17.568
								c0.868-2.171,1.583-3.956,2.114-5.283c0.227-0.576,0.414-1.051,0.567-1.441c0.124-0.331,0.181-0.509,0.163-0.518
								c-0.018-0.007-0.108,0.155-0.266,0.473c-0.179,0.378-0.397,0.84-0.662,1.399c-0.569,1.218-1.347,3.002-2.279,5.219
								c-1.867,4.433-4.253,10.637-6.794,17.522c-2.541,6.883-4.867,13.1-6.638,17.566c-0.869,2.17-1.583,3.956-2.114,5.282
								c-0.227,0.576-0.414,1.052-0.567,1.441C159.484,434.006,159.427,434.184,159.444,434.192z"/>
						</g>
					</g>
				</g>
			</g>
		</g>
		<g>
			<g>
				<g>
					<g>
						<g>
							<path style="fill:#E0E0E0;" d="M108.024,417.619c-0.005,0.019,0.171,0.09,0.51,0.21c0.402,0.135,0.896,0.3,1.493,0.501
								c1.379,0.447,3.241,1.051,5.506,1.784c4.649,1.508,11.046,3.664,18.112,6.056c7.068,2.394,13.491,4.493,18.173,5.905
								c2.341,0.707,4.24,1.259,5.561,1.614c0.61,0.16,1.114,0.292,1.523,0.4c0.35,0.085,0.537,0.121,0.542,0.102
								c0.005-0.019-0.171-0.09-0.51-0.211c-0.401-0.134-0.895-0.299-1.493-0.499c-1.379-0.447-3.24-1.05-5.505-1.784
								c-4.649-1.507-11.047-3.664-18.115-6.057c-7.066-2.393-13.488-4.492-18.17-5.904c-2.341-0.707-4.24-1.259-5.562-1.614
								c-0.61-0.16-1.113-0.293-1.523-0.4C108.216,417.636,108.03,417.601,108.024,417.619z"/>
						</g>
					</g>
				</g>
			</g>
		</g>
	</g>
	<g>
		<path style="fill:#F5F5F5;" d="M355.795,45.736c0,0,8.221,35.348,24.671,40.626c14.917,4.786,32.336-0.192,46.045,7.389
			c9.073,5.017,14.597,14.564,22.393,21.398c13.976,12.25,35.801,14.546,52.019,5.471c7.217-4.038,13.745-10.199,21.978-10.981
			c7.392-0.702,14.34,3.13,21.413,5.392c12.894,4.123,27.4,2.936,39.452-3.228c7.34-3.754,13.759-9.239,21.389-12.361
			c10.066-4.118,21.299-3.776,32.121-4.86c15.273-1.529,31.222-6.7,40.612-18.842c5.293-6.844,8.088-15.38,13.521-22.114
			c7.893-9.784,20.265-14.565,30.517-21.839C732.179,24.514,741.02,11.721,736.478,0H288.805
			C288.805,0,303.275,66.183,355.795,45.736z"/>
	</g>
	<g>
		<path style="fill:#FAFAFA;" d="M426.088,0.403c-9.817,22.681-23.927,33.279-48.333,37.165c-6.551,1.043-13.348,1.23-19.488,3.742
			c-9.016,3.688-15.299,11.788-22.564,18.277c-14.423,12.884-33.993,19.836-53.311,18.941
			c-15.432,27.556-49.824,43.015-80.677,36.264c-12.295-2.69-23.773-8.472-36.133-10.849c-11.378-2.188-23.147-1.421-34.577-3.316
			c-24.831-4.116-47.027-21.613-56.827-44.797C45.156,59.206,14.955,41.345,3.934,14.287L0.365,0L426.088,0.403z"/>
	</g>
	<g>
		<path style="fill:#E0E0E0;" d="M170.584,32.866l16.369,81.845c0,0,0.909,5.456,6.366,6.366s8.799-21.825,8.799-21.825l5.751,1.819
			l-10.003,29.101l-4.547,22.735l1.819,54.563l34.781,252.483H199.8c0,0-21.031-237.933-22.85-248.845s-28.191-40.923-28.191-40.923
			v-7.275l27.282,29.101L148.759,32.866H170.584z"/>
	</g>
	<g>
		<path style="fill:#E0E0E0;" d="M577.358,32.866l-8.021,78.956c0,0-0.375,5.577-5.771,7.031
			c-5.397,1.454-11.008-21.076-11.008-21.076l-5.604,2.398l12.939,28.273l6.822,22.411l3.57,55.048l-9.864,254.045h30.156
			c0,0-2.392-241.033-1.643-252.187c0.749-11.154,24.299-43.94,24.299-43.94l-0.72-7.316l-24.554,31.962l13.175-155.605H577.358z"/>
	</g>
	<g>
		<path style="fill:#EBEBEB;" d="M251.924,32.446l24.561,58.198l12.24,45.361c0,0,23.964,49.64,24.82,47.072
			c0.856-2.568-4.83-79.595-4.83-79.595l-17.423-70.617h22.34l11.894,68.049l21.27,359.037h-38.129l-5.393-243.495l-23.108-79.595
			l-11.126-47.072l-28.073-56.923L251.924,32.446z"/>
	</g>
	<g>
		<path style="fill:#FAFAFA;" d="M468.898,32.866c0,0-20.949,45.7-24.218,71.846l-13.89-36.358
			c-4.902,3.677,9.805,51.882,9.805,51.882s-10.988,53.925-10.805,81.704c0.183,27.779-0.002,138.08-0.002,138.08l-26.406,119.933
			l29.98,0.086c0,0,12.953-102.861,12.135-113.483c-0.817-10.621-0.817-147.067-0.817-147.067s5.719-64.546,10.621-83.338
			c4.902-18.792,33.471-83.284,33.471-83.284H468.898z"/>
	</g>
	<g>
		<path style="fill:#F5F5F5;" d="M127.015,33.7c0.939,2.817-16.9,92.949-21.594,105.155c-4.694,12.205-9.389,26.289-9.389,26.289
			l-5.633-15.022l-3.756,5.633l4.694,19.716c0,0-18.778,22.533-19.716,42.25s0,52.577,0,52.577l-16.9,189.654h27.228V271.236
			c0,0-5.633-47.883-2.817-56.333c2.817-8.45,18.778-35.677,18.778-35.677s17.114-21.594,19.354-43.189
			c2.24-21.594,17.262-102.338,17.262-102.338H127.015z"/>
	</g>
	<g>
		<path style="fill:#EBEBEB;" d="M633.466,32.866c-0.956,2.869,15.725,89.755,20.508,102.189s9.565,26.781,9.565,26.781
			l5.739-15.304l3.826,5.739l-4.782,20.086c0,0,19.13,22.956,20.086,43.042s0,53.563,0,53.563l17.019,190.989h-27.54V269.918
			c0,0,5.739-48.78,2.869-57.389c-2.869-8.608-19.13-36.346-19.13-36.346s-17.434-21.999-19.717-43.998s-16.094-99.32-16.094-99.32
			H633.466z"/>
	</g>
	<g>
		<path style="fill:#F5F5F5;" d="M394.517,124.276c-11.918,2.627-21.342,13.942-21.77,26.14
			c12.163-1.451,22.263-12.996,22.085-25.244"/>
	</g>
	<g>
		<path style="fill:#E0E0E0;" d="M664.17,27.512c2.106,7.654,9.771,13.397,17.709,13.266c-1.35-7.852-9.188-14.027-17.138-13.501"/>
	</g>
	<g>
		<path style="fill:#F5F5F5;" d="M690.225,92.366c6.731,5.392,17.136,5.558,24.036,0.385c-6.192-6.048-17.024-6.485-23.683-0.955"/>
	</g>
	<g>
		<path style="fill:#E0E0E0;" d="M482.307,154.145c-0.803,6.761,3.428,13.801,9.775,16.265c1.468-6.674-2.761-14.113-9.245-16.267"
			/>
	</g>
	<g>
		<path style="fill:#E0E0E0;" d="M410.302,165.319c-0.803,6.761,3.428,13.801,9.775,16.265c1.468-6.673-2.761-14.113-9.245-16.267"
			/>
	</g>
	<g>
		<path style="fill:#E0E0E0;" d="M62.431,78.956c-6.512-1.987-14.19,0.931-17.739,6.741c6.308,2.626,14.379-0.218,17.646-6.219"/>
	</g>
	<g>
		<path style="fill:#E0E0E0;" d="M532.265,34.013c-3.293,5.959-2.029,14.075,2.92,18.75c3.876-5.627,2.765-14.112-2.429-18.552"/>
	</g>
	<g>
		<path style="fill:#E0E0E0;" d="M234.651,44.632c-0.803,6.761,3.428,13.801,9.775,16.265c1.468-6.674-2.761-14.113-9.245-16.267"/>
	</g>
</g>
<g id="Background_Simple" style="display:none;">
	<path style="display:inline;fill:#EBEBEB;" d="M606.71,131.929l-1.573-5.006c-12.631-40.194-45.844-70.981-87.172-79.169
		c-5.808-1.151-11.705-1.856-17.634-2.083c-39.528-1.513-79.239,18.293-101.809,50.78c-13.274,19.106-21.616,42.851-40.94,55.804
		c-25.15,16.858-58.702,9.141-87.822,0.851c-29.12-8.29-62.716-15.926-87.792,1.042c-15.704,10.627-34.479,31.517-40.751,49.411
		c-18.028,51.433,1.491,107.345,39.68,139.931c38.189,32.586,110.335,45.884,160.474,48.397
		c70.239,3.521,146.65-23.095,199.099-69.947C592.918,275.089,621.96,200.583,606.71,131.929z"/>
</g>
<g id="Floor">
	<g>
		<g>
			<path style="fill:#263238;" d="M715.799,459.951c0,0.144-152.593,0.26-340.783,0.26c-188.255,0-340.816-0.117-340.816-0.26
				c0-0.144,152.561-0.26,340.816-0.26C563.206,459.691,715.799,459.808,715.799,459.951z"/>
		</g>
	</g>
	<g>
		<g>
			<path style="fill:#263238;" d="M647.327,406.945c0.015-0.01,0.142,0.152,0.369,0.47c0.255,0.367,0.578,0.832,0.974,1.404
				c0.844,1.221,2.01,3.026,3.4,5.287c2.784,4.519,6.364,10.937,9.737,18.308c3.364,7.378,5.871,14.287,7.464,19.35
				c0.799,2.531,1.399,4.594,1.77,6.031c0.172,0.674,0.313,1.222,0.423,1.656c0.091,0.38,0.131,0.582,0.113,0.586
				c-0.017,0.005-0.091-0.188-0.214-0.558c-0.135-0.426-0.306-0.965-0.517-1.628c-0.43-1.418-1.083-3.462-1.926-5.973
				c-1.679-5.024-4.233-11.891-7.588-19.248c-3.363-7.35-6.881-13.776-9.579-18.335c-1.347-2.281-2.464-4.113-3.254-5.366
				c-0.363-0.593-0.658-1.075-0.892-1.457C647.409,407.137,647.312,406.955,647.327,406.945z"/>
		</g>
	</g>
	<g>
		<g>
			<path style="fill:#263238;" d="M663.649,377.258c0.018,0.001,0.02,0.294,0.008,0.849c-0.019,0.602-0.046,1.411-0.078,2.429
				c-0.046,1.054-0.095,2.343-0.108,3.841c-0.02,1.498-0.082,3.202-0.052,5.087c-0.014,3.77,0.116,8.258,0.405,13.233
				c0.326,4.972,0.832,10.429,1.609,16.127c0.804,5.696,1.803,11.086,2.843,15.96c1.076,4.866,2.173,9.22,3.213,12.844
				c0.485,1.822,1.008,3.445,1.435,4.881c0.421,1.438,0.819,2.665,1.15,3.666c0.309,0.97,0.554,1.741,0.737,2.315
				c0.163,0.531,0.24,0.813,0.224,0.819c-0.017,0.006-0.128-0.264-0.323-0.785c-0.206-0.566-0.482-1.328-0.829-2.285
				c-0.361-0.992-0.787-2.212-1.236-3.643c-0.454-1.429-1.003-3.048-1.511-4.867c-1.087-3.617-2.224-7.971-3.328-12.843
				c-1.069-4.879-2.084-10.281-2.89-15.991c-0.779-5.712-1.272-11.185-1.572-16.17c-0.264-4.988-0.356-9.486-0.294-13.263
				c-0.006-1.889,0.082-3.595,0.13-5.095c0.042-1.499,0.12-2.789,0.197-3.842c0.074-1.016,0.133-1.824,0.176-2.425
				C663.598,377.547,663.631,377.257,663.649,377.258z"/>
		</g>
	</g>
	<g>
		<g>
			<path style="fill:#263238;" d="M678.234,415.621c0.035,0.009-0.077,0.627-0.31,1.734c-0.242,1.105-0.551,2.714-0.884,4.706
				c-0.673,3.984-1.301,9.546-1.291,15.712c0.023,6.168,0.68,11.728,1.374,15.708c0.344,1.991,0.661,3.598,0.909,4.701
				c0.238,1.106,0.354,1.723,0.319,1.732c-0.035,0.009-0.217-0.591-0.516-1.685c-0.309-1.091-0.682-2.692-1.074-4.683
				c-0.79-3.979-1.51-9.568-1.533-15.773c-0.01-6.203,0.681-11.795,1.449-15.778c0.382-1.993,0.746-3.595,1.049-4.688
				C678.021,416.213,678.199,415.612,678.234,415.621z"/>
		</g>
	</g>
	<g>
		<g>
			<path style="fill:#263238;" d="M664.798,459.713c-0.086,0.012-0.293-1.295-0.808-3.359c-0.512-2.064-1.393-4.875-2.756-7.818
				c-1.371-2.94-2.951-5.427-4.199-7.149c-1.245-1.725-2.111-2.726-2.046-2.784c0.027-0.024,0.269,0.203,0.685,0.635
				c0.421,0.428,0.99,1.085,1.656,1.927c1.334,1.681,2.988,4.172,4.377,7.151c1.381,2.982,2.218,5.851,2.643,7.955
				c0.214,1.052,0.349,1.911,0.405,2.509C664.816,459.377,664.833,459.708,664.798,459.713z"/>
		</g>
	</g>
	<g>
		<g>
			<path style="fill:#263238;" d="M191.504,422.105c0.025,0.026-0.382,0.486-1.139,1.295c-0.382,0.401-0.845,0.895-1.357,1.492
				c-0.515,0.594-1.127,1.247-1.742,2.023c-1.275,1.512-2.701,3.388-4.186,5.537c-1.461,2.166-2.967,4.615-4.373,7.282
				c-1.387,2.678-2.537,5.314-3.48,7.751c-0.915,2.447-1.641,4.689-2.153,6.599c-0.285,0.948-0.473,1.823-0.666,2.585
				c-0.198,0.761-0.339,1.423-0.45,1.966c-0.232,1.083-0.377,1.68-0.413,1.675c-0.035-0.006,0.042-0.614,0.213-1.712
				c0.08-0.55,0.193-1.221,0.365-1.991c0.167-0.771,0.33-1.657,0.594-2.616c0.469-1.932,1.163-4.201,2.06-6.674
				c0.925-2.463,2.07-5.125,3.468-7.823c1.416-2.688,2.947-5.147,4.44-7.313c1.518-2.149,2.983-4.014,4.301-5.503
				c0.636-0.764,1.27-1.404,1.808-1.982c0.535-0.581,1.021-1.057,1.426-1.437C191.024,422.491,191.479,422.079,191.504,422.105z"/>
		</g>
	</g>
	<g>
		<g>
			<path style="fill:#263238;" d="M171.546,408.62c0.017,0.007-0.03,0.184-0.135,0.515c-0.129,0.385-0.288,0.86-0.482,1.438
				c-0.22,0.62-0.482,1.38-0.751,2.275c-0.274,0.893-0.62,1.899-0.919,3.036c-0.661,2.255-1.322,4.976-1.933,8.02
				c-0.579,3.05-1.088,6.428-1.407,9.998c-0.296,3.572-0.372,6.988-0.323,10.093c0.081,3.104,0.268,5.898,0.534,8.233
				c0.1,1.171,0.269,2.221,0.387,3.148c0.112,0.928,0.241,1.722,0.351,2.37c0.092,0.603,0.168,1.098,0.229,1.499
				c0.047,0.344,0.063,0.526,0.045,0.53c-0.018,0.004-0.068-0.172-0.148-0.51c-0.087-0.397-0.194-0.887-0.325-1.483
				c-0.141-0.644-0.3-1.436-0.44-2.362c-0.145-0.925-0.34-1.976-0.465-3.149c-0.313-2.339-0.54-5.143-0.648-8.264
				c-0.076-3.121-0.014-6.557,0.284-10.15c0.321-3.59,0.847-6.985,1.455-10.047c0.639-3.055,1.342-5.78,2.05-8.031
				c0.323-1.135,0.695-2.137,0.996-3.024c0.296-0.889,0.587-1.642,0.837-2.252c0.231-0.565,0.421-1.03,0.574-1.406
				C171.449,408.778,171.529,408.613,171.546,408.62z"/>
		</g>
	</g>
	<g>
		<g>
			<path style="fill:#263238;" d="M148.057,439.824c0.018-0.031,0.337,0.132,0.899,0.453c0.567,0.314,1.351,0.831,2.281,1.523
				c1.862,1.378,4.24,3.585,6.321,6.465c2.073,2.887,3.414,5.841,4.132,8.044c0.362,1.101,0.605,2.009,0.723,2.646
				c0.127,0.635,0.18,0.989,0.145,0.996c-0.091,0.021-0.411-1.372-1.214-3.519c-0.798-2.146-2.168-5.023-4.207-7.863
				c-2.048-2.832-4.342-5.042-6.125-6.479C149.228,440.648,148.008,439.903,148.057,439.824z"/>
		</g>
	</g>
	<g>
		<g>
			<path style="fill:#263238;" d="M261.989,440.847c0.129-0.063,2.304,4.164,4.857,9.438c2.554,5.277,4.518,9.603,4.389,9.666
				c-0.129,0.063-2.304-4.163-4.857-9.439C263.825,445.237,261.86,440.909,261.989,440.847z"/>
		</g>
	</g>
	<g>
		<g>
			<path style="fill:#263238;" d="M271.905,427.913c0.036,0.003,0.037,0.457,0.008,1.273c-0.034,0.816-0.071,1.997-0.1,3.455
				c-0.061,2.916-0.019,6.948,0.349,11.381c0.374,4.434,1.002,8.417,1.547,11.283c0.271,1.433,0.504,2.591,0.673,3.39
				c0.164,0.8,0.239,1.247,0.204,1.256c-0.035,0.009-0.176-0.421-0.401-1.208c-0.23-0.786-0.518-1.935-0.837-3.364
				c-0.639-2.857-1.329-6.854-1.705-11.313c-0.37-4.457-0.353-8.514-0.198-11.437c0.077-1.462,0.17-2.643,0.266-3.457
				C271.802,428.358,271.869,427.91,271.905,427.913z"/>
		</g>
	</g>
	<g>
		<g>
			<path style="fill:#263238;" d="M280.191,439.844c0.076,0.032-0.34,1.12-0.903,2.908c-0.564,1.787-1.236,4.29-1.694,7.109
				c-0.453,2.821-0.604,5.408-0.631,7.282c-0.029,1.874,0.023,3.038-0.059,3.044c-0.061,0.006-0.244-1.151-0.309-3.041
				c-0.067-1.888,0.027-4.513,0.485-7.368c0.464-2.853,1.201-5.373,1.86-7.144C279.597,440.86,280.134,439.819,280.191,439.844z"/>
		</g>
	</g>
</g>
<g id="Character_2">
	<g>
		<g>
			<g>
				<g>
					<g>
						<g>
							<path style="fill:#B78876;" d="M649.063,257.389L649.063,257.389c4.654-0.481,7.799-1.248,10.864-1.398
								c3.778-0.184,5.323-0.526,5.243-1.23c-0.107-0.941-0.023-0.584-6.939-1.226c0,0,9.878,0.83,7.88-1.033
								c-0.885-0.824-9.087-1.595-9.087-1.595c6.531,1.224,9.186,0.652,9.319-0.345c0.192-1.446-9.771-2.305-9.771-2.305
								s7.586,0.806,8.957,0.533c1.372-0.273,0.06-1.34-1.274-1.916c-1.498-0.646-10.738-3.15-13.367-4.012
								c-1.808-0.593-1.204-2.168-1.204-2.168c1.935-3.518,1.563-7.292,0.982-8.268c-0.583-0.974-2.115-0.502-2.215,0.749
								c-0.081,1.011-0.725,2.654-1.258,3.866c-0.44,0.999-1.035,1.921-1.778,2.711c-0.864,0.921-1.63,1.667-2.299,2.283
								l-69.332-2.981l-4.122,19.137L649.063,257.389z"/>
						</g>
					</g>
				</g>
			</g>
			<g>
				<g>
					<g>
						<g>
							<path style="fill:#AA6550;" d="M654.34,253.125c-0.02,0.173,2.094,0.458,4.721,0.636c2.628,0.178,4.76,0.18,4.764,0.006
								c0.003-0.174-2.11-0.459-4.721-0.636C656.493,252.954,654.36,252.952,654.34,253.125z"/>
						</g>
					</g>
				</g>
			</g>
			<g>
				<g>
					<g>
						<g>
							<path style="fill:#AA6550;" d="M654.307,250.443c-0.022,0.173,2.213,0.603,4.991,0.961c2.779,0.358,5.05,0.507,5.072,0.334
								c0.023-0.173-2.212-0.603-4.991-0.961C656.6,250.419,654.329,250.27,654.307,250.443z"/>
						</g>
					</g>
				</g>
			</g>
			<g>
				<g>
					<g>
						<g>
							<path style="fill:#AA6550;" d="M654.287,247.658c-0.025,0.173,2.083,0.615,4.708,0.989c2.625,0.373,4.773,0.536,4.797,0.363
								c0.025-0.173-2.083-0.615-4.708-0.989C656.46,247.648,654.312,247.486,654.287,247.658z"/>
						</g>
					</g>
				</g>
			</g>
		</g>
		<g>
			<g>
				<g>
					<path style="fill:#B78876;" d="M410.537,237.598L410.537,237.598c-4.675,0.198-7.86,0.773-10.929,0.736
						c-3.783-0.046-5.345,0.202-5.308,0.91c0.05,0.946-0.012,0.584,6.851,1.645c0,0-9.81-1.428-7.928,0.552
						c0.833,0.877,8.973,2.143,8.973,2.143c-6.445-1.618-9.13-1.209-9.323-0.221c-0.28,1.431,9.613,2.894,9.613,2.894
						s-7.523-1.265-8.908-1.076c-1.386,0.189-0.142,1.334,1.155,1.99c1.456,0.736,10.527,3.796,13.099,4.816
						c1.769,0.702,1.071,2.237,1.071,2.237c-2.145,3.395-2.003,7.184-1.482,8.193c0.522,1.007,2.08,0.63,2.256-0.613
						c0.142-1.005,0.885-2.605,1.491-3.783c0.5-0.971,1.15-1.855,1.939-2.598c0.918-0.867,1.728-1.564,2.433-2.139l72.999,3.409
						l1.245-20.822L410.537,237.598z"/>
				</g>
			</g>
		</g>
		<g>
			<path style="fill:#B78876;" d="M634.025,459.754c4.263-0.342-5.586-4.177-10.338-5.266c-5.724-1.311-10.356-2.886-10.356-2.886
				l0.424-22.635l-17.626-2.153l-1.059,30.652c0.028,1.264,0.969,2.332,2.223,2.485L634.025,459.754z"/>
		</g>
		<g>
			<path style="fill:#B78876;" d="M376.639,424.741c-0.589,1.178-15.314,14.43-15.314,14.43s-3.33,19.257-0.385,20.435h18.842
				c0.698-2.574-6.089-15.723-6.089-15.723l11.78-10.307L376.639,424.741z"/>
		</g>
		<g>
			<g>
				<path style="fill:#B78876;" d="M509.544,262.994c0,0.577,3.052,43.845,3.052,43.845l42.454,1.545l1.78-45.391H509.544z"/>
			</g>
			<g>
				<g>
					<path style="fill:#E8505B;" d="M578.047,239.249l-12.01-3.725c-5.192-1.611-10.513-2.765-15.905-3.451l-4.179-0.532
						l-19.11-1.081c-1.089,0-9.642-1.238-17.489,0.211c-17.184,3.173-25.754,4.494-25.754,4.494l0.883,23.995l20.837,0.367
						c1.487,6.691,3.55,34.06,3.55,34.06l47.965,2.435l1.543-23.827c0.46-0.482,0.856-1.032,1.19-1.609
						c2-3.468,2.107-7.956,0.272-11.494l14.782,0.83L578.047,239.249z"/>
				</g>
				<g>
					<polygon style="fill:#FAFAFA;" points="507.076,273.083 558.247,274.206 557.871,280.016 507.601,278.673 					"/>
				</g>
				<g style="opacity:0.2;">
					<polygon style="fill:#FAFAFA;" points="507.601,278.663 508.869,293.576 556.834,296.012 557.871,280.006 					"/>
				</g>
				<g style="opacity:0.2;">
					<g>
						<path d="M534.134,264.604c0.263,0.189-0.266,1.629-2.037,3.334c-0.885,0.836-2.092,1.72-3.631,2.351
							c-1.524,0.646-3.396,1.012-5.351,0.842c-1.957-0.172-3.716-0.868-5.113-1.732c-1.411-0.86-2.465-1.903-3.23-2.842
							c-1.518-1.914-1.891-3.392-1.606-3.553c0.328-0.202,1.256,0.887,2.92,2.263c1.643,1.358,4.192,2.994,7.261,3.271
							c3.065,0.28,5.825-0.926,7.62-2.053C532.789,265.35,533.829,264.364,534.134,264.604z"/>
					</g>
				</g>
			</g>
		</g>
		<g>
			<g>
				<g>
					<g>
						<path style="fill:#263238;" d="M565.286,171.155c-3.953-0.957-8.387,0.875-10.625,4.271c-1.299,1.971-1.81,4.383-1.605,6.734
							c-1.318-1.044-2.794-1.901-4.34-2.564c-2.903-1.244-6.037-1.863-9.171-2.261c-3.174-0.403-6.494-0.572-9.483,0.57
							c-5.019,1.918-13.222,8.134-9.859,20.888l25.397,21.483c0.321,0.786,1.381,1.038,2.178,0.745
							c0.797-0.293,1.379-0.971,1.904-1.638c4.085-5.189,6.93-11.335,8.334-17.789c0.933-4.288,1.154-8.973-0.309-13.026
							c2.193,1.062,4.686,1.474,7.063,0.942c4.335-0.971,7.833-5.137,7.714-9.578C572.376,175.866,569.238,172.112,565.286,171.155z
							"/>
					</g>
				</g>
				<g>
					<g>
						<g>
							<g>
								<g>
									<g>
										<g>
											<g>
												<g>
													<g>
														<path style="fill:#B78876;" d="M533.011,244.901c5.688,0.965,11.089-2.844,12.089-8.526l7.646-43.447l0,0
															c0.3-1.749-0.788-3.436-2.504-3.885l-16.399-4.286c-5.65-1.477-11.385,2.055-12.621,7.763
															c-1.373,6.342-2.799,14.139-2.764,19.031c0.071,9.837,7.249,12.175,7.249,12.175l-1.328,9.356
															C523.578,238.709,527.406,243.95,533.011,244.901L533.011,244.901z"/>
													</g>
												</g>
											</g>
										</g>
									</g>
									<g>
										<g>
											<g>
												<g>
													<g>
														<g>
															<path style="fill:#263238;" d="M522.113,198.656c-0.122,0.647,0.326,1.283,1,1.423
																c0.672,0.139,1.317-0.271,1.438-0.918c0.122-0.647-0.326-1.285-0.998-1.424
																C522.88,197.598,522.235,198.009,522.113,198.656z"/>
														</g>
													</g>
												</g>
											</g>
										</g>
										<g>
											<g>
												<g>
													<g>
														<g>
															<g>
																<path style="fill:#263238;" d="M522.303,196.851c0.128,0.184,1.166-0.366,2.492-0.161
																	c1.327,0.185,2.196,1.014,2.365,0.874c0.082-0.061-0.03-0.375-0.407-0.747c-0.37-0.37-1.036-0.777-1.863-0.898
																	c-0.827-0.12-1.567,0.078-2.013,0.329C522.421,196.498,522.239,196.768,522.303,196.851z"/>
															</g>
														</g>
													</g>
												</g>
											</g>
										</g>
									</g>
									<g>
										<g>
											<g>
												<g>
													<g>
														<g>
															<path style="fill:#263238;" d="M535.118,200.494c-0.122,0.647,0.326,1.284,1,1.423
																c0.672,0.139,1.317-0.271,1.438-0.918c0.122-0.647-0.326-1.284-0.999-1.424
																C535.884,199.435,535.24,199.847,535.118,200.494z"/>
														</g>
													</g>
												</g>
											</g>
										</g>
										<g>
											<g>
												<g>
													<g>
														<g>
															<g>
																<path style="fill:#263238;" d="M535.297,199.072c0.129,0.184,1.168-0.365,2.492-0.161
																	c1.327,0.185,2.196,1.014,2.365,0.874c0.081-0.061-0.029-0.374-0.407-0.747c-0.37-0.37-1.036-0.777-1.863-0.898
																	c-0.827-0.12-1.567,0.078-2.014,0.329C535.416,198.719,535.233,198.988,535.297,199.072z"/>
															</g>
														</g>
													</g>
												</g>
											</g>
										</g>
									</g>
									<g>
										<g>
											<g>
												<g>
													<g>
														<g>
															<path style="fill:#263238;" d="M528.997,208.175c0.018-0.075-0.785-0.342-2.095-0.715
																c-0.333-0.086-0.643-0.202-0.665-0.442c-0.043-0.257,0.154-0.6,0.378-0.969c0.442-0.771,0.905-1.579,1.391-2.426
																c1.946-3.46,3.409-6.325,3.269-6.402c-0.14-0.077-1.831,2.665-3.777,6.124c-0.472,0.854-0.922,1.669-1.352,2.448
																c-0.186,0.365-0.473,0.768-0.377,1.302c0.053,0.267,0.273,0.488,0.482,0.579c0.207,0.099,0.397,0.132,0.563,0.167
																C528.148,208.117,528.981,208.249,528.997,208.175z"/>
														</g>
													</g>
												</g>
											</g>
										</g>
									</g>
									<g>
										<g>
											<g>
												<g>
													<g>
														<path style="fill:#AA6550;" d="M525.706,223.725c0,0,6.399,1.395,13.385-1.484c0,0-4.042,6.193-13.521,3.839
															L525.706,223.725z"/>
													</g>
												</g>
											</g>
										</g>
									</g>
									<g>
										<g>
											<g>
												<g>
													<g>
														<path style="fill:#AA6550;" d="M529.074,211.455c0.572-0.558,1.46-0.778,2.276-0.563
															c0.566,0.149,1.105,0.514,1.384,1.036c0.279,0.521,0.251,1.198-0.134,1.596c-0.434,0.449-1.199,0.452-1.805,0.176
															c-0.606-0.276-1.087-0.775-1.541-1.268c-0.125-0.136-0.254-0.279-0.319-0.449c-0.066-0.171-0.054-0.38,0.077-0.493"/>
													</g>
												</g>
											</g>
										</g>
									</g>
									<g>
										<g>
											<g>
												<g>
													<g>
														<g>
															<path style="fill:#263238;" d="M532.76,209.683c-0.214-0.045-0.434,1.394-1.821,2.228
																c-1.385,0.839-2.894,0.445-2.936,0.644c-0.034,0.087,0.299,0.331,0.944,0.447c0.632,0.118,1.59,0.055,2.438-0.456
																c0.846-0.513,1.296-1.299,1.434-1.882C532.966,210.07,532.86,209.689,532.76,209.683z"/>
														</g>
													</g>
												</g>
											</g>
										</g>
									</g>
								</g>
							</g>
						</g>
						<g>
							<g>
								<g>
									<g>
										<g>
											<path style="fill:#263238;" d="M535.052,196.66c0.076,0.38,1.426,0.41,2.953,0.833c1.536,0.392,2.721,1.038,2.976,0.746
												c0.116-0.141-0.052-0.513-0.506-0.939c-0.45-0.424-1.202-0.877-2.12-1.123c-0.918-0.243-1.796-0.225-2.397-0.08
												C535.352,196.241,535.022,196.48,535.052,196.66z"/>
										</g>
									</g>
								</g>
							</g>
						</g>
						<g>
							<g>
								<g>
									<g>
										<g>
											<path style="fill:#263238;" d="M523.371,193.088c0.188,0.336,1.148,0.162,2.249,0.314
												c1.105,0.113,1.997,0.509,2.259,0.227c0.117-0.139,0.016-0.463-0.347-0.809c-0.357-0.345-0.992-0.678-1.75-0.77
												c-0.758-0.09-1.453,0.084-1.882,0.334C523.465,192.635,523.291,192.925,523.371,193.088z"/>
										</g>
									</g>
								</g>
							</g>
						</g>
					</g>
				</g>
				<g>
					<g>
						<g>
							<path style="fill:#263238;" d="M521.221,192.519c2.92-7.938,4.713-4.35,7.883-7.869c3.164,4.35,11.111,10.016,16.231,11.667
								c0.523,0.169,1.075,0.334,1.462,0.724c0.719,0.723,0.605,1.898,0.449,2.906c-0.44,2.844-0.821,5.724-0.585,8.592
								c0.236,2.868,1.133,5.753,2.995,7.948c4.179-6.197,5.672-13.918,5.353-21.386c-0.13-3.05-0.642-6.303-2.717-8.543
								c-1.486-1.603-3.586-2.475-5.653-3.187c-5.104-1.758-10.623-2.831-15.905-1.714c-5.282,1.117-9.512,2.837-10.983,8.031"/>
						</g>
					</g>
				</g>
			</g>
			<g>
				<g>
					<path style="fill:#455A64;" d="M556.047,187.997c-0.049,0.032-0.186-0.414-0.811-0.833c-0.608-0.409-1.746-0.715-3.027-0.3
						c-1.288,0.369-2.648,1.364-4.399,2c-1.73,0.656-3.753,1.078-5.893,1.097c-2.14,0.025-4.175-0.366-5.911-1.007
						c-1.74-0.638-3.189-1.492-4.306-2.326c-1.122-0.832-1.911-1.646-2.423-2.229c-0.512-0.585-0.74-0.952-0.719-0.968
						c0.077-0.073,1.114,1.323,3.358,2.898c2.21,1.562,5.807,3.188,9.996,3.111c2.076-0.018,4.041-0.413,5.732-1.026
						c1.696-0.583,3.068-1.546,4.465-1.905c1.395-0.4,2.629-0.007,3.245,0.49c0.318,0.248,0.501,0.509,0.592,0.697
						C556.039,187.883,556.06,187.992,556.047,187.997z"/>
				</g>
			</g>
			<g>
				<g>
					<path style="fill:#455A64;" d="M565.609,171.894c0.015-0.022,0.301,0.12,0.661,0.558c0.355,0.432,0.755,1.189,0.852,2.205
						c0.103,1.016-0.145,2.232-0.68,3.434c-0.53,1.201-1.264,2.461-2.261,3.615c-0.998,1.15-2.171,2.063-3.374,2.628
						c-1.201,0.57-2.396,0.807-3.394,0.837c-1.002,0.025-1.805-0.141-2.33-0.319c-0.527-0.178-0.788-0.345-0.777-0.37
						c0.026-0.102,1.163,0.462,3.087,0.321c0.95-0.074,2.077-0.337,3.203-0.9c1.127-0.558,2.234-1.436,3.191-2.538
						c1.859-2.23,3.073-4.79,2.967-6.681c-0.045-0.945-0.363-1.671-0.649-2.113C565.817,172.123,565.58,171.928,565.609,171.894z"/>
				</g>
			</g>
			<g>
				<g>
					<path style="fill:#455A64;" d="M570.784,175.443c0.03-0.003,0.1,0.321,0.134,0.917c0.036,0.596-0.004,1.47-0.233,2.521
						c-0.428,2.076-1.861,4.952-4.682,6.769c-2.835,1.797-6.047,1.888-8.111,1.404c-1.05-0.234-1.86-0.565-2.385-0.848
						c-0.528-0.282-0.792-0.481-0.776-0.507c0.045-0.097,1.174,0.63,3.232,0.993c2.016,0.377,5.074,0.222,7.76-1.482
						c2.673-1.721,4.099-4.431,4.604-6.418C570.862,176.774,570.676,175.443,570.784,175.443z"/>
				</g>
			</g>
		</g>
		<g>
			<g>
				<g>
					<path style="fill:#263238;" d="M403.435,399.363l0.085-0.074C403.469,399.331,403.446,399.352,403.435,399.363z"/>
				</g>
				<g>
					<path style="fill:#263238;" d="M612.546,338.06l-54.676-20.576l-1.097-9.965c-0.114-1.038-0.974-1.835-2.017-1.87
						l-42.645-1.446l-0.016-0.014c-0.036,0-0.082,0.005-0.126,0.009l-0.276-0.009l0.008,0.049
						c-2.723,0.525-13.931,5.547-21.92,15.589c-5.529,6.949-42.109,49.232-45.24,50.127c-3.064,0.875-41.625,29.944-41.107,29.41
						l-28.182,24.471l11.633,18.512l77.788-53.603l61.697-41.464c5.109,2.61,12.455,5.736,21.561,7.911
						c7.845,1.873,42.514,6.233,42.514,6.233l3.074,75.637l26.128,3.238l5.272-83.896
						C625.437,348.188,620.356,340.657,612.546,338.06z"/>
				</g>
			</g>
			<g>
				<g>
					<path style="fill:#455A64;" d="M556.77,307.48c0.004,0.036-0.624,0.14-1.765,0.298c-1.14,0.164-2.798,0.349-4.85,0.527
						c-4.104,0.358-9.807,0.609-16.094,0.275c-6.289-0.343-11.935-1.253-15.951-2.185c-2.009-0.462-3.622-0.89-4.721-1.239
						c-1.102-0.339-1.705-0.542-1.695-0.576c0.01-0.035,0.633,0.103,1.748,0.381c1.113,0.288,2.734,0.66,4.745,1.074
						c4.02,0.836,9.642,1.683,15.902,2.025c6.258,0.333,11.939,0.142,16.039-0.122c2.051-0.131,3.71-0.26,4.856-0.361
						C556.129,307.481,556.766,307.444,556.77,307.48z"/>
				</g>
			</g>
			<g>
				<g>
					<path style="fill:#455A64;" d="M543.667,344.683c-0.021,0.087-1.168-0.187-3.045-0.386c-1.875-0.203-4.496-0.259-7.337,0.188
						c-2.841,0.458-5.315,1.325-7.034,2.101c-1.723,0.773-2.727,1.389-2.774,1.313c-0.019-0.03,0.214-0.21,0.656-0.512
						c0.438-0.307,1.107-0.7,1.96-1.134c1.702-0.873,4.211-1.816,7.11-2.282c2.899-0.457,5.577-0.34,7.466-0.039
						c0.946,0.148,1.704,0.313,2.215,0.469C543.397,344.55,543.676,344.649,543.667,344.683z"/>
				</g>
			</g>
			<g>
				<g>
					<path style="fill:#455A64;" d="M591.534,370.176c-0.142,0.025-0.888-3.536-1.667-7.952c-0.779-4.418-1.296-8.019-1.154-8.044
						s0.888,3.535,1.667,7.953C591.159,366.55,591.675,370.151,591.534,370.176z"/>
				</g>
			</g>
			<g>
				<g>
					<path style="fill:#455A64;" d="M456.676,389.642c0.009,0.054-0.603,0.222-1.613,0.135c-1.004-0.08-2.389-0.5-3.647-1.416
						c-1.255-0.921-2.076-2.113-2.457-3.045c-0.389-0.936-0.415-1.57-0.361-1.577c0.086-0.02,0.24,0.572,0.693,1.418
						c0.446,0.846,1.256,1.919,2.432,2.784c1.181,0.857,2.449,1.304,3.391,1.472C456.058,389.587,456.669,389.554,456.676,389.642z"
						/>
				</g>
			</g>
		</g>
	</g>
</g>
<g id="Character_1">
	<g>
		<g>
			<g>
				<path style="fill:#263238;" d="M248.943,175.501c-2.031-3.344-5.483-5.588-9.066-7.159c-3.788-1.661-8.739-2.483-11.633,0.473
					c-1.772,1.81-2.325,4.675-4.4,6.127c-2.093,1.465-4.91,0.961-7.459,1.126c-4.629,0.299-9.16,3.437-10.346,7.922
					c-1.187,4.485,1.726,9.857,6.295,10.661c-2.135,2.383-2.456,6.207-0.748,8.912c1.708,2.706,5.299,4.059,8.368,3.156
					l28.871-20.194C251.257,183.459,250.974,178.845,248.943,175.501z"/>
			</g>
			<g>
				<g>
					<g>
						<g>
							<g>
								<g>
									<g>
										<g>
											<g>
												<g>
													<g>
														<path style="fill:#FFBE9D;" d="M235.675,241.738c-5.716,0.781-10.991-3.199-11.808-8.911l-6.243-43.671l0,0
															c-0.244-1.758,0.898-3.409,2.628-3.802l16.529-3.756c5.695-1.294,11.313,2.42,12.365,8.165
															c1.168,6.383,2.342,14.221,2.15,19.11c-0.388,9.83-7.637,11.935-7.637,11.935l1.027,9.394
															C245.302,235.853,241.307,240.968,235.675,241.738L235.675,241.738z"/>
													</g>
												</g>
											</g>
										</g>
									</g>
									<g>
										<g>
											<g>
												<g>
													<g>
														<g>
															<path style="fill:#263238;" d="M248.055,195.868c0.101,0.651-0.367,1.272-1.045,1.39
																c-0.676,0.117-1.307-0.314-1.408-0.964c-0.101-0.651,0.367-1.273,1.044-1.391
																C247.323,194.786,247.954,195.218,248.055,195.868z"/>
														</g>
													</g>
												</g>
											</g>
										</g>
										<g>
											<g>
												<g>
													<g>
														<g>
															<g>
																<path style="fill:#263238;" d="M247.924,194.058c-0.134,0.179-1.154-0.403-2.485-0.241
																	c-1.332,0.142-2.228,0.943-2.392,0.797c-0.08-0.064,0.042-0.373,0.431-0.734c0.382-0.358,1.061-0.743,1.891-0.838
																	c0.83-0.094,1.564,0.129,2.002,0.394C247.817,193.701,247.991,193.977,247.924,194.058z"/>
															</g>
														</g>
													</g>
												</g>
											</g>
										</g>
									</g>
									<g>
										<g>
											<g>
												<g>
													<g>
														<g>
															<path style="fill:#263238;" d="M234.998,197.286c0.101,0.651-0.367,1.273-1.045,1.39
																c-0.676,0.117-1.307-0.313-1.408-0.964c-0.101-0.651,0.367-1.273,1.044-1.391
																C234.266,196.204,234.897,196.636,234.998,197.286z"/>
														</g>
													</g>
												</g>
											</g>
										</g>
										<g>
											<g>
												<g>
													<g>
														<g>
															<g>
																<path style="fill:#263238;" d="M234.865,195.859c-0.135,0.18-1.155-0.403-2.486-0.241
																	c-1.332,0.142-2.228,0.943-2.392,0.797c-0.079-0.064,0.041-0.373,0.431-0.734c0.382-0.358,1.061-0.743,1.891-0.838
																	c0.83-0.094,1.564,0.129,2.002,0.394C234.757,195.503,234.931,195.778,234.865,195.859z"/>
															</g>
														</g>
													</g>
												</g>
											</g>
										</g>
									</g>
									<g>
										<g>
											<g>
												<g>
													<g>
														<g>
															<path style="fill:#263238;" d="M240.869,205.161c-0.015-0.075,0.796-0.316,2.116-0.647
																c0.336-0.075,0.65-0.181,0.679-0.42c0.051-0.255-0.135-0.605-0.347-0.981c-0.417-0.785-0.854-1.607-1.313-2.47
																c-1.834-3.52-3.204-6.432-3.062-6.504s1.744,2.722,3.578,6.243c0.444,0.869,0.868,1.697,1.272,2.49
																c0.174,0.371,0.448,0.783,0.335,1.313c-0.061,0.265-0.289,0.479-0.5,0.564c-0.21,0.092-0.401,0.119-0.568,0.149
																C241.719,205.13,240.883,205.236,240.869,205.161z"/>
														</g>
													</g>
												</g>
											</g>
										</g>
									</g>
									<g>
										<g>
											<g>
												<g>
													<g>
														<path style="fill:#EB996E;" d="M243.658,220.808c0,0-6.441,1.189-13.33-1.914c0,0,3.841,6.32,13.39,4.272
															L243.658,220.808z"/>
													</g>
												</g>
											</g>
										</g>
									</g>
									<g>
										<g>
											<g>
												<g>
													<g>
														<path style="fill:#EB996E;" d="M240.686,208.436c-0.554-0.576-1.434-0.824-2.257-0.636
															c-0.571,0.13-1.121,0.479-1.417,0.991c-0.295,0.512-0.289,1.189,0.083,1.6c0.419,0.463,1.184,0.49,1.798,0.234
															c0.614-0.256,1.111-0.739,1.581-1.218c0.13-0.132,0.262-0.27,0.333-0.439c0.071-0.169,0.066-0.378-0.061-0.495"/>
													</g>
												</g>
											</g>
										</g>
									</g>
									<g>
										<g>
											<g>
												<g>
													<g>
														<g>
															<path style="fill:#263238;" d="M237.059,206.546c0.215-0.038,0.389,1.407,1.748,2.286
																c1.357,0.883,2.878,0.538,2.914,0.738c0.031,0.088-0.31,0.321-0.958,0.416c-0.635,0.098-1.591,0.003-2.423-0.535
																c-0.829-0.54-1.254-1.34-1.373-1.928C236.841,206.927,236.959,206.55,237.059,206.546z"/>
														</g>
													</g>
												</g>
											</g>
										</g>
									</g>
								</g>
							</g>
						</g>
						<g>
							<g>
								<g>
									<g>
										<g>
											<path style="fill:#263238;" d="M235.187,193.457c-0.089,0.378-1.438,0.364-2.978,0.737
												c-1.547,0.343-2.753,0.949-2.999,0.649c-0.111-0.144,0.068-0.511,0.536-0.922c0.463-0.41,1.229-0.838,2.155-1.054
												c0.926-0.214,1.802-0.167,2.398-0.003C234.901,193.028,235.223,193.278,235.187,193.457z"/>
										</g>
									</g>
								</g>
							</g>
						</g>
						<g>
							<g>
								<g>
									<g>
										<g>
											<path style="fill:#263238;" d="M246.977,190.262c-0.199,0.33-1.153,0.125-2.258,0.241
												c-1.109,0.077-2.013,0.445-2.265,0.154c-0.113-0.143-0.001-0.463,0.373-0.798c0.368-0.333,1.013-0.646,1.774-0.713
												c0.761-0.066,1.45,0.13,1.87,0.395C246.898,189.806,247.063,190.102,246.977,190.262z"/>
										</g>
									</g>
								</g>
							</g>
						</g>
					</g>
				</g>
			</g>
			<g>
				<path style="fill:#263238;" d="M218.199,206.914c0.64,1.638,1.28,3.276,1.92,4.914c0.169,0.433,0.365,0.897,0.766,1.132
					c0.619,0.361,1.423-0.003,1.93-0.51c1.447-1.448,1.511-3.772,1.145-5.786c-0.366-2.014-1.069-4.023-0.821-6.054
					c0.216-1.766,1.13-3.356,1.804-5.003c0.674-1.647,1.104-3.56,0.35-5.172c5.099,1.604,11.15-0.664,13.939-5.224
					c0.67,0.996,2.073,1.422,3.183,0.966c1.11-0.456,1.809-1.745,1.585-2.925c0.156,1.32,0.553,2.93,1.844,3.246
					c1.024,0.251,2.088-0.599,2.338-1.623c0.25-1.024-0.149-2.112-0.769-2.966c-1.149-1.583-3.013-2.538-4.929-2.932
					c-1.916-0.395-3.899-0.281-5.844-0.077c-5.997,0.629-11.901,2.105-17.503,4.333c-1.613,0.641-3.317,1.448-4.129,2.982
					c-0.811,1.531-0.525,3.387-0.218,5.092c0.91,5.056,1.82,10.111,2.731,15.167"/>
			</g>
			<g>
				<g>
					<path style="fill:#455A64;" d="M213.9,205.119c-0.005,0.012-0.164-0.033-0.441-0.183c-0.276-0.149-0.656-0.437-1.022-0.917
						c-0.359-0.479-0.696-1.17-0.781-2.033c-0.104-0.847,0.126-1.92,0.851-2.75c0.679-0.853,1.675-1.497,2.418-2.421
						c0.777-0.912,0.924-2.223,0.923-3.597c0.013-0.691,0.008-1.416,0.137-2.161c0.128-0.745,0.396-1.48,0.784-2.161
						c0.77-1.362,2.048-2.506,3.607-3.101c1.589-0.585,3.245-0.468,4.739-0.314c1.504,0.153,2.947,0.366,4.279,0.171
						c0.663-0.095,1.284-0.298,1.839-0.59c0.55-0.303,1.023-0.708,1.439-1.143c0.834-0.874,1.465-1.842,2.148-2.655
						c0.673-0.818,1.402-1.493,2.169-1.89c0.769-0.4,1.529-0.509,2.13-0.461c0.605,0.046,1.049,0.244,1.31,0.419
						c0.264,0.176,0.364,0.312,0.356,0.319c-0.025,0.063-0.512-0.499-1.676-0.536c-0.566-0.015-1.278,0.118-1.98,0.514
						c-0.707,0.396-1.383,1.053-2.023,1.867c-0.649,0.808-1.262,1.79-2.12,2.72c-0.429,0.462-0.93,0.905-1.529,1.246
						c-0.604,0.329-1.283,0.557-1.993,0.665c-1.429,0.219-2.908,0.004-4.401-0.139c-1.485-0.149-3.058-0.242-4.505,0.294
						c-1.435,0.548-2.63,1.607-3.348,2.868c-0.362,0.629-0.613,1.307-0.736,1.992c-0.125,0.687-0.128,1.392-0.148,2.086
						c-0.019,0.695-0.044,1.39-0.199,2.061c-0.144,0.669-0.452,1.304-0.867,1.796c-0.828,0.989-1.825,1.6-2.472,2.387
						c-0.687,0.757-0.909,1.69-0.844,2.491c0.051,0.804,0.341,1.469,0.656,1.94C213.26,204.856,213.941,205.064,213.9,205.119z"/>
				</g>
			</g>
			<g>
				<g>
					<path style="fill:#455A64;" d="M207.174,183.597c-0.011,0.005-0.086-0.114-0.155-0.37c-0.071-0.253-0.12-0.657-0.005-1.154
						c0.109-0.495,0.381-1.078,0.879-1.606c0.483-0.538,1.239-0.982,2.131-1.162c0.891-0.196,1.899-0.157,2.929,0.04
						c1.036,0.195,2.089,0.558,3.194,0.873c1.104,0.321,2.277,0.553,3.504,0.458c1.226-0.08,2.475-0.424,3.701-0.91
						c2.455-0.981,4.622-2.38,6.818-3.23c2.166-0.887,4.398-1.182,6.149-0.705c1.759,0.423,2.96,1.393,3.549,2.193
						c0.291,0.409,0.465,0.758,0.554,1.004c0.085,0.248,0.12,0.38,0.103,0.385c-0.052,0.023-0.206-0.516-0.816-1.263
						c-0.614-0.729-1.785-1.601-3.474-1.96c-1.678-0.408-3.775-0.096-5.887,0.791c-2.132,0.85-4.281,2.257-6.805,3.269
						c-1.259,0.499-2.562,0.858-3.86,0.935c-1.302,0.094-2.557-0.168-3.67-0.507c-1.121-0.334-2.154-0.705-3.145-0.91
						c-0.99-0.208-1.939-0.263-2.771-0.102c-1.707,0.281-2.648,1.571-2.887,2.458C206.947,183.052,207.244,183.589,207.174,183.597z
						"/>
				</g>
			</g>
			<g>
				<path style="fill:#263238;" d="M248.943,175.501c-2.031-3.344-5.483-5.588-9.066-7.159c-3.788-1.661-8.739-2.483-11.633,0.473
					c-1.772,1.81-2.325,4.675-4.4,6.127c-2.093,1.465-4.91,0.961-7.459,1.126c-4.629,0.299-9.16,3.437-10.346,7.922
					c-1.187,4.485,1.726,9.857,6.295,10.661c-2.135,2.383-2.456,6.207-0.748,8.912c1.708,2.706,5.299,4.059,8.368,3.156
					l28.871-20.194C251.257,183.459,250.974,178.845,248.943,175.501z"/>
			</g>
			<g>
				<g>
					<g>
						<g>
							<g>
								<g>
									<g>
										<g>
											<g>
												<g>
													<g>
														<path style="fill:#FFBE9D;" d="M235.675,241.738c-5.716,0.781-10.991-3.199-11.808-8.911l-6.243-43.671l0,0
															c-0.244-1.758,0.898-3.409,2.628-3.802l16.529-3.756c5.695-1.294,11.313,2.42,12.365,8.165
															c1.168,6.383,2.342,14.221,2.15,19.11c-0.388,9.83-7.637,11.935-7.637,11.935l1.027,9.394
															C245.302,235.853,241.307,240.968,235.675,241.738L235.675,241.738z"/>
													</g>
												</g>
											</g>
										</g>
									</g>
									<g>
										<g>
											<g>
												<g>
													<g>
														<g>
															<path style="fill:#263238;" d="M248.055,195.868c0.101,0.651-0.367,1.272-1.045,1.39
																c-0.676,0.117-1.307-0.314-1.408-0.964c-0.101-0.651,0.367-1.273,1.044-1.391
																C247.323,194.786,247.954,195.218,248.055,195.868z"/>
														</g>
													</g>
												</g>
											</g>
										</g>
										<g>
											<g>
												<g>
													<g>
														<g>
															<g>
																<path style="fill:#263238;" d="M247.924,194.058c-0.134,0.179-1.154-0.403-2.485-0.241
																	c-1.332,0.142-2.228,0.943-2.392,0.797c-0.08-0.064,0.042-0.373,0.431-0.734c0.382-0.358,1.061-0.743,1.891-0.838
																	c0.83-0.094,1.564,0.129,2.002,0.394C247.817,193.701,247.991,193.977,247.924,194.058z"/>
															</g>
														</g>
													</g>
												</g>
											</g>
										</g>
									</g>
									<g>
										<g>
											<g>
												<g>
													<g>
														<g>
															<path style="fill:#263238;" d="M234.998,197.286c0.101,0.651-0.367,1.273-1.045,1.39
																c-0.676,0.117-1.307-0.313-1.408-0.964c-0.101-0.651,0.367-1.273,1.044-1.391
																C234.266,196.204,234.897,196.636,234.998,197.286z"/>
														</g>
													</g>
												</g>
											</g>
										</g>
										<g>
											<g>
												<g>
													<g>
														<g>
															<g>
																<path style="fill:#263238;" d="M234.865,195.859c-0.135,0.18-1.155-0.403-2.486-0.241
																	c-1.332,0.142-2.228,0.943-2.392,0.797c-0.079-0.064,0.041-0.373,0.431-0.734c0.382-0.358,1.061-0.743,1.891-0.838
																	c0.83-0.094,1.564,0.129,2.002,0.394C234.757,195.503,234.931,195.778,234.865,195.859z"/>
															</g>
														</g>
													</g>
												</g>
											</g>
										</g>
									</g>
									<g>
										<g>
											<g>
												<g>
													<g>
														<g>
															<path style="fill:#263238;" d="M240.869,205.161c-0.015-0.075,0.796-0.316,2.116-0.647
																c0.336-0.075,0.65-0.181,0.679-0.42c0.051-0.255-0.135-0.605-0.347-0.981c-0.417-0.785-0.854-1.607-1.313-2.47
																c-1.834-3.52-3.204-6.432-3.062-6.504s1.744,2.722,3.578,6.243c0.444,0.869,0.868,1.697,1.272,2.49
																c0.174,0.371,0.448,0.783,0.335,1.313c-0.061,0.265-0.289,0.479-0.5,0.564c-0.21,0.092-0.401,0.119-0.568,0.149
																C241.719,205.13,240.883,205.236,240.869,205.161z"/>
														</g>
													</g>
												</g>
											</g>
										</g>
									</g>
									<g>
										<g>
											<g>
												<g>
													<g>
														<path style="fill:#EB996E;" d="M243.658,220.808c0,0-6.441,1.189-13.33-1.914c0,0,3.841,6.32,13.39,4.272
															L243.658,220.808z"/>
													</g>
												</g>
											</g>
										</g>
									</g>
									<g>
										<g>
											<g>
												<g>
													<g>
														<path style="fill:#EB996E;" d="M240.686,208.436c-0.554-0.576-1.434-0.824-2.257-0.636
															c-0.571,0.13-1.121,0.479-1.417,0.991c-0.295,0.512-0.289,1.189,0.083,1.6c0.419,0.463,1.184,0.49,1.798,0.234
															c0.614-0.256,1.111-0.739,1.581-1.218c0.13-0.132,0.262-0.27,0.333-0.439c0.071-0.169,0.066-0.378-0.061-0.495"/>
													</g>
												</g>
											</g>
										</g>
									</g>
									<g>
										<g>
											<g>
												<g>
													<g>
														<g>
															<path style="fill:#263238;" d="M237.059,206.546c0.215-0.038,0.389,1.407,1.748,2.286
																c1.357,0.883,2.878,0.538,2.914,0.738c0.031,0.088-0.31,0.321-0.958,0.416c-0.635,0.098-1.591,0.003-2.423-0.535
																c-0.829-0.54-1.254-1.34-1.373-1.928C236.841,206.927,236.959,206.55,237.059,206.546z"/>
														</g>
													</g>
												</g>
											</g>
										</g>
									</g>
								</g>
							</g>
						</g>
						<g>
							<g>
								<g>
									<g>
										<g>
											<path style="fill:#263238;" d="M235.187,193.457c-0.089,0.378-1.438,0.364-2.978,0.737
												c-1.547,0.343-2.753,0.949-2.999,0.649c-0.111-0.144,0.068-0.511,0.536-0.922c0.463-0.41,1.229-0.838,2.155-1.054
												c0.926-0.214,1.802-0.167,2.398-0.003C234.901,193.028,235.223,193.278,235.187,193.457z"/>
										</g>
									</g>
								</g>
							</g>
						</g>
						<g>
							<g>
								<g>
									<g>
										<g>
											<path style="fill:#263238;" d="M246.977,190.262c-0.199,0.33-1.153,0.125-2.258,0.241
												c-1.109,0.077-2.013,0.445-2.265,0.154c-0.113-0.143-0.001-0.463,0.373-0.798c0.368-0.333,1.013-0.646,1.774-0.713
												c0.761-0.066,1.45,0.13,1.87,0.395C246.898,189.806,247.063,190.102,246.977,190.262z"/>
										</g>
									</g>
								</g>
							</g>
						</g>
					</g>
				</g>
			</g>
			<g>
				<path style="fill:#263238;" d="M218.199,206.914c0.64,1.638,1.28,3.276,1.92,4.914c0.169,0.433,0.365,0.897,0.766,1.132
					c0.619,0.361,1.423-0.003,1.93-0.51c1.447-1.448,1.511-3.772,1.145-5.786c-0.366-2.014-1.069-4.023-0.821-6.054
					c0.216-1.766,1.13-3.356,1.804-5.003c0.674-1.647,1.104-3.56,0.35-5.172c5.099,1.604,11.15-0.664,13.939-5.224
					c0.67,0.996,2.073,1.422,3.183,0.966c1.11-0.456,1.809-1.745,1.585-2.925c0.156,1.32,0.553,2.93,1.844,3.246
					c1.024,0.251,2.088-0.599,2.338-1.623c0.25-1.024-0.149-2.112-0.769-2.966c-1.149-1.583-3.013-2.538-4.929-2.932
					c-1.916-0.395-3.899-0.281-5.844-0.077c-5.997,0.629-11.901,2.105-17.503,4.333c-1.613,0.641-3.317,1.448-4.129,2.982
					c-0.811,1.531-0.525,3.387-0.218,5.092c0.91,5.056,1.82,10.111,2.731,15.167"/>
			</g>
			<g>
				<g>
					<path style="fill:#455A64;" d="M213.9,205.119c-0.005,0.012-0.164-0.033-0.441-0.183c-0.276-0.149-0.656-0.437-1.022-0.917
						c-0.359-0.479-0.696-1.17-0.781-2.033c-0.104-0.847,0.126-1.92,0.851-2.75c0.679-0.853,1.675-1.497,2.418-2.421
						c0.777-0.912,0.924-2.223,0.923-3.597c0.013-0.691,0.008-1.416,0.137-2.161c0.128-0.745,0.396-1.48,0.784-2.161
						c0.77-1.362,2.048-2.506,3.607-3.101c1.589-0.585,3.245-0.468,4.739-0.314c1.504,0.153,2.947,0.366,4.279,0.171
						c0.663-0.095,1.284-0.298,1.839-0.59c0.55-0.303,1.023-0.708,1.439-1.143c0.834-0.874,1.465-1.842,2.148-2.655
						c0.673-0.818,1.402-1.493,2.169-1.89c0.769-0.4,1.529-0.509,2.13-0.461c0.605,0.046,1.049,0.244,1.31,0.419
						c0.264,0.176,0.364,0.312,0.356,0.319c-0.025,0.063-0.512-0.499-1.676-0.536c-0.566-0.015-1.278,0.118-1.98,0.514
						c-0.707,0.396-1.383,1.053-2.023,1.867c-0.649,0.808-1.262,1.79-2.12,2.72c-0.429,0.462-0.93,0.905-1.529,1.246
						c-0.604,0.329-1.283,0.557-1.993,0.665c-1.429,0.219-2.908,0.004-4.401-0.139c-1.485-0.149-3.058-0.242-4.505,0.294
						c-1.435,0.548-2.63,1.607-3.348,2.868c-0.362,0.629-0.613,1.307-0.736,1.992c-0.125,0.687-0.128,1.392-0.148,2.086
						c-0.019,0.695-0.044,1.39-0.199,2.061c-0.144,0.669-0.452,1.304-0.867,1.796c-0.828,0.989-1.825,1.6-2.472,2.387
						c-0.687,0.757-0.909,1.69-0.844,2.491c0.051,0.804,0.341,1.469,0.656,1.94C213.26,204.856,213.941,205.064,213.9,205.119z"/>
				</g>
			</g>
			<g>
				<g>
					<path style="fill:#455A64;" d="M207.174,183.597c-0.011,0.005-0.086-0.114-0.155-0.37c-0.071-0.253-0.12-0.657-0.005-1.154
						c0.109-0.495,0.381-1.078,0.879-1.606c0.483-0.538,1.239-0.982,2.131-1.162c0.891-0.196,1.899-0.157,2.929,0.04
						c1.036,0.195,2.089,0.558,3.194,0.873c1.104,0.321,2.277,0.553,3.504,0.458c1.226-0.08,2.475-0.424,3.701-0.91
						c2.455-0.981,4.622-2.38,6.818-3.23c2.166-0.887,4.398-1.182,6.149-0.705c1.759,0.423,2.96,1.393,3.549,2.193
						c0.291,0.409,0.465,0.758,0.554,1.004c0.085,0.248,0.12,0.38,0.103,0.385c-0.052,0.023-0.206-0.516-0.816-1.263
						c-0.614-0.729-1.785-1.601-3.474-1.96c-1.678-0.408-3.775-0.096-5.887,0.791c-2.132,0.85-4.281,2.257-6.805,3.269
						c-1.259,0.499-2.562,0.858-3.86,0.935c-1.302,0.094-2.557-0.168-3.67-0.507c-1.121-0.334-2.154-0.705-3.145-0.91
						c-0.99-0.208-1.939-0.263-2.771-0.102c-1.707,0.281-2.648,1.571-2.887,2.458C206.947,183.052,207.244,183.589,207.174,183.597z
						"/>
				</g>
			</g>
		</g>
		<g>
			<g>
				<path style="fill:#FFBE9D;" d="M263.749,145.572c-2.147-4.157-4.009-6.805-5.268-9.604c-1.551-3.45-2.433-4.764-3.06-4.432
					c-0.837,0.443-0.535,0.235,1.392,6.907c0,0-2.834-9.499-3.838-6.96c-0.177,0.448,0.079,1.974,0.45,3.646
					c-0.859-2.41-1.709-3.31-2.34-3.154c-1.086,0.268,0.327,5.956,1.045,8.6c-0.62-2.176-1.846-6.335-2.398-7.196
					c-0.755-1.177-1.27,0.433-1.319,1.886c-0.055,1.631,0.988,11.147,1.145,13.909c0.108,1.9-1.578,1.913-1.578,1.913
					c-3.982-0.517-7.359,1.207-8.056,2.104c-0.694,0.898,0.305,2.152,1.506,1.788c0.971-0.294,2.735-0.294,4.059-0.24
					c1.091,0.045,2.166,0.263,3.173,0.665c1.173,0.468,2.147,0.909,2.965,1.307l14.939,46.11L249.468,233.6l11.209,24.313
					l20.37-39.3c4.07-7.852,4.559-17.077,1.341-25.315L263.749,145.572z"/>
			</g>
			<g>
				<g>
					<path style="fill:#EB996E;" d="M250.178,134.368c0.138-0.042,0.865,1.949,1.624,4.445c0.76,2.498,1.264,4.555,1.126,4.597
						c-0.138,0.042-0.865-1.948-1.624-4.446C250.545,136.469,250.041,134.41,250.178,134.368z"/>
				</g>
			</g>
			<g>
				<g>
					<path style="fill:#EB996E;" d="M255.15,141.818c-0.138,0.041-0.789-1.75-1.454-3.999c-0.666-2.25-1.093-4.106-0.955-4.147
						c0.138-0.041,0.789,1.749,1.455,3.999C254.86,139.921,255.288,141.777,255.15,141.818z"/>
				</g>
			</g>
			<g>
				<g>
					<path style="fill:#EB996E;" d="M257.375,140.563c-0.128,0.056-0.925-1.516-1.586-3.579c-0.665-2.062-0.933-3.803-0.796-3.833
						c0.144-0.033,0.635,1.637,1.292,3.674C256.937,138.862,257.511,140.505,257.375,140.563z"/>
				</g>
			</g>
			<g>
				<g>
					<path style="fill:#EB996E;" d="M261.387,148.605c0.017,0.07-0.432,0.184-1.062,0.574c-0.623,0.381-1.432,1.101-1.87,2.187
						l-0.111,0.275l-0.26-0.158c-0.346-0.21-0.726-0.409-1.132-0.581c-1.391-0.578-2.785-0.68-3.771-0.615
						c-0.993,0.061-1.599,0.244-1.624,0.164c-0.023-0.055,0.551-0.369,1.585-0.531c1.022-0.165,2.521-0.119,4.01,0.5
						c0.435,0.184,0.84,0.402,1.205,0.635l-0.37,0.117c0.523-1.216,1.471-1.952,2.183-2.28
						C260.894,148.557,261.381,148.556,261.387,148.605z"/>
				</g>
			</g>
		</g>
		<g>
			<g>
				<path style="fill:#FFBE9D;" d="M209,262.994c0,0.577,3.052,43.845,3.052,43.845l42.454,1.545l1.78-45.391H209z"/>
			</g>
			<g>
				<g>
					<g>
						<path style="fill:#263238;" d="M231.94,285.103c0.056,0.012-0.075,0.491-0.118,1.369c-0.052,0.872,0.003,2.161,0.491,3.647
							c0.474,1.476,1.418,3.153,2.951,4.519c0.768,0.676,1.681,1.266,2.715,1.666c1.028,0.419,2.185,0.611,3.373,0.71
							c2.383,0.18,4.722,0.008,6.833,0.375c2.098,0.329,3.974,1.216,5.007,2.516c1.053,1.265,1.374,2.645,1.301,3.548
							c-0.026,0.455-0.123,0.798-0.205,1.02c-0.093,0.22-0.149,0.329-0.165,0.322c-0.057-0.017,0.177-0.475,0.168-1.346
							c0.008-0.858-0.351-2.14-1.377-3.303c-1.002-1.186-2.768-1.985-4.804-2.282c-2.045-0.332-4.353-0.147-6.8-0.329
							c-1.22-0.102-2.426-0.304-3.517-0.754c-1.095-0.431-2.053-1.065-2.85-1.784c-1.591-1.455-2.536-3.222-2.982-4.766
							c-0.46-1.554-0.458-2.889-0.342-3.775c0.041-0.448,0.137-0.785,0.199-1.012C231.882,285.214,231.923,285.098,231.94,285.103z"
							/>
					</g>
				</g>
				<g>
					<g>
						<g>
							<path style="fill:#263238;" d="M249.814,301.465c-0.044,0.001-0.055-0.251-0.187-0.664c-0.129-0.406-0.424-0.99-1.039-1.431
								c-0.595-0.442-1.555-0.679-2.473-0.328c-0.911,0.323-1.69,1.293-1.68,2.422c-0.01,1.129,0.769,2.099,1.68,2.423
								c0.918,0.351,1.878,0.115,2.473-0.328c0.615-0.441,0.909-1.025,1.038-1.431C249.758,301.716,249.769,301.464,249.814,301.465
								c0.027-0.002,0.088,0.253,0.01,0.713c-0.077,0.45-0.342,1.131-1.012,1.674c-0.646,0.544-1.758,0.875-2.86,0.486
								c-1.091-0.354-2.051-1.512-2.037-2.874c-0.013-1.361,0.946-2.519,2.037-2.873c1.101-0.389,2.213-0.058,2.859,0.486
								c0.67,0.543,0.935,1.224,1.012,1.674C249.901,301.213,249.84,301.467,249.814,301.465z"/>
						</g>
					</g>
					<g>
						<g>
							<g>
								<path style="fill:#263238;" d="M249.785,301.513c-0.03,0.148-1.293-0.188-2.661,0.395c-1.374,0.57-2.019,1.707-2.145,1.625
									c-0.059-0.029,0.015-0.358,0.319-0.802c0.298-0.44,0.855-0.98,1.625-1.303c0.77-0.324,1.545-0.344,2.068-0.248
									C249.519,301.274,249.806,301.451,249.785,301.513z"/>
							</g>
						</g>
						<g>
							<g>
								<path style="fill:#263238;" d="M247.451,301.794c-0.027,0.139-0.921-0.083-1.463-0.992c-0.55-0.905-0.327-1.799-0.191-1.758
									c0.149,0.012,0.181,0.753,0.638,1.489C246.871,301.281,247.51,301.656,247.451,301.794z"/>
							</g>
						</g>
					</g>
				</g>
				<g>
					<g>
						<g>
							<path style="fill:#263238;" d="M244.149,293.334c-0.044,0.001-0.055-0.251-0.187-0.664c-0.129-0.406-0.423-0.99-1.039-1.431
								c-0.595-0.442-1.555-0.679-2.473-0.328c-0.911,0.323-1.69,1.293-1.68,2.422c-0.01,1.129,0.769,2.099,1.68,2.423
								c0.918,0.351,1.878,0.115,2.473-0.328c0.615-0.441,0.909-1.025,1.038-1.431C244.093,293.584,244.104,293.332,244.149,293.334
								c0.027-0.002,0.088,0.253,0.01,0.713c-0.077,0.45-0.342,1.131-1.012,1.674c-0.646,0.544-1.758,0.876-2.86,0.486
								c-1.091-0.354-2.051-1.512-2.037-2.874c-0.013-1.361,0.946-2.519,2.037-2.873c1.101-0.389,2.213-0.058,2.859,0.486
								c0.67,0.543,0.935,1.224,1.012,1.674C244.236,293.081,244.175,293.336,244.149,293.334z"/>
						</g>
					</g>
					<g>
						<g>
							<g>
								<path style="fill:#263238;" d="M244.12,293.382c-0.03,0.148-1.293-0.188-2.661,0.395c-1.374,0.57-2.019,1.707-2.145,1.625
									c-0.059-0.029,0.015-0.358,0.319-0.801c0.298-0.441,0.855-0.98,1.625-1.303c0.769-0.323,1.545-0.344,2.068-0.248
									C243.854,293.142,244.141,293.319,244.12,293.382z"/>
							</g>
						</g>
						<g>
							<g>
								<path style="fill:#263238;" d="M241.786,293.662c-0.027,0.139-0.922-0.083-1.463-0.992c-0.55-0.905-0.327-1.799-0.191-1.758
									c0.149,0.012,0.181,0.753,0.638,1.489C241.206,293.15,241.845,293.525,241.786,293.662z"/>
							</g>
						</g>
					</g>
				</g>
				<g>
					<g>
						<path style="fill:#263238;" d="M244.389,298.5c0.07,0.025-0.223,0.793-1.112,1.724c-0.442,0.457-1.028,0.985-1.822,1.357
							c-0.784,0.372-1.75,0.591-2.764,0.518l-0.301-0.022l0.066-0.288c0.018-0.079,0.037-0.163,0.057-0.249
							c0.265-1.025,0.875-1.877,1.582-2.442c0.712-0.573,1.515-0.84,2.182-0.926C243.643,298.014,244.421,298.461,244.389,298.5
							c-0.018,0.092-0.811-0.204-2.052,0.034c-0.61,0.125-1.317,0.402-1.937,0.933c-0.618,0.526-1.149,1.296-1.383,2.202
							c-0.017,0.075-0.034,0.15-0.05,0.22l-0.236-0.31c0.917,0.069,1.799-0.114,2.529-0.431c0.733-0.313,1.306-0.775,1.764-1.183
							C243.942,299.136,244.329,298.47,244.389,298.5z"/>
					</g>
				</g>
			</g>
			<g>
				<g>
					<path style="fill:#455A64;" d="M261.218,291.546c-1.384-3.786-5.911-10.017-4.67-13.853c1.24-3.836,3.011-7.515,3.81-11.466
						c0.513-2.536,0.589-5.123,0.361-7.696c0.189-0.587,0.353-1.129,0.479-1.616c0.165-0.634-0.728-3.042-2.067-6.119
						c-0.265-0.832-0.549-1.658-0.862-2.47c-1.443-3.74-3.345-7.272-5.393-10.724c-1.586-3.186-2.763-5.473-2.763-5.473
						l-3.425-0.436l-1.965-5.507l-21.972-0.757l-1.536,6.16l-4.855,0.243l-11.746,30.175l6.536,32.02l43.992-1.877
						c0,0-0.01-0.075-0.023-0.183L261.218,291.546z"/>
				</g>
				<g>
					<g>
						<path style="fill:#263238;" d="M219.282,247.458c-0.175-0.009,0.213-3.596-0.453-7.937c-0.653-4.345-2.087-7.654-1.923-7.715
							c0.059-0.025,0.484,0.77,1.003,2.131c0.518,1.36,1.098,3.301,1.435,5.505c0.332,2.205,0.354,4.23,0.263,5.682
							C219.516,246.579,219.346,247.465,219.282,247.458z"/>
					</g>
				</g>
				<g>
					<g>
						<path style="fill:#263238;" d="M222.752,241.836c-0.154,0.029-0.582-2.484-2.043-5.222c-1.438-2.741-3.066-4.702-2.931-4.808
							c0.082-0.082,1.912,1.751,3.394,4.568C222.675,239.197,222.885,241.839,222.752,241.836z"/>
					</g>
				</g>
				<g>
					<g>
						<path style="fill:#263238;" d="M225.02,231.291c-0.144,0.004-0.283-0.861-0.31-1.932c-0.028-1.071,0.067-1.942,0.21-1.945
							c0.144-0.004,0.283,0.861,0.31,1.932C225.257,230.416,225.163,231.287,225.02,231.291z"/>
					</g>
				</g>
				<g>
					<g>
						<path style="fill:#263238;" d="M229.087,231.156c-0.144,0-0.26-0.868-0.26-1.938c0-1.071,0.117-1.938,0.26-1.938
							c0.144,0,0.26,0.868,0.26,1.938C229.348,230.288,229.231,231.156,229.087,231.156z"/>
					</g>
				</g>
				<g>
					<g>
						<path style="fill:#263238;" d="M233.348,231.29c-0.144,0.008-0.312-0.914-0.376-2.058c-0.064-1.145,0.001-2.079,0.144-2.087
							c0.144-0.008,0.312,0.913,0.376,2.058C233.557,230.348,233.492,231.282,233.348,231.29z"/>
					</g>
				</g>
				<g>
					<g>
						<path style="fill:#263238;" d="M237.093,231.29c-0.143,0.01-0.312-0.761-0.376-1.721c-0.064-0.96,0.001-1.747,0.144-1.756
							c0.143-0.01,0.312,0.761,0.375,1.721C237.301,230.495,237.237,231.281,237.093,231.29z"/>
					</g>
				</g>
				<g>
					<g>
						<path style="fill:#263238;" d="M240.307,231.022c-0.148,0-0.26-0.809-0.44-1.785c-0.175-0.977-0.355-1.773-0.217-1.826
							c0.13-0.052,0.544,0.702,0.73,1.732C240.569,230.174,240.447,231.025,240.307,231.022z"/>
					</g>
				</g>
				<g>
					<g>
						<path style="fill:#263238;" d="M244.057,231.29c-0.146,0.024-0.4-0.854-0.766-1.904c-0.36-1.053-0.7-1.9-0.571-1.972
							c0.121-0.07,0.686,0.7,1.063,1.802C244.165,230.315,244.196,231.27,244.057,231.29z"/>
					</g>
				</g>
				<g>
					<g>
						<g>
							<g>
								<path style="fill:#FFFFFF;" d="M244.616,258.811c0.043,0.048-0.706,0.233-1.375,1.304c-0.325,0.528-0.601,1.257-0.74,2.146
									c-0.215,0.876,0.127,1.894,0.536,2.962l0.078,0.205l-0.217,0.002c-1.619,0.012-3.471,0.025-5.519,0.041l-0.428,0.003
									l0.291-0.325c0.452-0.504,0.617-1.297,0.673-2.075c0.076-0.774-0.107-1.601-0.506-2.308
									c-0.413-0.713-1.118-1.24-1.885-1.723l-0.585-0.369c-0.212-0.146-0.337-0.199-0.565-0.254
									c-0.418-0.094-0.895-0.103-1.348-0.075l0.071-0.017c-2.285,0.928-5.309-0.665-5.744-3.353
									c-0.373-2.715,2.515-5.307,5.343-4.549l-0.296,0.384c-0.433-0.736-0.649-1.666-0.551-2.57
									c0.1-1.175,0.644-2.279,1.468-3.089c0.823-0.823,2.026-1.227,3.154-1.119c2.246,0.242,4.168,2.114,4.256,4.295l-0.477-0.083
									c0.829-1.969,3.231-2.86,5.018-2.069c1.781,0.81,2.628,2.883,2.134,4.551l-0.344-0.219c1.113-0.945,2.674-0.798,3.719-0.19
									c1.12,0.583,1.725,1.78,1.779,2.858c0.107,2.23-1.305,3.887-2.616,4.585c-1.341,0.74-2.561,0.848-3.348,0.881
									c-0.4,0.012-0.705-0.006-0.909-0.025c-0.204-0.022-0.309-0.038-0.308-0.049c0.001-0.03,0.423,0.009,1.21-0.053
									c0.773-0.072,1.964-0.221,3.233-0.964c0.621-0.379,1.256-0.908,1.71-1.661c0.454-0.742,0.764-1.687,0.686-2.689
									c-0.073-0.994-0.613-2.03-1.625-2.546c-0.953-0.543-2.338-0.629-3.251,0.171l-0.551,0.483l0.207-0.702
									c0.429-1.452-0.362-3.327-1.913-4.006c-1.528-0.687-3.688,0.136-4.373,1.827l-0.436,1.077l-0.041-1.16
									c-0.066-1.887-1.819-3.6-3.809-3.8c-0.992-0.088-2.017,0.253-2.747,0.981c-0.728,0.715-1.223,1.714-1.309,2.762
									c-0.088,0.807,0.107,1.617,0.477,2.253l0.327,0.562l-0.623-0.178c-2.408-0.687-5.053,1.669-4.697,3.982
									c0.337,2.321,3.101,3.805,5.066,2.985l0.036-0.015l0.035-0.002c0.506-0.027,0.991-0.018,1.492,0.095
									c0.234,0.043,0.538,0.193,0.705,0.318l0.584,0.374c0.772,0.495,1.55,1.074,2.012,1.885c0.446,0.805,0.628,1.71,0.54,2.555
									c-0.075,0.823-0.23,1.671-0.804,2.309l-0.137-0.322c2.048,0.015,3.9,0.029,5.519,0.04l-0.138,0.206
									c-0.398-1.093-0.736-2.178-0.488-3.115c0.166-0.911,0.475-1.658,0.835-2.193c0.357-0.54,0.762-0.852,1.048-1.018
									C244.442,258.841,244.616,258.811,244.616,258.811z"/>
							</g>
						</g>
						<g>
							<g>
								<path style="fill:#FFFFFF;" d="M247.299,254.534c0.029-0.002,0.089,0.223,0.042,0.637c-0.048,0.408-0.229,1.014-0.717,1.597
									c-0.471,0.575-1.315,1.128-2.356,1.125c-1.013,0.01-2.16-0.487-2.82-1.498c-0.029-0.046-0.058-0.092-0.085-0.134
									l0.464-0.027c-0.489,1.099-1.566,1.73-2.557,1.83c-1.022,0.121-1.906-0.363-2.401-0.898
									c-0.515-0.542-0.724-1.128-0.785-1.526c-0.062-0.404-0.008-0.626,0.02-0.625c0.094-0.033,0.033,0.954,1.021,1.89
									c0.478,0.447,1.236,0.811,2.089,0.685c0.837-0.106,1.743-0.668,2.135-1.563l0.196-0.446l0.269,0.419
									c0.022,0.035,0.047,0.073,0.071,0.111c0.543,0.838,1.523,1.288,2.387,1.301c0.88,0.028,1.617-0.404,2.078-0.89
									C247.295,255.503,247.203,254.507,247.299,254.534z"/>
							</g>
						</g>
					</g>
					<g>
						<path style="fill:#FFFFFF;" d="M230.817,268.292c0.041,0,0.082,0.011,0.121,0.033c0.08,0.05,0.122,0.118,0.124,0.207
							c-0.083,0.669-0.148,1.193-0.194,1.573c-0.121,0.953-0.181,1.493-0.181,1.621c0,0.521,0.134,0.782,0.401,0.784
							c0.494-0.002,0.934-0.236,1.32-0.703c0.325-0.395,0.576-0.9,0.753-1.517c-0.374-0.016-0.674-0.114-0.9-0.296
							c-0.263-0.212-0.395-0.505-0.395-0.879c0.002-0.257,0.104-0.475,0.307-0.654c0.178-0.151,0.377-0.228,0.597-0.228
							c0.285,0,0.522,0.093,0.713,0.279c0.215,0.213,0.323,0.496,0.323,0.85c0,0.081-0.007,0.211-0.021,0.391
							c0.045-0.01,0.09-0.023,0.136-0.04c0.111-0.037,0.249-0.107,0.413-0.211c0.117-0.074,0.214-0.111,0.29-0.111
							c0.031,0,0.063,0.009,0.095,0.027c0.076,0.043,0.114,0.109,0.114,0.2c-0.002,0.127-0.104,0.25-0.305,0.369
							c-0.239,0.14-0.524,0.232-0.856,0.277c0,0.002-0.001,0.004-0.003,0.006c-0.189,0.714-0.474,1.315-0.853,1.804
							c-0.514,0.665-1.123,0.997-1.827,0.997c-0.099,0-0.189-0.015-0.271-0.046c-0.354-0.136-0.53-0.551-0.53-1.246
							c0-0.376,0.046-0.864,0.139-1.465c0.095-0.605,0.15-1.026,0.168-1.261c-0.204,0.13-0.365,0.23-0.484,0.303
							c-0.201,0.13-0.32,0.195-0.357,0.195c-0.047,0-0.092-0.014-0.136-0.041c-0.078-0.053-0.117-0.123-0.117-0.213
							c0.002-0.092,0.052-0.171,0.148-0.235c0.006-0.004,0.015-0.009,0.025-0.016C230.286,268.573,230.7,268.321,230.817,268.292z
							 M232.366,269.199c0,0.1,0.022,0.192,0.068,0.272c0.128,0.228,0.408,0.342,0.842,0.342c0.033-0.176,0.049-0.331,0.049-0.466
							c0-0.093-0.013-0.181-0.04-0.264c-0.074-0.217-0.217-0.325-0.429-0.325c-0.102,0-0.196,0.024-0.281,0.074
							C232.436,268.917,232.366,269.039,232.366,269.199z"/>
						<path style="fill:#FFFFFF;" d="M234.965,268.283h1.98c0.041,0,0.079,0.006,0.114,0.016c0.113,0.038,0.17,0.117,0.17,0.237
							c0,0.033-0.007,0.064-0.021,0.094c-0.041,0.09-0.124,0.144-0.247,0.162h-1.776l-0.224,1.681h1.28
							c0.049,0,0.095,0.01,0.139,0.028c0.101,0.045,0.151,0.122,0.151,0.232c0,0.028-0.005,0.057-0.015,0.083
							c-0.037,0.091-0.122,0.146-0.253,0.166H234.9l-0.204,1.573h1.755c0.047,0,0.091,0.007,0.133,0.022
							c0.107,0.043,0.16,0.121,0.16,0.234c0,0.024-0.004,0.051-0.012,0.077c-0.033,0.097-0.117,0.155-0.253,0.176h-2.052
							c-0.051,0-0.097-0.014-0.14-0.04c-0.081-0.056-0.121-0.142-0.121-0.258c0-0.029,0.183-1.444,0.549-4.248
							c0.004-0.03,0.013-0.06,0.025-0.086C234.784,268.332,234.859,268.283,234.965,268.283z"/>
						<path style="fill:#FFFFFF;" d="M239.101,270.645h1.147c0.043,0,0.085,0.011,0.123,0.031c0.082,0.047,0.123,0.119,0.123,0.216
							c0,0.028-0.003,0.054-0.009,0.074c-0.022,0.097-0.048,0.194-0.077,0.293c-0.161,0.523-0.4,0.957-0.719,1.298
							c-0.316,0.337-0.643,0.506-0.978,0.506c-0.045,0-0.092-0.003-0.139-0.009c-0.313-0.048-0.573-0.236-0.78-0.564
							c-0.229-0.368-0.342-0.829-0.342-1.382c0-0.325,0.045-0.653,0.136-0.984c0.145-0.534,0.373-0.978,0.681-1.329
							c0.323-0.365,0.668-0.549,1.033-0.549c0.154,0,0.299,0.033,0.435,0.099c0.296,0.146,0.519,0.425,0.669,0.838
							c0.019,0.037,0.028,0.075,0.028,0.114c0,0.043-0.011,0.084-0.034,0.123c-0.049,0.082-0.121,0.123-0.213,0.123
							c-0.025,0-0.05-0.004-0.077-0.013c-0.08-0.026-0.133-0.078-0.157-0.154l-0.012-0.022c-0.037-0.101-0.083-0.191-0.139-0.271
							c-0.15-0.219-0.333-0.328-0.549-0.328c-0.125,0-0.252,0.047-0.379,0.139c-0.24,0.173-0.449,0.473-0.626,0.9
							c-0.181,0.439-0.271,0.871-0.271,1.294c0,0.406,0.066,0.746,0.198,1.017c0.145,0.3,0.345,0.45,0.598,0.45
							c0.17-0.002,0.355-0.113,0.555-0.335c0.245-0.274,0.441-0.629,0.589-1.065c-0.528,0-0.803-0.003-0.823-0.009
							c-0.179-0.029-0.27-0.121-0.274-0.277c0.004-0.031,0.012-0.059,0.024-0.084C238.887,270.692,238.974,270.645,239.101,270.645z
							"/>
						<path style="fill:#FFFFFF;" d="M243.004,268.406c0.01,0.022,0.021,0.051,0.031,0.083c0.049,0.169,0.318,1.589,0.809,4.261
							c0.008,0.021,0.012,0.041,0.012,0.062c0,0.043-0.011,0.085-0.034,0.126c-0.049,0.084-0.117,0.126-0.205,0.126
							c-0.012,0-0.025-0.001-0.04-0.003c-0.098-0.017-0.161-0.073-0.189-0.17l-0.274-1.415h-1.412l-0.679,1.42
							c-0.006,0.017-0.014,0.032-0.022,0.048c-0.065,0.08-0.136,0.12-0.213,0.12c-0.048,0-0.093-0.014-0.134-0.04
							c-0.075-0.052-0.113-0.12-0.113-0.207c0-0.024,0.005-0.049,0.016-0.073c0.042-0.1,0.113-0.255,0.21-0.467
							c0.988-2.158,1.579-3.432,1.773-3.82c0.056-0.113,0.135-0.171,0.238-0.173C242.877,268.284,242.952,268.326,243.004,268.406z
							 M242.696,269.359l-0.764,1.607h1.078L242.696,269.359z"/>
						<path style="fill:#FFFFFF;" d="M247.493,272.821c-0.023,0.159-0.104,0.24-0.245,0.242c-0.105-0.002-0.192-0.063-0.262-0.182
							l-1.56-3.564c-0.02,0.168-0.044,0.357-0.071,0.566c-0.205,1.711-0.328,2.687-0.369,2.927
							c-0.029,0.167-0.113,0.251-0.253,0.253c-0.048,0-0.092-0.014-0.133-0.04c-0.08-0.054-0.121-0.14-0.121-0.259
							c0.372-2.823,0.56-4.238,0.562-4.247c0.006-0.035,0.018-0.067,0.034-0.099c0.052-0.084,0.128-0.126,0.229-0.126
							c0.134,0,0.221,0.04,0.26,0.119l1.554,3.488l0.452-3.37c0.002-0.037,0.012-0.073,0.029-0.108
							c0.042-0.09,0.11-0.136,0.206-0.136c0.042,0,0.083,0.012,0.123,0.034c0.078,0.049,0.117,0.119,0.117,0.211
							c-0.008,0.07-0.018,0.145-0.028,0.225C247.714,271.193,247.54,272.547,247.493,272.821z"/>
					</g>
				</g>
			</g>
		</g>
		<g>
			<path style="fill:#FFBE9D;" d="M76.095,424.741c-0.589,1.178-15.314,14.43-15.314,14.43s-2.801,19.398,0.144,20.575l19.155,0.204
				c-0.294-2.65-6.929-16.068-6.929-16.068l11.78-10.307L76.095,424.741z"/>
		</g>
		<g>
			<path style="fill:#FFBE9D;" d="M335.664,459.754c4.263-0.342-5.586-4.177-10.338-5.266c-5.724-1.311-10.357-2.886-10.357-2.886
				l0.424-22.635l-17.626-2.153l-1.059,30.652c0.028,1.264,0.969,2.332,2.223,2.485L335.664,459.754z"/>
		</g>
		<g>
			<g>
				<g>
					<path style="fill:#E8505B;" d="M102.891,399.363l0.085-0.074C102.925,399.331,102.902,399.352,102.891,399.363z"/>
				</g>
				<g>
					<path style="fill:#E8505B;" d="M312.002,338.06l-55.716-20.376l-1.673-12.022l-43.045-1.459l-0.016-0.014
						c-0.035,0-0.082,0.005-0.126,0.009l-0.276-0.009l0.008,0.049c-2.724,0.525-13.931,5.547-21.92,15.589
						c-5.529,6.949-42.109,49.232-45.24,50.127c-3.064,0.875-41.625,29.944-41.107,29.41l-28.182,24.471l7.576,12.056l84.236-42.012
						l0,0c30.733-14.78,67.171-21.848,101.261-22.786c4.163-0.115,8.626-0.035,12.051,2.334c7.337,5.077,10.514,13.18,13.611,28.948
						l3.036,35.119l18.809,1.23l9.089-82.322C324.892,348.188,319.812,340.657,312.002,338.06z"/>
				</g>
			</g>
			<g>
				<g>
					<path style="fill:#263238;" d="M82.525,422.955c0.081,0.119-1.166,1.108-2.785,2.209c-1.619,1.102-2.997,1.898-3.078,1.779
						c-0.081-0.119,1.166-1.108,2.785-2.21C81.066,423.632,82.444,422.836,82.525,422.955z"/>
				</g>
			</g>
			<g>
				<g>
					<path style="fill:#263238;" d="M84.54,427.321c0.068,0.127-1.153,0.919-2.727,1.771c-1.575,0.852-2.907,1.439-2.975,1.313
						c-0.068-0.126,1.152-0.919,2.727-1.771C83.139,427.783,84.471,427.195,84.54,427.321z"/>
				</g>
			</g>
			<g>
				<g>
					<path style="fill:#263238;" d="M86.786,430.172c0.075,0.123-1.173,1.023-2.786,2.012c-1.614,0.989-2.984,1.69-3.059,1.568
						c-0.075-0.122,1.172-1.023,2.787-2.012C85.341,430.752,86.711,430.05,86.786,430.172z"/>
				</g>
			</g>
			<g>
				<g>
					<path style="fill:#263238;" d="M254.721,308.187c0.01,0.034-0.587,0.231-1.678,0.557c-0.544,0.169-1.214,0.361-2.005,0.535
						c-0.789,0.18-1.681,0.418-2.687,0.581c-2,0.397-4.412,0.709-7.102,0.897c-2.692,0.153-5.663,0.162-8.768-0.084
						c-3.104-0.272-6.033-0.773-8.663-1.37c-2.622-0.632-4.95-1.339-6.856-2.062c-0.965-0.328-1.806-0.71-2.554-1.018
						c-0.751-0.303-1.38-0.603-1.888-0.86c-1.022-0.503-1.578-0.795-1.563-0.828c0.016-0.032,0.602,0.199,1.646,0.643
						c0.52,0.228,1.158,0.499,1.915,0.775c0.755,0.281,1.6,0.638,2.567,0.941c1.91,0.674,4.231,1.34,6.839,1.941
						c2.615,0.567,5.522,1.049,8.6,1.319c3.079,0.244,6.024,0.25,8.697,0.124c2.671-0.161,5.07-0.432,7.066-0.781
						c1.004-0.139,1.897-0.35,2.688-0.503c0.793-0.146,1.467-0.308,2.017-0.447C254.094,308.283,254.711,308.153,254.721,308.187z"
						/>
				</g>
			</g>
			<g>
				<g>
					<path style="fill:#263238;" d="M234.462,347.133c-0.017,0.007-0.078-0.104-0.18-0.323c-0.103-0.219-0.249-0.544-0.401-0.977
						c-0.316-0.86-0.698-2.142-0.93-3.774c-0.232-1.628-0.288-3.611,0.029-5.772c0.162-1.079,0.425-2.2,0.802-3.327
						c0.371-1.131,0.866-2.247,1.329-3.397c0.944-2.269,1.645-4.598,1.154-6.656c-0.493-2.036-1.796-3.582-2.461-5.096
						c-0.711-1.509-0.827-2.929-0.604-3.84c0.104-0.458,0.274-0.785,0.399-0.993c0.138-0.202,0.223-0.297,0.237-0.288
						c0.049,0.026-0.289,0.436-0.437,1.319c-0.15,0.874,0.013,2.21,0.737,3.642c0.357,0.718,0.839,1.466,1.332,2.295
						c0.486,0.829,1.007,1.756,1.264,2.852c0.254,1.089,0.249,2.291-0.004,3.463c-0.234,1.18-0.668,2.338-1.134,3.497
						c-0.467,1.158-0.961,2.266-1.329,3.365c-0.374,1.096-0.64,2.186-0.811,3.238c-0.335,2.107-0.319,4.047-0.137,5.652
						C233.694,345.238,234.571,347.099,234.462,347.133z"/>
				</g>
			</g>
			<g>
				<g>
					<path style="fill:#263238;" d="M243.302,345.192c-0.035,0.007-0.159-0.423-0.353-1.208c-0.197-0.785-0.446-1.928-0.722-3.348
						c-0.555-2.838-1.172-6.792-1.565-11.19c-0.389-4.4-0.48-8.401-0.434-11.292c0.022-1.446,0.065-2.615,0.12-3.422
						c0.052-0.807,0.098-1.252,0.134-1.251c0.036,0.001,0.059,0.449,0.069,1.256c0.012,0.913,0.027,2.057,0.045,3.417
						c0.049,2.883,0.197,6.865,0.585,11.247c0.392,4.38,0.948,8.325,1.409,11.172c0.222,1.341,0.409,2.47,0.558,3.371
						C243.28,344.74,243.337,345.184,243.302,345.192z"/>
				</g>
			</g>
			<g>
				<g>
					<path style="fill:#263238;" d="M291.639,377.243c-0.009,0.001-0.035-0.111-0.079-0.331c-0.045-0.247-0.104-0.569-0.178-0.975
						c-0.069-0.43-0.157-0.961-0.35-1.569c-0.18-0.61-0.331-1.33-0.66-2.089c-1.118-3.074-3.593-7.369-8.229-11.062
						c-2.292-1.844-5.06-3.572-8.27-4.877c-3.201-1.32-6.828-2.211-10.711-2.569c-7.786-0.798-16.395,0.528-25.15,2.649
						c-8.773,2.162-17.081,4.461-24.499,6.959c-7.43,2.466-13.941,5.2-19.255,7.802c-5.313,2.609-9.408,5.116-12.157,6.958
						c-1.401,0.884-2.422,1.668-3.145,2.155c-0.341,0.234-0.611,0.42-0.818,0.562c-0.186,0.124-0.284,0.185-0.29,0.177
						c-0.005-0.007,0.082-0.081,0.258-0.22c0.199-0.153,0.46-0.352,0.788-0.604c0.704-0.515,1.708-1.327,3.094-2.238
						c2.72-1.897,6.798-4.46,12.106-7.119c5.309-2.652,11.826-5.43,19.266-7.927c7.429-2.53,15.742-4.845,24.531-7.011
						c8.777-2.126,17.452-3.452,25.319-2.62c3.919,0.374,7.596,1.294,10.83,2.648c3.243,1.339,6.032,3.106,8.336,4.991
						c4.661,3.773,7.118,8.155,8.187,11.279c0.317,0.772,0.455,1.502,0.62,2.121c0.178,0.616,0.25,1.154,0.303,1.589
						c0.053,0.411,0.096,0.737,0.128,0.986C291.639,377.128,291.648,377.242,291.639,377.243z"/>
				</g>
			</g>
			<g>
				<g>
					<path style="fill:#263238;" d="M302.71,432.608c0.144,0.01,0.183,1.138,0.088,2.52c-0.095,1.382-0.288,2.495-0.432,2.485
						c-0.143-0.01-0.183-1.138-0.088-2.52C302.373,433.711,302.567,432.598,302.71,432.608z"/>
				</g>
			</g>
			<g>
				<g>
					<path style="fill:#263238;" d="M307.766,434.28c0.142,0.024,0.107,0.939-0.077,2.045c-0.184,1.106-0.449,1.983-0.591,1.96
						c-0.142-0.024-0.107-0.939,0.077-2.045C307.36,435.134,307.624,434.257,307.766,434.28z"/>
				</g>
			</g>
			<g>
				<g>
					<path style="fill:#263238;" d="M312.413,433.945c0.143,0.011,0.183,0.991,0.089,2.189c-0.094,1.198-0.286,2.16-0.43,2.149
						c-0.143-0.011-0.183-0.991-0.089-2.189C312.078,434.895,312.27,433.933,312.413,433.945z"/>
				</g>
			</g>
		</g>
		<g>
			<g>
				<path style="fill:#FFBE9D;" d="M225.903,151.425c-0.696-0.897-4.073-2.621-8.056-2.104c0,0-1.687-0.012-1.578-1.913
					c0.157-2.762,1.2-12.279,1.145-13.909c-0.049-1.452-0.564-3.063-1.319-1.886c-0.552,0.861-1.778,5.02-2.398,7.196
					c0.719-2.644,2.131-8.332,1.045-8.6c-0.631-0.155-1.482,0.744-2.34,3.154c0.37-1.672,0.627-3.199,0.45-3.646
					c-1.004-2.54-3.838,6.959-3.838,6.959c1.927-6.672,2.229-6.464,1.392-6.907c-0.627-0.332-1.509,0.982-3.06,4.432
					c-1.258,2.799-3.12,5.447-5.268,9.604l-19.372,49.603c-2.764,7.077-2.498,14.979,0.736,21.853l21.281,45.248
					c0.157,1.164,1.337,2.049,2.531,2.105c1.259,0.059,2.452-0.604,3.382-1.454c2.434-2.225,3.393-5.61,4.029-8.846
					c1.339-6.808,2.249-13.566,1.694-20.482l-17.098-30.778l14.939-46.11c0.818-0.397,1.792-0.839,2.965-1.306
					c1.007-0.402,2.082-0.62,3.173-0.665c1.324-0.054,3.088-0.054,4.059,0.24C225.599,153.577,226.597,152.323,225.903,151.425z"/>
			</g>
			<g>
				<g>
					<path style="fill:#EB996E;" d="M205.57,147.077c0.023-0.049,0.5,0.099,1.138,0.608c0.632,0.499,1.405,1.413,1.779,2.679
						l-0.415-0.125c0.214-0.183,0.433-0.371,0.658-0.563c1.109-0.959,2.386-1.613,3.388-1.694c1.004-0.109,1.585,0.2,1.556,0.252
						c-0.019,0.082-0.6-0.08-1.498,0.112c-0.906,0.168-2.025,0.795-3.115,1.732c-0.223,0.188-0.442,0.372-0.655,0.551l-0.308,0.259
						l-0.107-0.384c-0.32-1.152-0.974-2.031-1.511-2.568C205.941,147.392,205.533,147.141,205.57,147.077z"/>
				</g>
			</g>
			<g>
				<g>
					<path style="fill:#EB996E;" d="M215.134,133.258c0.141,0.031-0.178,1.687-0.711,3.7c-0.533,2.013-1.077,3.609-1.214,3.566
						c-0.137-0.043,0.181-1.699,0.711-3.7C214.45,134.824,214.994,133.227,215.134,133.258z"/>
				</g>
			</g>
			<g>
				<g>
					<path style="fill:#EB996E;" d="M210.371,139.099c-0.137-0.028,0.067-1.55,0.649-3.344c0.578-1.796,1.303-3.149,1.431-3.092
						c0.135,0.059-0.367,1.485-0.936,3.252C210.942,137.68,210.515,139.13,210.371,139.099z"/>
				</g>
			</g>
			<g>
				<g>
					<path style="fill:#EB996E;" d="M208.069,138.527c-0.13-0.077,0.611-1.507,1.293-3.357c0.692-1.847,1.065-3.414,1.214-3.387
						c0.135,0.018-0.014,1.668-0.726,3.569C209.148,137.254,208.183,138.601,208.069,138.527z"/>
				</g>
			</g>
		</g>
		<g style="opacity:0.2;">
			<g>
				<path d="M170.773,386.551c20.113-15.841,44.72-26.187,69.851-31.072c7.207-1.401,14.588-2.311,21.889-1.54
					c7.301,0.772,14.566,3.333,20.063,8.2c1.26,1.116,2.518,2.694,2.052,4.311c-0.346,1.203-1.589,1.969-2.828,2.151
					c-1.239,0.182-2.493-0.102-3.719-0.354c-21.64-4.438-43.956,0.852-65.41,6.116C198.534,377.832,184.354,381.315,170.773,386.551
					"/>
			</g>
		</g>
	</g>
</g>
<g id="Plant">
	<g>
		<g>
			<path style="fill:#E8505B;" d="M477.082,413.718c2.382,0.313,4.501,1.825,5.905,3.774c1.404,1.949,2.155,4.303,2.552,6.672
				c0.768,4.584-0.471,9.788-2.172,14.114c-4.673-2.192-7.163-7.638-8.253-10.48C473.391,423.306,473.006,414.142,477.082,413.718"
				/>
		</g>
		<g>
			<path style="fill:#E8505B;" d="M490.256,444.728c-1.482-2.237-1.448-5.299-0.18-7.665c1.267-2.365,3.636-4.038,6.219-4.766
				c1.194-0.337,2.574-0.458,3.589,0.255c0.949,0.666,1.337,1.94,1.186,3.09c-0.151,1.15-0.76,2.192-1.47,3.109
				C497.162,441.896,494.227,444.491,490.256,444.728"/>
		</g>
		<g>
			<g>
				<path style="fill:#263238;" d="M489.076,459.246c-0.036,0.002-0.09-0.341-0.156-0.965c-0.066-0.623-0.144-1.526-0.206-2.646
					c-0.112-2.231-0.204-5.375,0.534-8.76c0.742-3.389,2.385-6.191,3.981-7.802c0.791-0.814,1.527-1.372,2.068-1.698
					c0.539-0.329,0.862-0.465,0.876-0.439c0.06,0.088-1.201,0.732-2.674,2.388c-1.482,1.629-3.019,4.363-3.744,7.665
					c-0.722,3.304-0.693,6.409-0.674,8.634C489.117,457.856,489.153,459.242,489.076,459.246z"/>
			</g>
		</g>
		<g>
			<g>
				<path style="fill:#263238;" d="M478.169,420.67c0.034-0.011,0.242,0.523,0.589,1.499c0.348,0.975,0.828,2.395,1.403,4.155
					c1.15,3.52,2.659,8.41,4.191,13.848c1.532,5.441,2.797,10.4,3.653,14.002c0.429,1.801,0.76,3.263,0.972,4.276
					c0.213,1.013,0.315,1.578,0.28,1.586c-0.035,0.009-0.203-0.54-0.477-1.538c-0.291-1.088-0.672-2.514-1.132-4.234
					c-0.947-3.577-2.267-8.515-3.798-13.951c-1.531-5.433-2.982-10.334-4.042-13.88c-0.505-1.707-0.925-3.123-1.244-4.203
					C478.278,421.237,478.135,420.681,478.169,420.67z"/>
			</g>
		</g>
		<g>
			<path style="fill:#E8505B;" d="M484.032,449.086c-2.279-5.178-7.207-9.104-12.764-10.168c-1.415-0.271-3.16-0.232-3.946,0.975
				c-0.788,1.209-0.114,2.828,0.735,3.995c3.531,4.856,10.195,7.186,15.983,5.589"/>
		</g>
		<g>
			<g>
				<path style="fill:#263238;" d="M472.821,442.99c0.006-0.035,0.336,0,0.931,0.095c0.299,0.042,0.662,0.108,1.073,0.228
					c0.412,0.115,0.892,0.218,1.394,0.418c1.026,0.34,2.2,0.883,3.437,1.602c1.221,0.745,2.495,1.682,3.69,2.824
					c1.181,1.158,2.159,2.402,2.943,3.598c0.759,1.213,1.339,2.369,1.712,3.383c0.216,0.495,0.335,0.972,0.463,1.38
					c0.133,0.407,0.211,0.768,0.263,1.065c0.114,0.592,0.16,0.92,0.125,0.927c-0.099,0.023-0.355-1.284-1.191-3.233
					c-0.409-0.977-1.011-2.09-1.773-3.26c-0.788-1.154-1.752-2.356-2.904-3.487c-1.166-1.114-2.399-2.039-3.578-2.789
					c-1.194-0.724-2.325-1.29-3.315-1.667C474.117,443.302,472.801,443.09,472.821,442.99z"/>
			</g>
		</g>
	</g>
</g>
</svg>
