<?xml version="1.0" encoding="utf-8"?>
<!-- Generator: Adobe Illustrator 27.5.0, SVG Export Plug-In . SVG Version: 6.00 Build 0)  -->
<svg version="1.1" xmlns="http://www.w3.org/2000/svg" xmlns:xlink="http://www.w3.org/1999/xlink" x="0px" y="0px"
	 viewBox="0 0 500 500" style="enable-background:new 0 0 500 500;" xml:space="preserve">
<g id="Background_Complete">
	<g>
		<g>
			<g>
				<g>
					<g>
						<g>
							
								<rect x="138.444" y="41.605" transform="matrix(1 -0.0054 0.0054 1 -0.3363 0.7651)" style="fill:#E0E0E0;" width="8.688" height="43.231"/>
						</g>
					</g>
				</g>
			</g>
		</g>
		<g>
			<g>
				<g>
					<g>
						<g>
							<g>
								
									<rect x="63.126" y="41.755" transform="matrix(1 -0.0053 0.0053 1 -0.286 0.3984)" style="fill:#EBEBEB;" width="22.499" height="23.866"/>
							</g>
						</g>
					</g>
				</g>
			</g>
			<g>
				<g>
					<g>
						<g>
							<g>
								
									<rect x="85.517" y="41.635" transform="matrix(1 -0.0054 0.0054 1 -0.2855 0.519)" style="fill:#F5F5F5;" width="22.499" height="23.866"/>
							</g>
						</g>
					</g>
				</g>
			</g>
			<g>
				<g>
					<g>
						<g>
							<g>
								<g>
									<path style="fill:#E0E0E0;" d="M63.097,48.406c14.952,0.124,29.94,0.036,44.89-0.207c0.308-0.005,0.306-0.476-0.003-0.478
										c-14.952-0.083-29.941-0.009-44.89,0.274C62.831,48.001,62.833,48.404,63.097,48.406L63.097,48.406z"/>
								</g>
							</g>
						</g>
					</g>
				</g>
			</g>
		</g>
		<g>
			<g>
				<g>
					<g>
						<g>
							<g>
								
									<rect x="49.086" y="65.272" transform="matrix(1 -0.0054 0.0054 1 -0.4008 0.3736)" style="fill:#EBEBEB;" width="40.876" height="19.449"/>
							</g>
						</g>
					</g>
				</g>
			</g>
			<g>
				<g>
					<g>
						<g>
							<g>
								
									<rect x="89.769" y="65.054" transform="matrix(1 -0.0054 0.0054 1 -0.3991 0.5915)" style="fill:#F5F5F5;" width="40.876" height="19.449"/>
							</g>
						</g>
					</g>
				</g>
			</g>
			<g>
				<g>
					<g>
						<g>
							<g>
								<g>
									<path style="fill:#E0E0E0;" d="M49.063,70.791c27.155,0.307,54.405,0.032,81.559-0.403
										c0.308-0.005,0.306-0.477-0.002-0.478c-27.157-0.144-54.408-0.127-81.558,0.471C48.798,70.387,48.799,70.788,49.063,70.791
										L49.063,70.791z"/>
								</g>
							</g>
						</g>
					</g>
				</g>
			</g>
		</g>
		<g>
			<g>
				<g>
					<g>
						<g>
							<rect x="33.777" y="84.831" style="fill:#E0E0E0;" width="158.367" height="6.968"/>
						</g>
					</g>
				</g>
			</g>
			<g>
				<g>
					<g>
						<g>
							<rect x="59.705" y="88.181" style="fill:#E0E0E0;" width="6.429" height="23.776"/>
						</g>
					</g>
				</g>
			</g>
			<g>
				<g>
					<g>
						<g>
							<rect x="155.675" y="88.181" style="fill:#E0E0E0;" width="6.429" height="23.776"/>
						</g>
					</g>
				</g>
			</g>
		</g>
		<g>
			<g>
				<g>
					<g>
						<g>
							
								<rect x="146.965" y="25.484" transform="matrix(1 -0.0054 0.0054 1 -0.294 0.8124)" style="fill:#EBEBEB;" width="8.688" height="59.458"/>
						</g>
					</g>
				</g>
			</g>
		</g>
		<g>
			<g>
				<g>
					<g>
						<g>
							<g>
								
									<rect x="155.698" y="36.565" transform="matrix(1 -0.0054 0.0054 1 -0.3234 0.8733)" style="fill:#F5F5F5;" width="13.5" height="48.184"/>
							</g>
						</g>
					</g>
				</g>
			</g>
			<g>
				<g>
					<g>
						<g>
							<g>
								<path style="fill:#E0E0E0;" d="M168.978,45.812c0,0.129-3.022,0.234-6.75,0.234c-3.729,0-6.75-0.105-6.75-0.234
									c0-0.129,3.022-0.234,6.75-0.234C165.956,45.578,168.978,45.683,168.978,45.812z"/>
							</g>
						</g>
					</g>
				</g>
			</g>
			<g>
				<g>
					<g>
						<g>
							<g>
								<path style="fill:#E0E0E0;" d="M168.978,43.788c0,0.129-3.022,0.234-6.75,0.234c-3.729,0-6.75-0.105-6.75-0.234
									c0-0.129,3.022-0.234,6.75-0.234C165.956,43.554,168.978,43.659,168.978,43.788z"/>
							</g>
						</g>
					</g>
				</g>
			</g>
			<g>
				<g>
					<g>
						<g>
							<g>
								<path style="fill:#E0E0E0;" d="M168.978,77.463c0,0.129-3.022,0.234-6.75,0.234c-3.729,0-6.75-0.105-6.75-0.234
									c0-0.129,3.022-0.234,6.75-0.234C165.956,77.229,168.978,77.334,168.978,77.463z"/>
							</g>
						</g>
					</g>
				</g>
			</g>
			<g>
				<g>
					<g>
						<g>
							<g>
								<path style="fill:#E0E0E0;" d="M168.978,75.439c0,0.129-3.022,0.234-6.75,0.234c-3.729,0-6.75-0.105-6.75-0.234
									c0-0.129,3.022-0.234,6.75-0.234C165.956,75.205,168.978,75.31,168.978,75.439z"/>
							</g>
						</g>
					</g>
				</g>
			</g>
			<g>
				<g>
					<g>
						<g>
							<g>
								<path style="fill:#E0E0E0;" d="M162.446,71.022c-0.129,0-0.234-4.861-0.234-10.857c0-5.997,0.105-10.857,0.234-10.857
									c0.129,0,0.234,4.86,0.234,10.857C162.679,66.161,162.575,71.022,162.446,71.022z"/>
							</g>
						</g>
					</g>
				</g>
			</g>
		</g>
		<g>
			<g>
				<g>
					<g>
						<g>
							<rect x="169.124" y="48.361" style="fill:#EBEBEB;" width="14.694" height="36.369"/>
						</g>
					</g>
				</g>
			</g>
		</g>
		<g>
			<g>
				<g>
					<g>
						<path style="fill:#E0E0E0;" d="M153.519,35.612c0,1.379-1.118,2.497-2.497,2.497c-1.379,0-2.497-1.118-2.497-2.497
							c0-1.379,1.118-2.497,2.497-2.497C152.401,33.115,153.519,34.233,153.519,35.612z"/>
					</g>
				</g>
			</g>
		</g>
		<g>
			<g>
				<g>
					<g>
						<rect x="150.25" y="42.48" style="fill:#E0E0E0;" width="1.543" height="35.37"/>
					</g>
				</g>
			</g>
		</g>
	</g>
	<g>
		<g>
			<g>
				<g>
					<g>
						<g>
							<g>
								<g>
									<g>
										<rect x="233.816" y="70.016" style="fill:#E0E0E0;" width="71.718" height="74.76"/>
									</g>
								</g>
							</g>
						</g>
					</g>
				</g>
			</g>
		</g>
		<g>
			<g>
				<g>
					<g>
						<g>
							<g>
								<g>
									<g>
										<rect x="228.959" y="70.016" style="fill:#FAFAFA;" width="71.718" height="74.76"/>
									</g>
								</g>
							</g>
						</g>
					</g>
				</g>
			</g>
			<g>
				<g>
					<g>
						<g>
							<g>
								<g>
									<g>
										<path style="fill:#E0E0E0;" d="M300.699,144.799h-71.763V69.994h71.763V144.799z M228.981,144.754h71.673V70.038h-71.673
											V144.754z"/>
									</g>
								</g>
							</g>
						</g>
					</g>
				</g>
			</g>
		</g>
		<g>
			<g>
				<g>
					<g>
						<g>
							<g>
								<g>
									<g>
										<rect x="238.6" y="80.066" style="fill:#FFFFFF;" width="52.436" height="54.66"/>
									</g>
								</g>
							</g>
						</g>
					</g>
				</g>
			</g>
		</g>
		<g>
			<g>
				<g>
					<g>
						<g>
							<g>
								<g>
									<g>
										<g>
											<path style="fill:#E0E0E0;" d="M238.6,135.09c0.041,0.049-0.457,0.621-1.294,1.504c-0.837,0.884-2.014,2.08-3.333,3.379
												c-1.32,1.3-2.532,2.457-3.426,3.279c-0.894,0.822-1.47,1.308-1.516,1.262c-0.045-0.046,0.45-0.615,1.287-1.498
												c0.837-0.884,2.017-2.083,3.341-3.386c1.323-1.303,2.538-2.463,3.432-3.285
												C237.985,135.524,238.559,135.041,238.6,135.09z"/>
										</g>
									</g>
								</g>
							</g>
						</g>
					</g>
				</g>
			</g>
		</g>
		<g>
			<g>
				<g>
					<g>
						<g>
							<g>
								<g>
									<g>
										<g>
											<path style="fill:#E0E0E0;" d="M291.036,134.956c0.049-0.041,0.621,0.457,1.505,1.294
												c0.884,0.838,2.08,2.014,3.379,3.333c1.3,1.319,2.457,2.532,3.279,3.426c0.822,0.894,1.308,1.47,1.262,1.515
												c-0.046,0.045-0.615-0.45-1.498-1.287c-0.884-0.838-2.083-2.018-3.386-3.341c-1.303-1.323-2.463-2.538-3.285-3.432
												C291.471,135.57,290.987,134.997,291.036,134.956z"/>
										</g>
									</g>
								</g>
							</g>
						</g>
					</g>
				</g>
			</g>
		</g>
		<g>
			<g>
				<g>
					<g>
						<g>
							<g>
								<g>
									<g>
										<g>
											<path style="fill:#E0E0E0;" d="M290.893,80.212c-0.041-0.049,0.457-0.621,1.294-1.504
												c0.837-0.884,2.014-2.08,3.333-3.379c1.319-1.3,2.532-2.457,3.425-3.279c0.894-0.822,1.47-1.308,1.516-1.262
												c0.045,0.046-0.45,0.614-1.287,1.498c-0.837,0.884-2.017,2.082-3.341,3.386c-1.323,1.303-2.538,2.463-3.432,3.285
												C291.507,79.778,290.934,80.261,290.893,80.212z"/>
										</g>
									</g>
								</g>
							</g>
						</g>
					</g>
				</g>
			</g>
		</g>
		<g>
			<g>
				<g>
					<g>
						<g>
							<g>
								<g>
									<g>
										<g>
											<path style="fill:#E0E0E0;" d="M238.456,80.346c-0.049,0.041-0.621-0.456-1.504-1.294
												c-0.884-0.837-2.08-2.014-3.379-3.333c-1.3-1.32-2.457-2.532-3.279-3.426c-0.822-0.894-1.308-1.47-1.262-1.515
												c0.045-0.046,0.614,0.449,1.498,1.287c0.884,0.837,2.083,2.017,3.386,3.341c1.303,1.323,2.463,2.538,3.285,3.432
												C238.022,79.732,238.505,80.305,238.456,80.346z"/>
										</g>
									</g>
								</g>
							</g>
						</g>
					</g>
				</g>
			</g>
		</g>
		<g>
			<g>
				<g>
					<g>
						<g>
							<g>
								<g>
									<g>
										<g>
											<path style="fill:#E0E0E0;" d="M290.893,134.727c-0.004-0.004-0.007-0.093-0.011-0.266
												c-0.003-0.186-0.007-0.438-0.012-0.763c-0.006-0.685-0.013-1.671-0.024-2.951c-0.012-2.589-0.03-6.357-0.053-11.14
												c-0.025-9.573-0.06-23.211-0.103-39.541l0.202,0.202c-15.265,0.009-33.192,0.019-52.288,0.03H238.6l0.232-0.232
												c-0.012,20.063-0.023,38.831-0.033,54.66l-0.2-0.199c15.67,0.042,28.716,0.077,37.863,0.102
												c4.57,0.022,8.165,0.04,10.635,0.052c1.22,0.01,2.16,0.018,2.814,0.023c0.309,0.005,0.549,0.009,0.727,0.011
												C290.804,134.719,290.889,134.723,290.893,134.727c0.004,0.004-0.074,0.008-0.231,0.012
												c-0.173,0.003-0.405,0.006-0.706,0.011c-0.645,0.005-1.572,0.013-2.776,0.023c-2.46,0.012-6.039,0.03-10.59,0.052
												c-9.178,0.024-22.268,0.06-37.99,0.102l-0.199,0.001l0-0.2c-0.009-15.829-0.021-34.598-0.033-54.66l0-0.232h0.232h0.005
												c19.096,0.011,37.023,0.021,52.288,0.03h0.203l0,0.202c-0.043,16.383-0.078,30.066-0.103,39.671
												c-0.023,4.764-0.041,8.516-0.053,11.094c-0.01,1.263-0.018,2.235-0.024,2.912c-0.005,0.316-0.009,0.56-0.011,0.741
												C290.9,134.649,290.897,134.73,290.893,134.727z"/>
										</g>
									</g>
								</g>
							</g>
						</g>
					</g>
				</g>
			</g>
		</g>
		<g>
			<g>
				<g>
					<g>
						<g>
							<g>
								<g>
									<g>
										<rect x="256.069" y="98.648" style="fill:#EBEBEB;" width="17.497" height="17.497"/>
									</g>
								</g>
							</g>
						</g>
					</g>
				</g>
			</g>
		</g>
	</g>
	<g>
		<g>
			<g>
				<path style="fill:#E0E0E0;" d="M350.22,348.646c-5.389-3.384-11.564-5.509-17.895-6.159c-2.924-0.3-6.119-0.215-8.464,1.556
					c-0.498,0.376-0.983,0.932-0.872,1.546c0.082,0.451,0.463,0.779,0.828,1.057C331.098,352.201,342.111,352.902,350.22,348.646"/>
			</g>
			<g>
				<path style="fill:#E0E0E0;" d="M349.761,348.14c-4.051-3.161-8.126-6.345-11.558-10.169c-3.432-3.825-6.221-8.366-7.246-13.401
					c-0.311-1.527-0.407-3.272,0.573-4.484C340.742,327.281,347.98,336.587,349.761,348.14"/>
			</g>
			<g>
				<path style="fill:#E0E0E0;" d="M350.125,348.577c-0.694-5.04-0.943-10.22,0.214-15.175c1.158-4.954,3.852-9.696,8.083-12.522
					c1.592,3.721,0.908,8.008-0.214,11.897c-1.733,6.01-4.452,11.734-8.015,16.874"/>
			</g>
			<g>
				<path style="fill:#E0E0E0;" d="M359.156,364.76c-5.482,0.666-10.257,3.556-14.351,7.263c-4.094,3.707-7.003,8.702-8.209,14.091
					c5.378-0.332,9.94-4.125,13.249-8.377c3.309-4.252,5.601-8.918,9.236-12.895"/>
			</g>
			<g>
				<path style="fill:#E0E0E0;" d="M361.118,367.348c-4.416-10.877-2.816-23.984,4.087-33.48
					C368.328,344.978,367.181,357.528,361.118,367.348"/>
			</g>
			<g>
				<path style="fill:#E0E0E0;" d="M373.051,381.557c-4.975-0.309-10.034,0.876-14.354,3.363c-4.32,2.487-7.886,6.266-10.117,10.724
					c-0.303,0.606-0.571,1.376-0.165,1.919c0.353,0.471,1.035,0.515,1.623,0.477c4.823-0.313,9.098-3.214,12.625-6.519
					c3.527-3.304,6.6-7.121,10.497-9.979"/>
			</g>
			<g>
				<path style="fill:#E0E0E0;" d="M372.67,380.783c-2.567-8.212-2.726-17.161-0.455-25.46c0.897-3.277,2.403-6.727,5.433-8.264
					c0.259-0.131,0.56-0.248,0.831-0.146c0.257,0.097,0.407,0.361,0.525,0.609c1.078,2.252,1.392,4.81,1.281,7.304
					c-0.111,2.495-0.629,4.951-1.145,7.394c-0.954,4.519-1.462,9.376-3.941,13.273c-0.588,0.925-1.107,1.924-1.576,2.915
					c-0.469,0.991-0.473,1.339-0.903,2.127"/>
			</g>
			<g>
				<path style="fill:#E0E0E0;" d="M404.257,385.489c-2.34-8.902,0.144-19.694,5.753-26.991c0.413-0.537,0.961-1.113,1.635-1.051
					c1.033,0.096,1.301,1.472,1.255,2.509C412.495,369.053,409.46,378.017,404.257,385.489"/>
			</g>
			<g>
				<path style="fill:#E0E0E0;" d="M407.105,387.436c10.815,2.814,23.222,0.079,32.217-6.553
					c-5.331-2.702-11.615-3.473-17.441-2.141C416.056,380.075,410.732,382.686,407.105,387.436"/>
			</g>
			<g>
				<path style="fill:#E0E0E0;" d="M409.507,381.509c6.057-9.875,17.67-16.321,29.24-16.907c-1.333,4.706-5.2,8.363-9.564,10.573
					c-4.363,2.21-9.234,3.172-14.036,4.105C413.279,379.643,410.717,380.041,409.507,381.509"/>
			</g>
			<g>
				<path style="fill:#E0E0E0;" d="M404.859,352.748c1.64-5.619,3.289-11.288,3.74-17.124c0.45-5.836-0.382-11.929-3.411-16.939
					c-5.658,10.948-6.23,23.74-0.499,34.65"/>
			</g>
			<g>
				<path style="fill:#E0E0E0;" d="M423.908,343.12c6.617-12.025,20.116-21.631,33.775-22.977
					C452.413,333.263,438.043,343.402,423.908,343.12"/>
			</g>
			<g>
				<path style="fill:#E0E0E0;" d="M419.745,345.477c9.868,1.503,18.275,7.805,27.496,11.626c1.972,0.817,4.1,1.468,6.216,1.19
					c2.117-0.277,4.205-1.697,4.679-3.779c0.394-1.728-0.393-3.563-1.633-4.829c-1.24-1.266-2.879-2.058-4.515-2.739
					c-10.044-4.182-20.815-4.286-31.395-1.75"/>
			</g>
			<g>
				<path style="fill:#E0E0E0;" d="M414.035,352.398c2.234,0.64,2.997,1.796,4.766,3.303c6.002,5.112,13.2,8.809,20.851,10.711
					c0.796,0.198,1.841,0.277,2.236-0.443c0.345-0.629-0.092-1.39-0.539-1.95c-3.206-4.011-7.778-6.754-12.59-8.546
					c-4.812-1.792-8.981-3.952-14.724-3.488"/>
			</g>
			<g>
				<path style="fill:#E0E0E0;" d="M407.591,310.597c8.024,7.49,19.326,11.335,30.253,10.293c0.497-0.047,1.039-0.126,1.377-0.494
					c0.761-0.828-0.152-2.107-1.039-2.799C429.287,310.663,418.514,307.788,407.591,310.597"/>
			</g>
			<g>
				<path style="fill:#E0E0E0;" d="M415.231,307.801c10.607-7.952,25.151-10.352,37.75-6.229c-4.754,4.686-11.35,7.206-17.989,7.897
					C428.353,310.161,421.706,309.425,415.231,307.801"/>
			</g>
			<g>
				<path style="fill:#E0E0E0;" d="M412.195,288.593c-0.874-8.878-0.307-15.886-0.923-24.805c-0.049-0.712-0.202-1.57-0.869-1.827
					c-0.928-0.358-1.702,0.783-2.007,1.73c-2.643,8.222-1.199,17.652,3.785,24.706"/>
			</g>
			<g>
				<path style="fill:#E0E0E0;" d="M411.556,289.574c6.017-3.721,10.532-8.581,14.706-14.293c2.904-3.974,5.353-8.736,4.693-13.614
					c-4.079-0.082-7.955,2.168-10.608,5.268c-2.653,3.099-4.23,6.974-5.408,10.88C413.762,281.721,412.938,285.736,411.556,289.574"
					/>
			</g>
			<g>
				<path style="fill:#E0E0E0;" d="M426.004,285.56c13.206-4.883,25.526-12.148,36.191-21.34c-4.323-1.741-9.273-0.699-13.595,1.045
					c-9.875,3.986-17.943,10.714-22.785,20.198"/>
			</g>
			<g>
				<path style="fill:#E0E0E0;" d="M415.618,294.431c6.681,0.73,13.467,1.206,20.096,0.098c6.515-1.089,12.672-3.671,18.761-6.234
					c0.504-0.212,1.054-0.467,1.275-0.968c0.24-0.544-0.016-1.206-0.457-1.605c-0.441-0.399-1.027-0.59-1.6-0.75
					c-6.619-1.851-13.762-0.985-20.274,1.211C426.906,288.38,421.567,290.989,415.618,294.431"/>
			</g>
			<g>
				<path style="fill:#E0E0E0;" d="M377.47,310.901c-4.558-9.201-4.262-19.938-0.324-29.421c2.772,4.223,3.11,9.602,2.603,14.628
					c-0.507,5.026-2.037,10.199-2.136,15.25"/>
			</g>
			<g>
				<path style="fill:#E0E0E0;" d="M359.261,301.717c-11.38-0.217-22.764,4.632-30.492,12.989c5.68,0.892,11.53-0.573,16.697-3.095
					c5.167-2.523,9.758-6.062,14.308-9.577"/>
			</g>
			<g>
				<path style="fill:#E0E0E0;" d="M347.018,297.623c-5.567-0.451-10.924-1.141-16.277,0.5c-5.353,1.64-10.225,5.364-12.407,10.52
					c5.207,0.587,10.487-0.719,15.26-2.882C338.368,303.597,342.708,300.602,347.018,297.623"/>
			</g>
			<g>
				<path style="fill:#E0E0E0;" d="M365.145,297.81c-5.008-3.282-10.151-6.623-15.983-7.983c-5.832-1.359-12.59-0.355-16.656,4.04
					c4.72,2.77,10.448,3.098,15.921,3.093c5.474-0.004,12.183-0.066,17.343,1.76"/>
			</g>
			<g>
				<path style="fill:#E0E0E0;" d="M365.174,298.074c-8.563-8.408-11.808-23.512-8.363-35.007
					C363.541,273.294,366.555,285.91,365.174,298.074"/>
			</g>
			<g>
				<path style="fill:#E0E0E0;" d="M388.719,274.252c1.615-3.754,2.751-7.694,4.199-11.516c1.449-3.821,3.25-7.582,5.987-10.616
					c2.737-3.034,6.523-5.293,10.605-5.496c-2.555,11.569-10.239,21.906-20.581,27.688"/>
			</g>
			<g>
				<path style="fill:#E0E0E0;" d="M384.458,279.216c-2.672-3.678-5.76-8.671-9.384-11.417c-3.624-2.746-8.343-4.407-12.765-3.353
					C366.807,272.487,375.306,278.155,384.458,279.216"/>
			</g>
			<g>
				<path style="fill:#E0E0E0;" d="M385.31,274.558c-1.751-4.451-3.516-8.949-4.224-13.679c-0.708-4.73-0.277-9.783,2.141-13.909
					c4.7,8.885,6.214,18.422,2.322,27.689"/>
			</g>
			<g>
				<path style="fill:#E0E0E0;" d="M388.762,246.969c2.662-8.808,10.727-15.292,19.434-18.268c1.098-0.375,2.261-0.688,3.407-0.511
					c1.147,0.177,2.271,0.961,2.511,2.096c0.318,1.498-0.92,2.841-2.084,3.836C405.25,239.92,397.28,244.32,388.762,246.969"/>
			</g>
			<g>
				<path style="fill:#E0E0E0;" d="M388.858,239.766c0.339-5.679,0.693-11.44,2.54-16.82c1.847-5.381,5.407-10.428,10.586-12.783
					c0.881,5.736-1.65,11.442-4.701,16.377c-3.052,4.936-6.73,9.594-8.563,15.099"/>
			</g>
			<g>
				<path style="fill:#E0E0E0;" d="M388.719,243.675c-2.2-6.419-2.428-14.572-6.271-20.164c-2.687-3.909-6.99-6.572-9.305-10.712
					c-1.538,3.867-1.067,8.322,0.541,12.16c1.608,3.838,4.266,7.142,7.111,10.18S386.074,240.462,388.719,243.675"/>
			</g>
			<g>
				<g>
					<path style="fill:#E0E0E0;" d="M388.762,432.705c-0.171,0-0.319-42.82-0.331-95.629c-0.012-52.827,0.117-95.638,0.288-95.638
						c0.171,0,0.319,42.811,0.331,95.638C389.062,389.885,388.933,432.705,388.762,432.705z"/>
				</g>
			</g>
			<g>
				<g>
					<path style="fill:#E0E0E0;" d="M426.181,304.439c0.012,0.041-0.562,0.254-1.61,0.604c-1.157,0.39-2.645,0.892-4.431,1.495
						c-3.736,1.273-8.868,3.116-14.438,5.398c-5.515,2.366-10.716,4.287-13.678,6.853c-1.48,1.267-2.329,2.637-2.749,3.636
						c-0.425,1.005-0.501,1.621-0.557,1.609c-0.021-0.003-0.014-0.157,0.018-0.449c0.049-0.289,0.123-0.72,0.314-1.248
						c0.361-1.056,1.187-2.522,2.682-3.876c1.489-1.357,3.561-2.577,5.935-3.687c2.374-1.108,5.005-2.264,7.799-3.412
						c5.587-2.29,10.759-4.073,14.537-5.242c1.888-0.589,3.429-1.023,4.497-1.309C425.572,304.534,426.169,304.398,426.181,304.439z
						"/>
				</g>
			</g>
			<g>
				<g>
					<path style="fill:#E0E0E0;" d="M438.447,274.312c0.014,0.016-0.142,0.181-0.451,0.482c-0.365,0.342-0.819,0.769-1.374,1.291
						c-1.276,1.159-3.013,2.737-5.13,4.66c-4.429,3.944-10.436,9.292-17.073,15.202c-6.664,5.932-12.424,11.6-16.415,15.868
						c-1.999,2.131-3.573,3.897-4.646,5.13c-0.501,0.572-0.911,1.041-1.241,1.417c-0.288,0.321-0.447,0.483-0.463,0.47
						c-0.017-0.013,0.11-0.202,0.367-0.548c0.259-0.344,0.637-0.857,1.153-1.493c1.019-1.283,2.546-3.097,4.509-5.271
						c3.919-4.355,9.647-10.09,16.325-16.034c6.688-5.919,12.773-11.235,17.196-15.068c2.171-1.862,3.951-3.39,5.26-4.513
						c0.586-0.486,1.066-0.884,1.451-1.203C438.249,274.43,438.432,274.296,438.447,274.312z"/>
				</g>
			</g>
			<g>
				<g>
					<path style="fill:#E0E0E0;" d="M407.224,301.978c-0.175-0.078,1.217-3.293,2.605-7.358c1.4-4.065,2.059-7.496,2.236-7.467
						c0.162,0.017-0.233,3.548-1.65,7.665c-0.698,2.055-1.467,3.863-2.073,5.146C407.736,301.247,407.3,302.012,407.224,301.978z"/>
				</g>
			</g>
			<g>
				<g>
					<path style="fill:#E0E0E0;" d="M388.801,327.895c-0.034,0.025-0.399-0.401-1.027-1.192c-0.697-0.893-1.579-2.025-2.631-3.374
						c-2.21-2.857-5.265-6.8-8.689-11.115c-3.427-4.316-6.574-8.186-8.854-10.987c-1.075-1.331-1.976-2.446-2.688-3.328
						c-0.628-0.792-0.96-1.243-0.928-1.271c0.032-0.028,0.426,0.37,1.111,1.114c0.686,0.743,1.657,1.837,2.84,3.203
						c2.368,2.731,5.573,6.563,9.004,10.884c3.428,4.321,6.432,8.311,8.555,11.237c1.061,1.463,1.906,2.657,2.475,3.493
						C388.537,327.396,388.835,327.87,388.801,327.895z"/>
				</g>
			</g>
			<g>
				<g>
					<path style="fill:#E0E0E0;" d="M380.596,317.362c-0.101,0.108-2.29-2.489-3.437-6.435c-0.846-2.781-0.884-5.325-0.779-6.488
						l0.273,0.022c-0.122,0.496-0.212,0.757-0.261,0.749c-0.049-0.008-0.051-0.284-0.011-0.793l0.273,0.022
						c0.1,1.154,0.275,3.609,1.098,6.311C378.86,314.575,380.762,317.257,380.596,317.362z"/>
				</g>
			</g>
			<g>
				<g>
					<path style="fill:#E0E0E0;" d="M370.004,304.038c-0.08,0.086-0.784-0.802-2.4-1.394c-1.603-0.62-4.016-0.757-6.663-0.53
						c-2.65,0.195-5.016,0.667-6.71,1.083c-1.694,0.42-2.729,0.749-2.761,0.663c-0.028-0.073,0.957-0.55,2.643-1.084
						c1.684-0.53,4.083-1.08,6.781-1.278c2.677-0.231,5.216-0.025,6.874,0.741C369.448,302.982,370.059,304.023,370.004,304.038z"/>
				</g>
			</g>
			<g>
				<g>
					<path style="fill:#E0E0E0;" d="M367.493,300.809c-0.047,0.096-1.398-0.56-3.677-1.339c-2.275-0.782-5.515-1.603-9.173-1.888
						c-3.661-0.273-6.988,0.047-9.355,0.476c-2.371,0.424-3.805,0.868-3.837,0.766c-0.013-0.041,0.333-0.186,0.975-0.416
						c0.638-0.238,1.588-0.51,2.777-0.78c2.374-0.545,5.761-0.942,9.488-0.664c3.725,0.29,7.011,1.196,9.276,2.094
						c1.134,0.447,2.031,0.859,2.626,1.191C367.192,300.574,367.512,300.771,367.493,300.809z"/>
				</g>
			</g>
			<g>
				<g>
					<path style="fill:#E0E0E0;" d="M388.719,287.153c-0.166,0.042-1.366-4.128-2.681-9.314c-1.316-5.187-2.247-9.425-2.082-9.467
						c0.166-0.042,1.366,4.128,2.681,9.315C387.952,282.873,388.884,287.111,388.719,287.153z"/>
				</g>
			</g>
			<g>
				<g>
					<path style="fill:#E0E0E0;" d="M388.889,287.153c-0.184,0.06-0.956-2.727-2.972-5.576c-1.962-2.91-4.466-4.37-4.374-4.514
						c0.033-0.065,0.724,0.189,1.688,0.871c0.967,0.673,2.162,1.813,3.192,3.288C388.516,284.187,389.039,287.143,388.889,287.153z"
						/>
				</g>
			</g>
			<g>
				<g>
					<path style="fill:#E0E0E0;" d="M388.762,409.879c-0.067,0.01-0.193-1.03-0.675-2.848c-0.477-1.818-1.375-4.397-2.861-7.414
						c-2.958-6.046-8.342-13.711-15.182-21.389c-3.389-3.872-6.678-7.526-9.469-11.023c-2.796-3.493-5.093-6.822-6.771-9.766
						c-1.683-2.942-2.779-5.466-3.418-7.247c-0.314-0.893-0.545-1.59-0.671-2.073c-0.135-0.479-0.197-0.733-0.176-0.74
						c0.055-0.017,0.367,0.98,1.072,2.725c0.705,1.745,1.853,4.221,3.571,7.113c1.714,2.894,4.031,6.173,6.837,9.629
						c2.802,3.462,6.096,7.095,9.491,10.974c6.859,7.698,12.229,15.46,15.11,21.606c1.448,3.067,2.293,5.695,2.701,7.546
						c0.198,0.928,0.332,1.65,0.379,2.148C388.761,409.616,388.783,409.876,388.762,409.879z"/>
				</g>
			</g>
			<g>
				<g>
					<path style="fill:#E0E0E0;" d="M422.575,371.686c0.02,0.046-0.627,0.373-1.772,0.995c-1.137,0.639-2.749,1.622-4.597,3.038
						c-1.848,1.415-3.914,3.272-6.036,5.506c-2.119,2.238-4.301,4.838-6.529,7.623c-4.454,5.588-8.619,10.533-11.113,14.48
						c-1.266,1.958-2.187,3.608-2.79,4.766c-0.608,1.155-0.931,1.804-0.976,1.784c-0.02-0.009,0.038-0.181,0.164-0.503
						c0.132-0.319,0.311-0.797,0.595-1.388c0.539-1.196,1.408-2.891,2.636-4.893c2.422-4.042,6.555-9.055,11.001-14.634
						c2.232-2.791,4.441-5.395,6.6-7.63c2.163-2.231,4.284-4.076,6.186-5.462c1.902-1.387,3.568-2.324,4.747-2.901
						c0.587-0.295,1.066-0.476,1.383-0.612C422.395,371.725,422.567,371.667,422.575,371.686z"/>
				</g>
			</g>
			<g>
				<g>
					<path style="fill:#E0E0E0;" d="M423.237,384.077c0.008,0.09-1.43,0.264-3.746,0.544c-2.307,0.298-5.519,0.684-8.883,1.75
						c-3.352,1.092-6.139,2.755-7.954,4.174c-1.834,1.417-2.698,2.589-2.783,2.521c-0.03-0.022,0.15-0.341,0.555-0.862
						c0.401-0.525,1.057-1.226,1.952-1.997c1.786-1.539,4.599-3.303,8.041-4.424c3.447-1.091,6.702-1.407,9.03-1.596
						C421.784,384.016,423.23,383.996,423.237,384.077z"/>
				</g>
			</g>
			<g>
				<g>
					<path style="fill:#E0E0E0;" d="M400.964,391.704c-0.195-0.111,1.493-2.689,2.802-6.157c1.229-3.5,1.516-6.569,1.737-6.533
						c0.08,0.01,0.077,0.777-0.062,2.01c-0.147,1.228-0.442,2.936-1.093,4.734c-0.654,1.796-1.513,3.297-2.172,4.342
						C401.508,391.144,401.033,391.747,400.964,391.704z"/>
				</g>
			</g>
			<g>
				<g>
					<path style="fill:#E0E0E0;" d="M433.526,338.423c0.008,0.02-0.199,0.129-0.599,0.319c-0.465,0.211-1.047,0.476-1.76,0.8
						c-0.771,0.331-1.707,0.75-2.761,1.306c-1.058,0.546-2.293,1.108-3.579,1.881c-0.653,0.371-1.335,0.759-2.044,1.162
						c-0.708,0.407-1.409,0.891-2.155,1.358c-1.507,0.914-3.015,2.039-4.626,3.188c-3.152,2.392-6.466,5.224-9.657,8.493
						c-3.16,3.302-5.877,6.711-8.16,9.944c-1.093,1.65-2.167,3.196-3.028,4.733c-0.441,0.762-0.901,1.479-1.284,2.201
						c-0.379,0.722-0.743,1.417-1.091,2.082c-0.728,1.311-1.248,2.565-1.757,3.641c-0.52,1.073-0.907,2.022-1.211,2.804
						c-0.3,0.724-0.544,1.315-0.739,1.786c-0.176,0.407-0.278,0.617-0.298,0.61c-0.02-0.007,0.042-0.231,0.18-0.652
						c0.167-0.484,0.376-1.09,0.632-1.832c0.271-0.798,0.626-1.765,1.118-2.855c0.482-1.095,0.976-2.368,1.683-3.699
						c0.339-0.675,0.694-1.38,1.063-2.113c0.374-0.732,0.826-1.46,1.261-2.232c0.849-1.559,1.913-3.127,3.002-4.797
						c2.274-3.274,5-6.723,8.185-10.05c3.216-3.296,6.568-6.137,9.762-8.522c1.632-1.145,3.163-2.262,4.691-3.163
						c0.757-0.461,1.469-0.937,2.188-1.337c0.72-0.393,1.413-0.772,2.076-1.134c1.307-0.752,2.562-1.29,3.639-1.809
						c1.074-0.529,2.028-0.918,2.816-1.215c0.733-0.281,1.331-0.511,1.809-0.694C433.297,338.473,433.519,338.403,433.526,338.423z"
						/>
				</g>
			</g>
			<g>
				<g>
					<path style="fill:#E0E0E0;" d="M406.765,356.353c-0.055-0.009,0.243-1.048,1.471-2.191c1.198-1.141,3.384-2.198,5.929-2.275
						c2.537-0.067,4.737,0.642,6.239,1.219c1.511,0.593,2.389,1.074,2.359,1.146c-0.035,0.086-0.976-0.253-2.503-0.733
						c-1.521-0.466-3.671-1.079-6.076-1.014c-2.396,0.074-4.464,0.996-5.663,1.988C407.296,355.481,406.864,356.413,406.765,356.353
						z"/>
				</g>
			</g>
			<g>
				<g>
					<path style="fill:#E0E0E0;" d="M402.765,360.48c-0.17-0.094,1.34-2.307,1.683-5.477c0.395-3.165-0.564-5.665-0.377-5.718
						c0.068-0.028,0.405,0.554,0.695,1.595c0.293,1.036,0.486,2.546,0.297,4.194c-0.195,1.647-0.731,3.072-1.254,4.013
						C403.286,360.034,402.825,360.523,402.765,360.48z"/>
				</g>
			</g>
		</g>
		<g>
			<path style="fill:#E0E0E0;" d="M359.188,416.014c0.923,16.364,5.854,33.006,13.439,49.833h32.983
				c7.233-16.659,11.824-33.276,12.64-49.833H359.188z"/>
		</g>
		<g>
			<g>
				<path style="fill:#FAFAFA;" d="M412.904,442.494c0,0.171-10.86,0.309-24.253,0.309c-13.398,0-24.255-0.138-24.255-0.309
					c0-0.171,10.857-0.309,24.255-0.309C402.044,442.185,412.904,442.323,412.904,442.494z"/>
			</g>
		</g>
		<g>
			<g>
				<path style="fill:#FAFAFA;" d="M412.167,448.422c0,0.171-10.181,0.31-22.736,0.31c-12.56,0-22.739-0.139-22.739-0.31
					c0-0.171,10.178-0.309,22.739-0.309C401.986,448.113,412.167,448.252,412.167,448.422z"/>
			</g>
		</g>
		<g>
			<g>
				<path style="fill:#FAFAFA;" d="M373.158,426.759c0.171,0,0.31,3.402,0.31,7.597c0,4.197-0.139,7.598-0.31,7.598
					c-0.171,0-0.309-3.401-0.309-7.598C372.849,430.16,372.988,426.759,373.158,426.759z"/>
			</g>
		</g>
		<g>
			<g>
				<path style="fill:#FAFAFA;" d="M390.831,426.759c0.171,0,0.31,3.523,0.31,7.867c0,4.346-0.139,7.868-0.31,7.868
					c-0.171,0-0.309-3.522-0.309-7.868C390.521,430.281,390.66,426.759,390.831,426.759z"/>
			</g>
		</g>
		<g>
			<g>
				<path style="fill:#FAFAFA;" d="M407.421,426.625c0.171,0,0.309,3.593,0.309,8.024c0,4.433-0.139,8.025-0.309,8.025
					s-0.309-3.592-0.309-8.025C407.111,430.218,407.25,426.625,407.421,426.625z"/>
			</g>
		</g>
		<g>
			<g>
				<path style="fill:#FAFAFA;" d="M417.202,426.759c0,0.171-12.737,0.31-28.446,0.31c-15.714,0-28.448-0.139-28.448-0.31
					s12.734-0.31,28.448-0.31C404.465,426.449,417.202,426.588,417.202,426.759z"/>
			</g>
		</g>
	</g>
</g>
<g id="Background_Simple" style="display:none;">
	<path style="display:inline;fill:#F5F5F5;" d="M293.478,121.387l-0.275,2.229c-2.32,18.786-14.513,34.963-32.072,41.56
		c-2.257,0.848-4.576,1.533-6.939,2.041c-17.016,3.656-35.801-2.009-48.158-14.526c-7.268-7.361-12.765-17.127-22.168-21.336
		c-12.238-5.477-26.173,0.443-38.14,6.279s-25.927,11.724-38.142,6.193c-7.65-3.464-12.932-10.906-15.981-18.781
		c-8.073-20.848-2.07-45.433,11.905-62.594s34.855-27.524,56.392-32.422c30.171-6.861,63.365-3.375,89.813,13.169
		C276.161,59.742,294.652,90.169,293.478,121.387z"/>
	
		<ellipse transform="matrix(0.1524 -0.9883 0.9883 0.1524 48.3768 597.0229)" style="display:inline;fill:#F5F5F5;" cx="372.242" cy="270.309" rx="45.195" ry="45.195"/>
</g>
<g id="Floor">
	<g>
		<path style="fill:#263238;" d="M26.559,465.868c0-0.144,98.664-0.261,220.344-0.261c121.723,0,220.366,0.117,220.366,0.261
			c0,0.144-98.643,0.26-220.366,0.26C125.223,466.128,26.559,466.011,26.559,465.868z"/>
	</g>
</g>
<g id="Table">
	<g>
		<g>
			<g>
				<rect x="113.406" y="198.539" style="fill:#263238;" width="3.757" height="36.129"/>
			</g>
			<g>
				<g>
					<rect x="92.137" y="244.24" style="fill:#FF725E;" width="46.296" height="85.754"/>
				</g>
				<g>
					<rect x="101.577" y="232.236" style="fill:#FF725E;" width="28.191" height="12.004"/>
				</g>
			</g>
			<g>
				<g>
					<rect x="62.661" y="170.505" style="fill:#E0E0E0;" width="101.489" height="54.269"/>
				</g>
				<g>
					<g>
						<path style="fill:#263238;" d="M164.15,224.774c0,0-0.019-0.345-0.029-0.99c-0.007-0.669-0.017-1.617-0.03-2.845
							c-0.016-2.513-0.039-6.168-0.069-10.855c-0.035-9.398-0.085-22.929-0.146-39.579l0.273,0.273
							c-26.895,0.023-62.518,0.054-101.481,0.088h-0.007l0.362-0.362c-0.008,19.167-0.016,37.524-0.023,54.268l-0.339-0.339
							c29.624,0.066,54.948,0.123,72.896,0.164c8.971,0.04,16.097,0.071,21.01,0.093c2.431,0.018,4.313,0.032,5.617,0.042
							c0.623,0.009,1.104,0.015,1.458,0.02C163.972,224.76,164.15,224.774,164.15,224.774c0.007,0.007-0.151,0.014-0.467,0.02
							c-0.344,0.005-0.812,0.012-1.419,0.02c-1.288,0.01-3.147,0.024-5.548,0.042c-4.895,0.022-11.995,0.053-20.933,0.092
							c-18.004,0.04-43.407,0.097-73.122,0.164l-0.339,0.001l0-0.34c-0.007-16.745-0.015-35.101-0.023-54.268l0-0.362h0.362h0.007
							c38.963,0.034,74.586,0.065,101.481,0.088l0.275,0l-0.001,0.274c-0.061,16.72-0.111,30.309-0.146,39.747
							c-0.03,4.661-0.053,8.295-0.069,10.794c-0.013,1.206-0.023,2.138-0.03,2.795C164.17,224.467,164.15,224.774,164.15,224.774z"
							/>
					</g>
				</g>
			</g>
			<g>
				<g>
					<path style="fill:#263238;" d="M138.227,244.24c0,0.2-10.273,0.362-22.941,0.362c-12.673,0-22.944-0.162-22.944-0.362
						c0-0.2,10.27-0.362,22.944-0.362C127.955,243.879,138.227,244.041,138.227,244.24z"/>
				</g>
			</g>
		</g>
		<g>
			<rect x="46.469" y="329.362" style="fill:#455A64;" width="133.114" height="43.855"/>
		</g>
		<g>
			<g>
				<path style="fill:#263238;" d="M174.74,369.803c0,0-0.015-0.229-0.023-0.656c-0.006-0.451-0.014-1.076-0.024-1.889
					c-0.013-1.681-0.032-4.123-0.056-7.282c-0.029-6.35-0.072-15.576-0.126-27.2l0.23,0.229c-28.904,0.031-73.5,0.079-123.421,0.132
					h-0.007l0.362-0.362c-0.003,12.802-0.007,25.254-0.01,37.027l-0.352-0.352c35.364,0.065,66.169,0.121,88.163,0.162
					c10.997,0.042,19.79,0.076,25.863,0.1c3.013,0.02,5.35,0.035,6.962,0.046c0.778,0.01,1.378,0.017,1.811,0.022
					C174.52,369.788,174.74,369.803,174.74,369.803s-0.19,0.015-0.585,0.023c-0.423,0.005-1.008,0.013-1.768,0.023
					c-1.595,0.01-3.906,0.026-6.887,0.046c-6.053,0.023-14.819,0.057-25.782,0.1c-22.055,0.04-52.946,0.097-88.407,0.162
					l-0.352,0.001l0-0.353c-0.003-11.774-0.006-24.225-0.01-37.027l0-0.362h0.362h0.007c49.921,0.053,94.517,0.101,123.421,0.132
					l0.231,0l-0.001,0.23c-0.054,11.682-0.097,20.955-0.126,27.337c-0.024,3.137-0.043,5.562-0.056,7.231
					c-0.01,0.796-0.018,1.408-0.024,1.849C174.756,369.605,174.74,369.803,174.74,369.803z"/>
			</g>
		</g>
		<g>
			<polygon style="fill:#455A64;" points="51.299,465.82 60.915,373.217 73.814,373.217 58.8,465.867 			"/>
		</g>
		<g>
			<polygon style="fill:#455A64;" points="183.801,465.796 169.355,373.217 156.456,373.217 176.3,465.844 			"/>
		</g>
		<g>
			<path style="fill:#263238;" d="M104.441,332.776c0,4.742,3.844,8.585,8.585,8.585c4.741,0,8.585-3.844,8.585-8.585H104.441z"/>
		</g>
		<g>
			<g>
				<path style="fill:#263238;" d="M177.081,372.917c0,0.2-29.352,0.362-65.55,0.362c-36.211,0-65.557-0.162-65.557-0.362
					c0-0.2,29.345-0.362,65.557-0.362C147.729,372.555,177.081,372.717,177.081,372.917z"/>
			</g>
		</g>
	</g>
</g>
<g id="Picture">
	<g>
		<g>
			<g>
				<g>
					<rect x="338.5" y="29.576" style="fill:#455A64;" width="120.505" height="155.64"/>
				</g>
			</g>
			<g>
				<g>
					<g>
						<path style="fill:#263238;" d="M459.005,29.576c0.011,0.01-0.1,0.151-0.329,0.417c-0.265,0.299-0.606,0.684-1.034,1.167
							c-0.966,1.059-2.327,2.549-4.07,4.46l-0.048,0.053l-0.076,0.001c-10.477,0.107-31.062,0.18-54.693,0.18
							c-23.638,0-44.223-0.072-54.698-0.18l-0.076-0.001l-0.048-0.053c-1.744-1.911-3.104-3.401-4.07-4.46
							c-0.429-0.484-0.769-0.868-1.034-1.167c-0.229-0.266-0.34-0.406-0.329-0.417c0.011-0.01,0.145,0.11,0.395,0.355
							c0.281,0.284,0.643,0.649,1.098,1.108c0.994,1.033,2.394,2.486,4.188,4.35l-0.123-0.054c10.476-0.107,31.061-0.18,54.698-0.18
							c23.63,0,44.216,0.073,54.693,0.18l-0.123,0.053c1.794-1.863,3.193-3.317,4.188-4.35c0.455-0.459,0.816-0.824,1.098-1.108
							C458.861,29.686,458.994,29.566,459.005,29.576z"/>
					</g>
				</g>
			</g>
			<g>
				<g>
					<g>
						<path style="fill:#263238;" d="M338.5,185.217c-0.011-0.01,0.1-0.151,0.329-0.417c0.265-0.299,0.605-0.683,1.034-1.167
							c0.966-1.059,2.327-2.55,4.07-4.46l0.048-0.053l0.076,0c10.477-0.107,31.062-0.18,54.693-0.18
							c23.638,0,44.223,0.073,54.699,0.18l0.076,0l0.048,0.053c1.744,1.911,3.104,3.401,4.07,4.46
							c0.429,0.484,0.769,0.868,1.034,1.167c0.229,0.266,0.34,0.407,0.329,0.417c-0.011,0.011-0.145-0.11-0.395-0.355
							c-0.281-0.284-0.643-0.648-1.098-1.107c-0.994-1.033-2.394-2.487-4.188-4.35l0.123,0.053
							c-10.476,0.107-31.061,0.18-54.699,0.18c-23.63,0-44.216-0.073-54.693-0.18l0.123-0.053c-1.794,1.863-3.193,3.317-4.188,4.35
							c-0.455,0.459-0.817,0.824-1.098,1.107C338.645,185.107,338.511,185.227,338.5,185.217z"/>
					</g>
				</g>
			</g>
		</g>
		<g>
			<g>
				<rect x="344.057" y="35.505" style="fill:#FFFFFF;" width="109.391" height="143.783"/>
			</g>
		</g>
		<g>
			<g>
				<path style="fill:#FF725E;" d="M361.174,137.24c3.254-3.099,8.057-3.977,12.55-3.865c4.492,0.111,8.943,1.063,13.437,1.007
					c7.186-0.09,14.346-2.749,21.427-1.522c2.263,0.392,4.557,1.179,6.803,0.7c1.967-0.419,3.619-1.762,5.546-2.337
					c4.989-1.487,10.602,2.415,15.393,0.379v32.094h-75.157V137.24z"/>
			</g>
		</g>
		<g>
			<g>
				<g>
					<path style="fill:#263238;" d="M362.688,138.53c-0.193,0-0.349-19.012-0.349-42.459c0-23.455,0.156-42.464,0.349-42.464
						c0.193,0,0.349,19.008,0.349,42.464C363.037,119.518,362.88,138.53,362.688,138.53z"/>
				</g>
			</g>
		</g>
		<g>
			<g>
				<g>
					<path style="fill:#263238;" d="M366.11,138.53c-0.193,0-0.349-19.012-0.349-42.459c0-23.455,0.156-42.464,0.349-42.464
						c0.193,0,0.349,19.008,0.349,42.464C366.459,119.518,366.302,138.53,366.11,138.53z"/>
				</g>
			</g>
		</g>
		<g>
			<g>
				<g>
					<path style="fill:#263238;" d="M369.531,138.53c-0.193,0-0.349-19.012-0.349-42.459c0-23.455,0.156-42.464,0.349-42.464
						c0.193,0,0.349,19.008,0.349,42.464C369.88,119.518,369.724,138.53,369.531,138.53z"/>
				</g>
			</g>
		</g>
		<g>
			<g>
				<g>
					<path style="fill:#263238;" d="M372.953,138.53c-0.193,0-0.349-19.012-0.349-42.459c0-23.455,0.156-42.464,0.349-42.464
						c0.193,0,0.349,19.008,0.349,42.464C373.302,119.518,373.146,138.53,372.953,138.53z"/>
				</g>
			</g>
		</g>
		<g>
			<g>
				<g>
					<path style="fill:#263238;" d="M376.375,138.53c-0.193,0-0.349-19.012-0.349-42.459c0-23.455,0.156-42.464,0.349-42.464
						c0.193,0,0.349,19.008,0.349,42.464C376.724,119.518,376.568,138.53,376.375,138.53z"/>
				</g>
			</g>
		</g>
		<g>
			<g>
				<g>
					<path style="fill:#263238;" d="M379.797,138.53c-0.193,0-0.349-19.012-0.349-42.459c0-23.455,0.156-42.464,0.349-42.464
						c0.193,0,0.349,19.008,0.349,42.464C380.146,119.518,379.99,138.53,379.797,138.53z"/>
				</g>
			</g>
		</g>
		<g>
			<g>
				<g>
					<path style="fill:#263238;" d="M383.219,138.53c-0.193,0-0.349-19.012-0.349-42.459c0-23.455,0.156-42.464,0.349-42.464
						s0.349,19.008,0.349,42.464C383.568,119.518,383.411,138.53,383.219,138.53z"/>
				</g>
			</g>
		</g>
		<g>
			<g>
				<g>
					<path style="fill:#263238;" d="M386.64,138.53c-0.193,0-0.349-19.012-0.349-42.459c0-23.455,0.156-42.464,0.349-42.464
						c0.193,0,0.349,19.008,0.349,42.464C386.99,119.518,386.833,138.53,386.64,138.53z"/>
				</g>
			</g>
		</g>
		<g>
			<g>
				<g>
					<path style="fill:#263238;" d="M390.062,138.53c-0.193,0-0.349-19.012-0.349-42.459c0-23.455,0.156-42.464,0.349-42.464
						c0.193,0,0.349,19.008,0.349,42.464C390.411,119.518,390.255,138.53,390.062,138.53z"/>
				</g>
			</g>
		</g>
		<g>
			<g>
				<g>
					<path style="fill:#263238;" d="M393.484,138.53c-0.193,0-0.349-19.012-0.349-42.459c0-23.455,0.156-42.464,0.349-42.464
						c0.193,0,0.349,19.008,0.349,42.464C393.833,119.518,393.677,138.53,393.484,138.53z"/>
				</g>
			</g>
		</g>
		<g>
			<g>
				<g>
					<path style="fill:#263238;" d="M396.906,138.53c-0.193,0-0.349-19.012-0.349-42.459c0-23.455,0.156-42.464,0.349-42.464
						s0.349,19.008,0.349,42.464C397.255,119.518,397.099,138.53,396.906,138.53z"/>
				</g>
			</g>
		</g>
		<g>
			<g>
				<g>
					<path style="fill:#263238;" d="M400.328,138.53c-0.193,0-0.349-19.012-0.349-42.459c0-23.455,0.156-42.464,0.349-42.464
						c0.193,0,0.349,19.008,0.349,42.464C400.677,119.518,400.52,138.53,400.328,138.53z"/>
				</g>
			</g>
		</g>
		<g>
			<g>
				<g>
					<path style="fill:#263238;" d="M403.749,138.53c-0.193,0-0.349-19.012-0.349-42.459c0-23.455,0.156-42.464,0.349-42.464
						c0.193,0,0.349,19.008,0.349,42.464C404.099,119.518,403.942,138.53,403.749,138.53z"/>
				</g>
			</g>
		</g>
		<g>
			<g>
				<g>
					<path style="fill:#263238;" d="M407.171,138.53c-0.193,0-0.349-19.012-0.349-42.459c0-23.455,0.156-42.464,0.349-42.464
						c0.193,0,0.349,19.008,0.349,42.464C407.52,119.518,407.364,138.53,407.171,138.53z"/>
				</g>
			</g>
		</g>
		<g>
			<g>
				<g>
					<path style="fill:#263238;" d="M410.593,138.53c-0.193,0-0.349-19.012-0.349-42.459c0-23.455,0.156-42.464,0.349-42.464
						c0.193,0,0.349,19.008,0.349,42.464C410.942,119.518,410.786,138.53,410.593,138.53z"/>
				</g>
			</g>
		</g>
		<g>
			<g>
				<g>
					<path style="fill:#263238;" d="M414.015,138.53c-0.193,0-0.349-19.012-0.349-42.459c0-23.455,0.156-42.464,0.349-42.464
						c0.193,0,0.349,19.008,0.349,42.464C414.364,119.518,414.207,138.53,414.015,138.53z"/>
				</g>
			</g>
		</g>
		<g>
			<g>
				<g>
					<path style="fill:#263238;" d="M417.437,138.53c-0.193,0-0.349-19.012-0.349-42.459c0-23.455,0.156-42.464,0.349-42.464
						c0.193,0,0.349,19.008,0.349,42.464C417.786,119.518,417.629,138.53,417.437,138.53z"/>
				</g>
			</g>
		</g>
		<g>
			<g>
				<g>
					<path style="fill:#263238;" d="M420.859,138.53c-0.193,0-0.349-19.012-0.349-42.459c0-23.455,0.156-42.464,0.349-42.464
						c0.193,0,0.349,19.008,0.349,42.464C421.207,119.518,421.051,138.53,420.859,138.53z"/>
				</g>
			</g>
		</g>
		<g>
			<g>
				<g>
					<path style="fill:#263238;" d="M424.28,138.53c-0.193,0-0.349-19.012-0.349-42.459c0-23.455,0.156-42.464,0.349-42.464
						c0.193,0,0.349,19.008,0.349,42.464C424.629,119.518,424.473,138.53,424.28,138.53z"/>
				</g>
			</g>
		</g>
		<g>
			<g>
				<g>
					<path style="fill:#263238;" d="M427.702,138.53c-0.193,0-0.349-19.012-0.349-42.459c0-23.455,0.156-42.464,0.349-42.464
						c0.193,0,0.349,19.008,0.349,42.464C428.051,119.518,427.895,138.53,427.702,138.53z"/>
				</g>
			</g>
		</g>
		<g>
			<g>
				<g>
					<path style="fill:#263238;" d="M431.124,138.53c-0.193,0-0.349-19.012-0.349-42.459c0-23.455,0.156-42.464,0.349-42.464
						c0.193,0,0.349,19.008,0.349,42.464C431.473,119.518,431.317,138.53,431.124,138.53z"/>
				</g>
			</g>
		</g>
		<g>
			<g>
				<g>
					<path style="fill:#263238;" d="M434.546,138.53c-0.193,0-0.349-19.012-0.349-42.459c0-23.455,0.156-42.464,0.349-42.464
						c0.193,0,0.349,19.008,0.349,42.464C434.895,119.518,434.738,138.53,434.546,138.53z"/>
				</g>
			</g>
		</g>
	</g>
</g>
<g id="Character">
	<g>
		<path style="fill:#FFBF9D;" d="M239.18,298.102c0,0-14.086,5.581-22.325,13.023c-8.239,7.442-30.565,17.276-30.565,17.276
			s-23.389,8.771-33.488,15.947c-10.1,7.176-48.372,24.983-48.372,24.983l14.003,8.577c0,0,63.986-17.759,72.376-22.397
			c6.662-3.683,10.921-4.81,21.02-9.063c10.1-4.253,36.654-22.033,36.654-22.033l10.897-5.316L239.18,298.102z"/>
		<g>
			<path style="fill:#263238;" d="M360.831,430.145c0,0,3.353,2.946,2.235,6.603c-1.117,3.657-1.93,2.946-1.727,8.737
				c0.203,5.791,3.741,19.631,1.422,22.858c-3.731,5.194-10.272,7.573-17.242,6.384c-5.016-0.856-13.743-4.149-14.454-12.377
				c-0.711-8.229,3.149-11.886,3.657-18.693c0.508-6.807-1.58-9.819,0.249-16.22c1.351-4.729,5.997-8.311,8.33-9.859
				c0.784-0.52,1.813-0.464,2.538,0.136L360.831,430.145z"/>
			<path style="fill:#FFBF9D;" d="M378.02,367.611c0,0,9.915,0.503,24.08,10.999c14.165,10.495,9.186,31.673,7.932,37.125
				c-0.764,3.325-4.984,12.981-11.216,16.947c-6.232,3.966-12.789,6.937-19.589,5.238c-6.799-1.7-11.702-4.682-11.702-4.682
				c-4.56-0.294-8.258,1.149-10.926,4.67l-1.615-0.06c-6.499-0.24-11.528-5.778-11.143-12.27l0.376-6.335
				c6.396-6.282,4.243-4.889,14.577-10.757l-7.12-3.798L378.02,367.611z"/>
			<g>
				<path style="fill:#E0E0E0;" d="M352.625,413.809c0,0-0.99,9.429,3.705,14.956s6.04,5.014,6.04,5.014s-3.799,1.4-5.772,4.128
					c-1.972,2.728-0.484,0.501-0.484,0.501s-9.072,0.53-11.47-4.174c-2.399-4.704-0.427-14.993-0.427-14.993
					S348.41,415.077,352.625,413.809z"/>
				<path style="fill:#455A64;" d="M358.004,470.219c-1.336,0.249-2.767,0.2-3.99-0.394c-0.951-0.461-1.721-1.22-2.605-1.799
					c-2.703-1.77-6.518-1.632-9.086,0.33c-1.143,0.873-2.124,2.1-3.532,2.397c-1.793,0.378-3.557-0.7-4.95-1.892l0,0
					c2.41,2.746,5.563,4.702,9.092,5.652c3.529,0.949,6.874,0.648,10.473,0.013c1.752-0.309,3.734-0.819,5.234-1.775
					c1.501-0.955,2.828-2.437,3.73-3.85C361.117,469.425,359.34,469.97,358.004,470.219z"/>
				<g>
					<path style="fill:#455A64;" d="M359.837,456.611c-0.033,0.085-1.255-0.382-3.295-0.877c-2.036-0.498-4.916-0.946-8.113-0.883
						c-3.198,0.074-6.056,0.646-8.069,1.231c-2.016,0.582-3.217,1.101-3.254,1.018c-0.015-0.033,0.273-0.19,0.808-0.446
						c0.532-0.264,1.33-0.584,2.337-0.924c2.009-0.683,4.911-1.325,8.167-1.4c3.255-0.065,6.181,0.451,8.218,1.047
						c1.02,0.296,1.832,0.582,2.375,0.822C359.556,456.433,359.851,456.578,359.837,456.611z"/>
				</g>
				<g>
					<path style="fill:#FFFFFF;" d="M356.33,449.448c-0.002,0.144-3.289,0.212-7.34,0.152c-4.052-0.06-7.335-0.225-7.333-0.369
						c0.002-0.144,3.288-0.212,7.34-0.152C353.049,449.139,356.332,449.305,356.33,449.448z"/>
				</g>
				<g>
					<path style="fill:#FFFFFF;" d="M355.824,445.809c-0.023,0.156-2.847-0.244-6.339-0.131c-3.494,0.093-6.288,0.659-6.321,0.504
						c-0.037-0.124,2.75-0.929,6.305-1.025C353.023,445.044,355.854,445.683,355.824,445.809z"/>
				</g>
				<g>
					<path style="fill:#FFFFFF;" d="M357.943,443.054c-0.042,0.158-3.35-0.784-7.549-1.056c-4.198-0.3-7.603,0.184-7.623,0.021
						c-0.01-0.064,0.829-0.268,2.215-0.43c1.384-0.163,3.317-0.255,5.444-0.111c2.126,0.147,4.029,0.5,5.378,0.849
						C357.158,442.676,357.962,442.991,357.943,443.054z"/>
				</g>
				<g>
					<path style="fill:#FFFFFF;" d="M351.821,441.107c-0.017-0.005,0.008-0.153,0.074-0.432c0.07-0.277,0.189-0.683,0.387-1.191
						c0.391-1.012,1.123-2.447,2.445-3.901c0.335-0.358,0.7-0.72,1.107-1.069c0.404-0.338,0.852-0.719,1.432-0.93
						c0.286-0.108,0.611-0.177,0.958-0.13c0.348,0.053,0.69,0.259,0.883,0.58c0.387,0.644,0.198,1.461-0.207,2.008
						c-0.409,0.563-0.902,0.984-1.384,1.456c-0.491,0.461-1.005,0.918-1.543,1.366c-1.076,0.896-2.246,1.758-3.499,2.554
						c-0.292,0.18-0.583,0.359-0.854,0.526l-0.154,0.095l-0.143-0.115c-2.201-1.779-4.291-3.467-6.197-5.007
						c-0.48-0.385-0.967-0.827-1.196-1.459c-0.114-0.315-0.09-0.72,0.111-1.01c0.201-0.302,0.532-0.456,0.84-0.5
						c0.648-0.094,1.194,0.255,1.582,0.576c0.395,0.334,0.741,0.673,1.056,1.018c1.263,1.377,1.952,2.739,2.332,3.691
						c0.193,0.478,0.304,0.862,0.374,1.123c0.063,0.263,0.088,0.402,0.071,0.407c-0.043,0.013-0.196-0.532-0.626-1.452
						c-0.429-0.914-1.152-2.217-2.413-3.523c-0.312-0.325-0.663-0.652-1.041-0.958c-0.373-0.296-0.818-0.543-1.271-0.464
						c-0.463,0.055-0.772,0.489-0.588,0.947c0.173,0.466,0.596,0.874,1.066,1.234c1.915,1.529,4.015,3.205,6.227,4.971l-0.296-0.021
						c0.266-0.164,0.553-0.341,0.841-0.519c2.443-1.573,4.674-3.376,6.313-5.213c0.352-0.462,0.456-1.067,0.209-1.495
						c-0.246-0.433-0.817-0.473-1.302-0.281c-0.501,0.171-0.915,0.504-1.322,0.832c-0.401,0.33-0.763,0.674-1.096,1.013
						c-1.319,1.381-2.085,2.756-2.527,3.728C352.023,440.541,351.865,441.12,351.821,441.107z"/>
				</g>
			</g>
			<g>
				<path style="fill:#FF9A6C;" d="M372.414,414.352c-0.024,0.065-0.838-0.151-2.126-0.6c-1.284-0.448-3.052-1.154-4.852-2.227
					c-0.881-0.532-1.767-1.067-2.411-1.732c-0.654-0.636-1.187-1.25-1.624-1.776c-0.869-1.053-1.332-1.762-1.277-1.805
					c0.059-0.046,0.621,0.579,1.553,1.56c0.467,0.489,1.024,1.072,1.676,1.67c0.629,0.615,1.459,1.095,2.348,1.634
					c1.765,1.052,3.475,1.799,4.72,2.332C371.668,413.943,372.44,414.282,372.414,414.352z"/>
			</g>
			<g>
				<path style="fill:#FF9A6C;" d="M375.618,425.646c-0.034,0.041-0.69-0.416-1.487-1.421c-0.798-0.997-1.665-2.593-2.074-4.518
					c-0.401-1.928-0.248-3.738,0.081-4.971c0.326-1.241,0.742-1.924,0.79-1.899c0.083,0.034-0.207,0.76-0.43,1.978
					c-0.228,1.214-0.314,2.941,0.068,4.786c0.392,1.843,1.166,3.389,1.862,4.408C375.123,425.034,375.68,425.582,375.618,425.646z"
					/>
			</g>
			<path style="fill:#FF725E;" d="M282.299,421.665c0,0-13.408-9.695-17.353-25.64c-3.945-15.945,0-15.287,0-15.287
				C265.263,380.715,288.456,395.521,282.299,421.665z"/>
			<path style="opacity:0.3;" d="M282.299,421.665c0,0-13.408-9.695-17.353-25.64c-3.945-15.945,0-15.287,0-15.287
				C265.263,380.715,288.456,395.521,282.299,421.665z"/>
			<path style="fill:#FFBF9D;" d="M106.898,427.492c0,0,46.906-18.785,59.129-23.902c12.224-5.117,20.752-7.676,30.702-12.792
				c9.95-5.117,73.953-23.186,73.953-23.186l16.447,21.196l2.005,23.522c0,0-41.235,8.915-52.606,8.758
				c-11.371-0.157-29.514,0.183-29.514,0.183s-25.484,13.072-37.97,16.575c-15.592,4.374-53.157,12.693-53.157,12.693
				L106.898,427.492z"/>
			<path style="fill:#FF725E;" d="M293.784,359.473l-35.729,11.755c0,0,18.927,21.402,22.054,35.647
				c3.127,14.245,2.191,14.79,2.191,14.79l41.947-11.788l44.463,6.447c0,0-6.644-16.649,6.908-32.913
				c8.247-9.898,20.421-9.928,20.421-9.928l-33.374-20.387L293.784,359.473z"/>
			<path style="fill:#E0E0E0;" d="M97.949,428.541l29.67-9.367l13.466,25.619l-22.704,5.803l-11.484,6.369
				c0,0-8.899-3.173-8.949-4.389S97.949,428.541,97.949,428.541z"/>
			<g>
				<path style="fill:#263238;" d="M301.542,371.795c0.023-0.028,0.452,0.296,1.211,0.907c0.765,0.603,1.823,1.537,3.08,2.743
					c1.263,1.201,2.686,2.716,4.18,4.472c1.475,1.772,3.009,3.795,4.468,6.022c1.444,2.237,2.672,4.461,3.695,6.527
					c1,2.078,1.808,3.993,2.394,5.634c0.593,1.638,1.018,2.983,1.259,3.927c0.251,0.941,0.372,1.465,0.338,1.475
					c-0.035,0.01-0.222-0.495-0.532-1.415c-0.299-0.922-0.776-2.244-1.409-3.855c-0.626-1.615-1.464-3.502-2.48-5.552
					c-1.038-2.039-2.268-4.237-3.701-6.456c-1.448-2.209-2.957-4.223-4.401-5.999c-1.462-1.76-2.847-3.29-4.07-4.517
					c-1.216-1.233-2.231-2.204-2.953-2.852C301.905,372.199,301.519,371.823,301.542,371.795z"/>
			</g>
			<g>
				<path style="fill:#263238;" d="M73.902,391.418c0,0-3.009,11.933-1.762,22.061c1.246,10.129,5.393,24.992,6.853,30.463
					c1.46,5.471,0.145,21.602,5.812,22.52c5.667,0.918,26.099-8.224,26.099-8.224s-6.346-4.277-6.342-9.872
					c0.004-5.594,2.503-16.56,2.503-16.56s7.124-4.982,7.286-8.205s-8.912-1.805-8.912-1.805s-11.251-7.418-13.823-12.708
					c-2.572-5.29-4.229-5.428-4.63-11.695c-0.401-6.267-2.816-9.185-2.816-9.185s-5.244-2.682-7.035-1.14
					C75.342,388.61,73.902,391.418,73.902,391.418z"/>
				<path style="fill:#455A64;" d="M77.237,386.987c-2.024,1.384-3.42,4.416-3.42,4.416s-3.009,11.933-1.762,22.062
					c1.246,10.129,5.393,24.992,6.853,30.463c1.46,5.471,0.145,21.602,5.812,22.52c1.551,0.267,3.124,0.12,4.719-0.431
					c0,0-5.015-16.097-5.18-23.96s-6.32-24.39-6.591-33.267c-0.271-8.877,1.504-18.952,1.504-18.952l1.46-2.975
					C79.324,386.565,78.413,386.158,77.237,386.987z"/>
				<g>
					<path style="fill:#FFFFFF;" d="M93.229,411.016c0.015,0.155-1.415,0.293-2.867,1.195c-1.468,0.877-2.246,2.084-2.378,1.999
						c-0.128-0.041,0.508-1.482,2.107-2.444C91.678,410.788,93.251,410.883,93.229,411.016z"/>
				</g>
				<g>
					<path style="fill:#FFFFFF;" d="M97.963,415.959c0.032,0.155-1.673,0.439-3.318,1.673c-1.666,1.205-2.443,2.749-2.582,2.672
						c-0.131-0.024,0.483-1.789,2.273-3.092C96.112,415.89,97.979,415.826,97.963,415.959z"/>
				</g>
				<g>
					<path style="fill:#FFFFFF;" d="M102.436,419.432c0.078,0.131-1.075,0.915-2.268,2.121c-1.204,1.197-1.985,2.351-2.116,2.273
						c-0.121-0.061,0.488-1.387,1.748-2.641C101.051,419.924,102.375,419.312,102.436,419.432z"/>
				</g>
				<g>
					<path style="fill:#FFFFFF;" d="M91.841,450.629c-0.069,0.011-0.27-0.782-0.498-2.083c-0.229-1.301-0.476-3.11-0.641-5.119
						c-0.164-2.01-0.214-3.836-0.199-5.156c0.014-1.321,0.084-2.136,0.153-2.136c0.151,0.001,0.234,3.254,0.565,7.25
						C91.543,447.379,91.991,450.604,91.841,450.629z"/>
				</g>
			</g>
		</g>
		<g>
			<path style="fill:#263238;" d="M333.207,269.618c0,0-9.48-11.388-16.189-11.845c-4.839-0.329-32.226,4.957-32.226,4.957
				l-27.868,17.982L231.4,295.155l3.16,23.122c0,0,9.793,10.092,18.486,14.229c10.51,5.002,15.81,6.286,18.733,8.412
				c2.924,2.126,16.468,7.924,16.468,7.924l3.688,11.238c0,0,19.646,15.883,32.737,18.529c18.086,3.656,53.19-16.232,53.19-16.232
				l-10.147-25.496L333.207,269.618z"/>
			<polygon style="fill:#263238;" points="207.014,314.01 224.75,342.617 252.162,327.313 246.357,290.882 231.4,295.155 			"/>
			<g>
				<path style="fill:#455A64;" d="M337.172,348.417c0.004,0.018-0.157,0.069-0.467,0.152c-0.37,0.091-0.82,0.202-1.364,0.336
					c-1.185,0.29-2.917,0.637-5.068,0.998c-4.301,0.727-10.32,1.364-16.987,1.309c-6.669-0.068-12.676-0.817-16.963-1.623
					c-2.145-0.4-3.87-0.779-5.049-1.091c-0.54-0.144-0.988-0.263-1.357-0.361c-0.309-0.088-0.469-0.143-0.464-0.16
					c0.004-0.017,0.173,0.003,0.489,0.058c0.374,0.072,0.829,0.16,1.377,0.266c1.19,0.251,2.922,0.574,5.067,0.926
					c4.288,0.71,10.269,1.397,16.905,1.465c6.633,0.055,12.625-0.521,16.926-1.152c2.151-0.313,3.889-0.603,5.084-0.832
					c0.55-0.096,1.006-0.175,1.382-0.24C336.999,348.417,337.168,348.399,337.172,348.417z"/>
			</g>
			<g>
				<path style="fill:#455A64;" d="M341.232,348.909c0.016,0.032-0.278,0.213-0.827,0.513c-0.546,0.306-1.363,0.697-2.393,1.133
					c-2.058,0.874-5.025,1.833-8.408,2.36c-3.386,0.518-6.504,0.499-8.73,0.286c-1.114-0.104-2.011-0.231-2.623-0.358
					c-0.614-0.121-0.949-0.204-0.943-0.239c0.014-0.087,1.378,0.116,3.592,0.23c2.212,0.117,5.284,0.078,8.625-0.433
					c3.339-0.52,6.279-1.409,8.353-2.188C339.953,349.435,341.193,348.83,341.232,348.909z"/>
			</g>
			<g>
				<path style="fill:#455A64;" d="M258.055,334.796c-0.011,0.034-0.541-0.116-1.495-0.42c-0.483-0.137-1.052-0.363-1.707-0.64
					c-0.333-0.138-0.684-0.284-1.053-0.437c-0.365-0.18-0.747-0.369-1.145-0.567c-3.222-1.571-7.351-4.395-11.305-8.169
					c-3.971-3.763-7.034-7.672-9.094-10.587c-1.025-1.463-1.818-2.673-2.326-3.533c-0.515-0.856-0.785-1.337-0.755-1.356
					c0.03-0.019,0.359,0.426,0.925,1.246c0.559,0.824,1.396,1.998,2.454,3.428c2.127,2.848,5.216,6.693,9.154,10.426
					c3.922,3.743,7.969,6.58,11.115,8.219c0.389,0.207,0.762,0.405,1.118,0.595c0.36,0.164,0.702,0.321,1.027,0.469
					c0.639,0.301,1.192,0.552,1.661,0.717C257.556,334.545,258.066,334.761,258.055,334.796z"/>
			</g>
		</g>
		<g>
			<g>
				<g>
					<g>
						<g>
							<g>
								<g>
									<g>
										<path style="fill:#263238;" d="M276.848,241.656c-0.827-6.044-1.694-12.117-3.548-17.929
											c-1.854-5.812-4.759-11.4-9.161-15.624c-0.667-0.64-5.671-4.681-6.46-4.198c-0.564,0.345,3.32,4.492,3.269,5.151
											c-0.486,6.289,1.59,12.567,4.783,18.008C268.923,232.504,272.562,237.027,276.848,241.656"/>
									</g>
								</g>
							</g>
						</g>
					</g>
				</g>
			</g>
			<g>
				<g>
					<g>
						<g>
							<g>
								<g>
									<g>
										<g>
											<path style="fill:#FFBF9D;" d="M290.363,270.183l-23.102-49.744c-6.207-13.983-19.519-22.027-33.325-15.435l-1.24,0.684
												c-12.482,6.881-17.594,22.191-11.739,35.186c5.447,12.09,11.621,25.379,15.121,31.547
												c7.246,12.769,21.206,7.68,21.206,7.68c0.03-0.015,0.618,1.143,2.533,5.002l14.342,9.331l0,0L290.363,270.183z"/>
										</g>
									</g>
								</g>
							</g>
						</g>
					</g>
				</g>
			</g>
			<g>
				<g>
					<g>
						<g>
							<g>
								<g>
									<g>
										<g>
											<g>
												<path style="fill:#FF9A6C;" d="M257.284,280.1c0,0,8.366-3.991,14.012-14.176c0,0,1.301,11.885-12.166,17.799
													L257.284,280.1z"/>
											</g>
										</g>
									</g>
								</g>
							</g>
						</g>
					</g>
				</g>
			</g>
			<g>
				<g>
					<g>
						<g>
							<g>
								<g>
									<g>
										<g>
											<g>
												<g>
													<g>
														<g>
															<g>
																<g>
																	<g>
																		<path style="fill:#263238;" d="M230.42,250.194c0.5,0.989,1.749,1.38,2.791,0.877
																			c1.04-0.503,1.48-1.71,0.98-2.699c-0.5-0.989-1.75-1.381-2.79-0.879
																			C230.359,247.997,229.919,249.206,230.42,250.194z"/>
																	</g>
																</g>
															</g>
														</g>
													</g>
												</g>
											</g>
										</g>
									</g>
								</g>
							</g>
						</g>
					</g>
				</g>
			</g>
			<g>
				<g>
					<g>
						<g>
							<g>
								<g>
									<g>
										<g>
											<g>
												<g>
													<g>
														<g>
															<g>
																<g>
																	<g>
																		<g>
																			<path style="fill:#263238;" d="M226.819,245.044c0.36,0.114,1.183-1.682,3.162-2.766
																				c1.96-1.111,3.971-0.894,4.052-1.254c0.046-0.165-0.424-0.47-1.309-0.581c-0.874-0.115-2.179,0.024-3.407,0.708
																				c-1.227,0.686-2.012,1.709-2.352,2.501C226.615,244.452,226.648,244.999,226.819,245.044z"/>
																		</g>
																	</g>
																</g>
															</g>
														</g>
													</g>
												</g>
											</g>
										</g>
									</g>
								</g>
							</g>
						</g>
					</g>
				</g>
			</g>
			<g>
				<g>
					<g>
						<g>
							<g>
								<g>
									<g>
										<g>
											<g>
												<g>
													<g>
														<g>
															<g>
																<g>
																	<g>
																		<path style="fill:#263238;" d="M248.667,241.489c0.5,0.988,1.75,1.38,2.791,0.876
																			c1.04-0.502,1.481-1.71,0.98-2.699c-0.5-0.988-1.75-1.381-2.79-0.878
																			C248.606,239.291,248.167,240.501,248.667,241.489z"/>
																	</g>
																</g>
															</g>
														</g>
													</g>
												</g>
											</g>
										</g>
									</g>
								</g>
							</g>
						</g>
					</g>
				</g>
			</g>
			<g>
				<g>
					<g>
						<g>
							<g>
								<g>
									<g>
										<g>
											<g>
												<g>
													<g>
														<g>
															<g>
																<g>
																	<g>
																		<g>
																			<path style="fill:#263238;" d="M246.438,234.826c0.36,0.114,1.186-1.683,3.163-2.766
																				c1.96-1.11,3.971-0.894,4.052-1.254c0.046-0.165-0.422-0.47-1.309-0.581c-0.873-0.116-2.179,0.024-3.407,0.707
																				c-1.227,0.686-2.012,1.709-2.352,2.501C246.236,234.234,246.268,234.781,246.438,234.826z"/>
																		</g>
																	</g>
																</g>
															</g>
														</g>
													</g>
												</g>
											</g>
										</g>
									</g>
								</g>
							</g>
						</g>
					</g>
				</g>
			</g>
			<g>
				<g>
					<g>
						<g>
							<g>
								<g>
									<g>
										<g>
											<g>
												<g>
													<g>
														<g>
															<g>
																<g>
																	<g>
																		<path style="fill:#263238;" d="M247.719,253.914c-0.053-0.117-1.398,0.347-3.528,1.19
																			c-0.533,0.226-1.066,0.389-1.341,0.092c-0.32-0.299-0.408-0.959-0.488-1.681
																			c-0.199-1.482-0.408-3.036-0.626-4.664c-0.943-6.612-1.922-11.936-2.188-11.896
																			c-0.266,0.041,0.283,5.432,1.226,12.044c0.245,1.624,0.477,3.172,0.701,4.652c0.125,0.679,0.156,1.51,0.83,2.124
																			c0.344,0.302,0.865,0.372,1.236,0.28c0.378-0.079,0.665-0.23,0.923-0.353
																			C246.526,254.706,247.774,254.031,247.719,253.914z"/>
																	</g>
																</g>
															</g>
														</g>
													</g>
												</g>
											</g>
										</g>
									</g>
								</g>
							</g>
						</g>
					</g>
				</g>
			</g>
			<g>
				<g>
					<g>
						<g>
							<g>
								<g>
									<g>
										<g>
											<g>
												<g>
													<g>
														<path style="fill:#263238;" d="M242.392,228.999c0.546,0.356,2.171-1.231,4.477-2.567
															c2.28-1.383,4.451-2.048,4.401-2.698c-0.034-0.305-0.678-0.542-1.724-0.497c-1.04,0.04-2.469,0.411-3.845,1.225
															c-1.374,0.817-2.384,1.893-2.919,2.786C242.241,228.145,242.14,228.824,242.392,228.999z"/>
													</g>
												</g>
											</g>
										</g>
									</g>
								</g>
							</g>
						</g>
					</g>
				</g>
			</g>
			<g>
				<g>
					<g>
						<g>
							<g>
								<g>
									<g>
										<g>
											<g>
												<g>
													<g>
														<path style="fill:#263238;" d="M223.527,239.285c0.655,0.232,2.027-1.1,3.965-2.16
															c1.906-1.116,3.763-1.612,3.891-2.287c0.044-0.318-0.456-0.633-1.406-0.678c-0.938-0.049-2.313,0.236-3.634,0.982
															c-1.321,0.749-2.264,1.776-2.696,2.6C223.205,238.575,223.227,239.161,223.527,239.285z"/>
													</g>
												</g>
											</g>
										</g>
									</g>
								</g>
							</g>
						</g>
					</g>
				</g>
			</g>
			<g>
				<g>
					<g>
						<g>
							<g>
								<g>
									<g>
										<path style="fill:#FFBF9D;" d="M271.459,230.537c0.167-0.216,7.394-7.482,11.958,1.462
											c4.564,8.944-5.357,11.682-5.503,11.433C277.767,243.184,271.459,230.537,271.459,230.537z"/>
									</g>
								</g>
							</g>
						</g>
					</g>
				</g>
			</g>
			<g>
				<g>
					<g>
						<g>
							<g>
								<g>
									<g>
										<g>
											<path style="fill:#FF9A6C;" d="M278.916,238.65c0.024-0.049,0.211,0.029,0.536,0.016c0.316-0.014,0.8-0.158,1.177-0.57
												c0.768-0.829,0.798-2.735,0.019-4.369c-0.392-0.825-0.959-1.514-1.574-2.008c-0.607-0.515-1.264-0.756-1.783-0.598
												c-0.529,0.132-0.721,0.589-0.702,0.897c0.008,0.311,0.156,0.461,0.116,0.5c-0.013,0.035-0.268-0.052-0.385-0.458
												c-0.054-0.197-0.056-0.461,0.066-0.74c0.125-0.284,0.396-0.534,0.745-0.667c0.714-0.305,1.659,0.013,2.336,0.556
												c0.716,0.527,1.371,1.29,1.812,2.217c0.862,1.832,0.801,3.989-0.302,5.022c-0.546,0.486-1.167,0.563-1.546,0.491
												C279.042,238.857,278.893,238.682,278.916,238.65z"/>
										</g>
									</g>
								</g>
							</g>
						</g>
					</g>
				</g>
			</g>
			<g>
				<g>
					<g>
						<g>
							<g>
								<g>
									<g>
										<path style="fill:#263238;" d="M219.338,223.089c-1.854-0.076,0.158-6.963,2.922-10.368
											c4.177-5.146,11.67-10.772,17.354-11.846c6.844-1.293,13.313-0.797,19.047,3.157c5.734,3.953,10.039,9.746,12.974,16.062
											c0.895,1.927,1.687,4.007,1.474,6.12c-0.263,2.613-2.046,5.066-0.573,7.753c0.539,0.982,0.758,2.136,0.436,3.208
											c-0.771,2.57-3.602,1.931-5.349,0.745c-3.732-2.533-6.049-6.624-8.235-10.569c-1.554-2.804-3.131-5.673-3.697-8.828
											c-0.308-1.717-0.309-3.484-0.711-5.182c-0.403-1.697-1.31-3.399-2.876-4.167c-0.254-0.125-0.636-0.253-1.098-0.374
											c-3.657-0.96-7.552,0.151-10.178,2.871c-4.165,4.316-11.471,11.302-14.584,10.712c-4.479-0.85-6.06-2.073-6.06-2.073
											L219.338,223.089z"/>
									</g>
								</g>
							</g>
						</g>
					</g>
				</g>
			</g>
			<g>
				<g>
					<g>
						<g>
							<g>
								<g>
									<g>
										<g>
											<g>
												<path style="fill:#263238;" d="M254.678,252.004c-0.319,0.135,0.697,2.205-0.35,4.545
													c-1.041,2.344-3.36,3.198-3.234,3.496c0.035,0.144,0.689,0.16,1.632-0.274c0.928-0.419,2.117-1.369,2.757-2.801
													c0.636-1.433,0.508-2.863,0.161-3.746C255.297,252.321,254.814,251.923,254.678,252.004z"/>
											</g>
										</g>
									</g>
								</g>
							</g>
						</g>
					</g>
				</g>
			</g>
		</g>
		<g>
			<path style="fill:#FFBF9D;" d="M328.859,414.954c0,0.459-2.801,32.061-3.441,34.509c-0.639,2.448-6.553,23.259-6.553,23.259
				s2.717,2.142,5.754-1.53c3.037-3.673,4.795-9.946,4.795-10.405c0-0.459,3.836-7.957,3.836-7.957l2.877,24.024
				c0,0,3.676,3.826,5.275-1.683s0-22.188,0-22.188s0-1.989,1.758-0.306c1.758,1.683,9.75,20.658,11.987,20.505
				c2.238-0.153,3.676-1.224,3.996-1.836c0.32-0.612-9.528-22.188-9.639-23.259c-0.111-1.071,6.443,6.246,8.52,8.875
				c2.212,2.799,3.995,5.679,5.921,3.844c1.59-1.514-0.998-4.538-1.925-5.987c-0.77-1.203-8.951-15.608-9.27-20.505
				c-0.32-4.897-2.238-16.832-2.238-16.832l-17.78-11.27L328.859,414.954z"/>
			<g>
				<path style="fill:#FFBF9D;" d="M317.488,299.026c0,0,11.111,0.517,11.111,2.067c0,1.55,24.169,36.118,25.978,38.314
					c1.809,2.196-21.845,66.805-21.845,66.805l16.762,11.845c0.775-1.55,28.973-51.335,31.556-59.345
					c2.584-8.01,7.493-10.335,5.168-18.862c-2.325-8.527-13.694-36.949-22.479-47.026c-8.785-10.077-20.936-36.213-41.09-34.921
					c-20.154,1.292-19.889,15.025-17.046,27.169C308.445,297.218,317.488,299.026,317.488,299.026z"/>
				<path style="fill:#263238;" d="M310.835,301.601l15.089,2.581l14.073,18.047l30.403-19.385c0,0-21.993-38.137-36.433-43.622
					c-10.139-3.851-27.692,0.106-27.692,0.106c-0.287,2.113-8.632,27.933-8.632,27.933l12.905,12.943"/>
				<g>
					<path style="fill:#455A64;" d="M312.98,301.083c-0.013,0.012-0.126-0.086-0.328-0.285c-0.198-0.203-0.507-0.49-0.859-0.9
						c-0.728-0.799-1.712-2.022-2.766-3.647c-2.114-3.221-4.364-8.258-4.921-14.184c-0.558-5.928,0.715-11.297,2.192-14.855
						c0.733-1.793,1.472-3.178,2.038-4.098c0.27-0.468,0.52-0.807,0.676-1.044c0.162-0.233,0.254-0.351,0.27-0.341
						c0.036,0.023-0.263,0.539-0.769,1.485c-0.508,0.945-1.191,2.343-1.871,4.132c-1.373,3.554-2.565,8.844-2.016,14.672
						c0.547,5.826,2.703,10.801,4.714,14.037c1.002,1.631,1.933,2.878,2.609,3.712C312.621,300.603,313.011,301.054,312.98,301.083z
						"/>
				</g>
				<g>
					<path style="fill:#455A64;" d="M370.4,302.845c0.01,0.015-0.175,0.156-0.537,0.41c-0.409,0.279-0.938,0.641-1.595,1.09
						c-1.45,0.962-3.459,2.294-5.92,3.926c-5.072,3.303-11.992,7.809-19.638,12.787c-1.195,0.772-2.373,1.533-3.49,2.254
						l-0.223,0.144l-0.139-0.227c-2.131-3.482-4.266-6.696-6.291-9.522c-2.043-2.809-3.967-5.266-5.859-7.018
						c-1.89-1.759-3.837-2.616-5.16-3.132c-0.669-0.254-1.2-0.418-1.56-0.528c-0.361-0.107-0.549-0.167-0.546-0.184
						c0.003-0.015,0.199,0.012,0.57,0.09c0.369,0.081,0.913,0.216,1.599,0.445c1.355,0.465,3.36,1.285,5.327,3.051
						c1.961,1.754,3.924,4.2,6,7.005c2.058,2.823,4.213,6.03,6.362,9.525l-0.361-0.083c1.116-0.722,2.293-1.484,3.488-2.257
						c7.677-4.928,14.627-9.389,19.72-12.659c2.498-1.574,4.538-2.859,6.01-3.787c0.679-0.415,1.226-0.749,1.648-1.008
						C370.186,302.941,370.39,302.83,370.4,302.845z"/>
				</g>
				<g>
					<path style="fill:#FFFFFF;" d="M362.21,305.567c-0.016,0.009-0.159-0.208-0.418-0.628c-0.282-0.465-0.654-1.078-1.119-1.844
						c-0.973-1.6-2.414-3.896-4.301-6.659c-3.739-5.555-9.492-12.809-16.194-20.525c-1.663-1.939-3.321-3.794-5.141-5.348
						c-1.81-1.56-3.77-2.809-5.78-3.674c-0.988-0.478-2.027-0.751-3.016-1.057c-1.016-0.21-1.995-0.467-2.972-0.527
						c-0.486-0.046-0.961-0.12-1.431-0.14c-0.471-0.004-0.934-0.007-1.388-0.011c-0.909-0.044-1.776,0.07-2.605,0.137
						c-0.833,0.045-1.614,0.183-2.353,0.323c-0.736,0.149-1.446,0.213-2.082,0.408c-1.277,0.356-2.405,0.574-3.282,0.899
						c-0.851,0.28-1.531,0.503-2.047,0.673c-0.47,0.148-0.721,0.219-0.728,0.202c-0.007-0.017,0.231-0.119,0.691-0.3
						c0.509-0.193,1.181-0.448,2.021-0.767c0.871-0.356,1.998-0.604,3.277-0.989c0.636-0.209,1.352-0.288,2.092-0.451
						c0.743-0.154,1.531-0.306,2.373-0.363c0.839-0.08,1.716-0.206,2.64-0.173c0.461-0.001,0.932-0.003,1.41-0.004
						c0.479,0.015,0.964,0.086,1.459,0.128c0.996,0.053,1.998,0.305,3.038,0.513c1.013,0.304,2.079,0.578,3.093,1.06
						c2.063,0.873,4.075,2.144,5.922,3.727c1.856,1.576,3.54,3.456,5.203,5.395c6.708,7.722,12.435,15.036,16.105,20.659
						c1.853,2.798,3.25,5.128,4.17,6.762c0.468,0.813,0.802,1.461,1.036,1.895C362.112,305.325,362.225,305.558,362.21,305.567z"/>
				</g>
				<g>
					<path style="fill:#FFFFFF;" d="M365.663,304.787c-0.016,0.009-0.166-0.217-0.437-0.655c-0.277-0.435-0.65-1.096-1.176-1.92
						c-1.024-1.665-2.563-4.038-4.57-6.898c-3.996-5.734-10.015-13.295-16.99-21.368c-1.749-2.017-3.407-4.025-5.241-5.723
						c-1.823-1.706-3.793-3.118-5.842-4.138c-2.056-1.013-4.176-1.576-6.182-1.901c-1.013-0.099-1.988-0.259-2.938-0.222
						c-0.473-0.004-0.938-0.008-1.392-0.012c-0.454,0.012-0.896,0.071-1.329,0.103c-0.866,0.07-1.692,0.134-2.461,0.3
						c-0.77,0.145-1.504,0.247-2.178,0.403c-1.334,0.367-2.506,0.611-3.429,0.929c-0.891,0.294-1.601,0.528-2.136,0.704
						c-0.491,0.156-0.752,0.23-0.759,0.213c-0.007-0.017,0.242-0.123,0.722-0.311c0.528-0.2,1.231-0.466,2.11-0.799
						c0.917-0.348,2.088-0.623,3.425-1.02c0.676-0.17,1.414-0.287,2.19-0.446c0.773-0.18,1.607-0.257,2.484-0.34
						c0.438-0.038,0.885-0.103,1.346-0.121c0.461-0.002,0.933-0.003,1.413-0.005c0.964-0.047,1.959,0.105,2.993,0.197
						c2.049,0.313,4.223,0.873,6.333,1.898c2.102,1.032,4.122,2.468,5.979,4.196c1.869,1.722,3.541,3.743,5.288,5.756
						c6.98,8.08,12.969,15.696,16.897,21.498c1.973,2.894,3.468,5.304,4.441,7.004c0.5,0.842,0.846,1.52,1.094,1.972
						C365.559,304.535,365.679,304.778,365.663,304.787z"/>
				</g>
			</g>
		</g>
		<g>
			<path style="fill:#FFBF9D;" d="M108.924,367.282l-26.356,5.607l-11.275,13.454l-2.701,9.455l0.756,7.814
				c5.965,1.631,5.149-7.429,5.149-7.429l1.258,0.55c3.317,1.107,14.87-4.716,18.647-5.701s7.257-0.819,14.318-3.408
				s10.33-11.078,10.33-11.078L108.924,367.282z M92.999,382.74c-3.592,3.844-8.412,5.071-14.192,5.653
				c1.159-2.647,3.499-4.665,6.168-5.772c2.669-1.107,5.441-1.06,8.133-0.01L92.999,382.74z"/>
			<g>
				<path style="fill:#FF9A6C;" d="M94.743,380.782c0.023,0.017-0.174,0.368-0.617,0.944c-0.44,0.577-1.133,1.378-2.12,2.23
					c-0.982,0.856-2.266,1.758-3.827,2.505c-1.551,0.759-3.412,1.305-5.372,1.578c-1.951,0.292-3.804,0.533-5.327,1.223
					c-1.524,0.658-2.676,1.734-3.138,2.888c-0.49,1.152-0.405,2.227-0.188,2.882c0.213,0.672,0.506,0.968,0.461,1
					c-0.014,0.012-0.088-0.056-0.219-0.2c-0.123-0.149-0.292-0.385-0.433-0.73c-0.291-0.674-0.447-1.827,0.036-3.089
					c0.459-1.279,1.689-2.473,3.283-3.189c1.596-0.751,3.513-1.01,5.444-1.3c3.893-0.486,7.081-2.231,9.042-3.851
					C93.76,382.062,94.662,380.714,94.743,380.782z"/>
			</g>
			<g>
				<path style="fill:#FF9A6C;" d="M93.388,382.535c-0.03,0.088-0.952-0.279-2.508-0.452c-1.54-0.175-3.763-0.098-5.946,0.838
					c-1.091,0.434-1.937,1.202-2.781,1.835c-0.824,0.639-1.526,1.252-2.062,1.819c-1.076,1.136-1.463,2.053-1.544,2.013
					c-0.052-0.011,0.223-1.011,1.27-2.258c0.519-0.619,1.219-1.281,2.037-1.948c0.418-0.333,0.849-0.676,1.294-1.03
					c0.472-0.361,1.01-0.663,1.581-0.909c2.298-0.985,4.628-0.999,6.203-0.724c0.796,0.133,1.419,0.332,1.836,0.497
					C93.184,382.379,93.4,382.505,93.388,382.535z"/>
			</g>
		</g>
	</g>
</g>
</svg>
