<?xml version="1.0" encoding="utf-8"?>
<!-- Generator: Adobe Illustrator 27.5.0, SVG Export Plug-In . SVG Version: 6.00 Build 0)  -->
<svg version="1.1" xmlns="http://www.w3.org/2000/svg" xmlns:xlink="http://www.w3.org/1999/xlink" x="0px" y="0px"
	 viewBox="0 0 500 500" style="enable-background:new 0 0 500 500;" xml:space="preserve">
<g id="Floor">
	<g id="Bush_00000158716000364942113340000001417941877191444652_">
		<path style="fill:#EBEBEB;" d="M487.77,339.974c6.92-4.932,6.87-17.716-1.923-20.458c6.069-6.08,4.233-19.174-4.564-19.983
			c2.152-5.373,1.094-12.727-5.806-14.083c2.186-6.587-3.909-11.154-10.022-8.789c-0.267-6.943-10.1-7.342-12.314-2.454
			c0.119-2.688-3.906-7.666-6.487-7.676c4.459-3.49,3.226-10.484-0.599-11.414c5.203-3.947,2.416-12.954-3.798-12.868
			c4.168-6.567-4.721-13.429-10.244-11.405c3.128-7.383-11.487-13.256-14.65-5.434c0.125-0.309-1.227-1.593-1.45-1.807
			c-0.567-0.543-1.207-1.009-1.892-1.393c-1.399-0.785-2.976-1.218-4.567-1.375c-3.296-0.324-6.763,0.495-9.559,2.273
			c-1.479,0.941-2.791,2.178-3.693,3.691c-0.437,0.733-0.773,1.525-0.99,2.351c-0.303,1.157,0.012,2.276-0.304,3.405
			c-1.856-0.481-3.896-0.209-5.56,0.742c-1.665,0.951-2.935,2.57-3.462,4.414c-0.514-1.754-1.095-3.512-2.065-5.061
			c-0.823-1.314-1.925-2.41-3.303-3.129c-1.473-0.769-2.73-1.71-4.506-1.599c5.305-6.812-5.455-14.729-11.174-9.326
			c-2.659-6.252-12.161-4.936-11.535,2.395c-2.111-3.819-6.25-3.549-9.65-1.507c-4.692,2.818-4.063,7.838-1.483,11.903
			c-1.948-2.325-7.888-3.606-8.791,0.243c-1.355-2.046-4.849-2.555-6.701-0.764c-2.33-8.371-14.163-1.792-12.118,1.368
			c-2.395-3.701-8.34-4.364-11.491-1.282c1.587-4.324-2.217-9.654-6.822-9.559c0.298-3.292-0.904-6.843-3.593-8.767
			c-2.688-1.924-6.889-1.713-8.945,0.875c-1.644-3.144-5.829-4.672-9.112-3.327c-3.283,1.345-5.193,5.371-4.157,8.765
			c-1.49-3.309-6.546-4.243-9.12-1.685c-1.275-2.968-3.566-5.673-6.653-6.626c-3.087-0.953-6.941,0.335-8.193,3.313
			c-0.527-3.064-4.859-4.648-7.237-2.645c0.569-3.437-2.038-6.944-5.399-7.862c-3.361-0.918-7.103,0.5-9.437,3.086
			c-2.334,2.586-3.367,6.165-3.354,9.649c-1.617-2.688-5.797-3.343-8.159-1.279c1.31-1.145-2.935-4.223-3.715-4.447
			c-2.368-0.678-5.316,0.403-7.037,2.037c-1.932,1.834-2.844,4.679-2.339,7.294c-2.116-0.732-4.535-0.537-6.507,0.525
			c-1.971,1.062-3.465,2.975-4.018,5.145c-1.922-1.978-4.82-2.958-7.548-2.554c-2.728,0.404-5.217,2.182-6.484,4.632
			c0.567-1.097-3.72-2.173-4.282-2.138c-1.677,0.107-3.474,1.002-4.337,2.472c-0.258-2.008-1.619-3.839-3.468-4.665
			c-1.849-0.826-4.121-0.617-5.789,0.531c0.288-1.727-0.432-3.585-1.807-4.668c-2.614-2.059-6.212-0.797-7.723,1.937
			c0.625-7.331-8.876-8.648-11.535-2.395c-5.719-5.404-16.479,2.513-11.174,9.326c-1.775-0.112-3.034,0.83-4.506,1.599
			c-1.378,0.72-2.48,1.816-3.303,3.129c-0.971,1.549-1.552,3.307-2.066,5.061c-0.527-1.843-1.798-3.462-3.462-4.414
			c-1.665-0.951-3.704-1.223-5.56-0.742c-0.315-1.128-0.001-2.247-0.304-3.405c-0.216-0.826-0.553-1.617-0.99-2.351
			c-0.901-1.513-2.213-2.75-3.693-3.691c-2.796-1.778-6.263-2.596-9.559-2.273c-1.591,0.156-3.169,0.59-4.567,1.375
			c-0.685,0.384-1.324,0.849-1.892,1.393c-0.223,0.214-1.575,1.498-1.45,1.807c-3.164-7.822-17.778-1.95-14.65,5.434
			c-5.523-2.024-14.412,4.838-10.244,11.405c-6.215-0.086-9.002,8.921-3.799,12.868c-3.825,0.93-5.057,7.924-0.599,11.414
			c-2.581,0.011-6.606,4.988-6.487,7.676c-2.214-4.888-12.048-4.488-12.314,2.454c-6.113-2.365-12.208,2.202-10.022,8.789
			c-6.9,1.356-7.958,8.711-5.806,14.083c-8.797,0.809-10.633,13.902-4.564,19.983c-8.792,2.741-8.843,15.526-1.923,20.458
			c-4.581,2.187-5.035,12.816,2.431,15.75c-0.193,0.172-0.377,0.352-0.552,0.539c-4.395,4.692-0.721,12.421,5.707,12.421h225.742
			h7.749h225.742c6.429,0,10.103-7.729,5.707-12.421c-0.175-0.187-0.359-0.367-0.552-0.539
			C492.805,352.789,492.351,342.16,487.77,339.974z"/>
		<g id="Bush_00000083777465774714846130000014712314343240400537_">
			<g>
				<path style="fill:#E0E0E0;" d="M78.012,246.32c2.581-2.908,7.034-3.173,9.942-0.592c0.526,0.467,0.953,0.998,1.3,1.567
					c1.455-1.208,3.385-1.837,5.407-1.572c3.087,0.403,5.431,2.733,5.994,5.612c-1.31-1.548-3.169-2.646-5.343-2.93
					c-3.651-0.477-7.054,1.466-8.589,4.593c-0.032-0.39-0.011-0.794,0.043-1.204c0.13-0.994,0.464-1.91,0.951-2.717
					c-0.222-0.267-0.46-0.524-0.729-0.763c-2.753-2.444-6.661-2.746-9.686-1.021C77.492,246.952,77.737,246.629,78.012,246.32z"/>
				<path style="fill:#E0E0E0;" d="M151.263,234.185c-1.991-2.243-5.425-2.447-7.668-0.456c-0.405,0.36-0.735,0.77-1.002,1.208
					c-1.122-0.932-2.611-1.417-4.171-1.213c-2.38,0.311-4.189,2.108-4.623,4.328c1.01-1.194,2.444-2.041,4.121-2.26
					c2.816-0.368,5.441,1.131,6.625,3.542c0.025-0.301,0.008-0.612-0.033-0.929c-0.1-0.767-0.358-1.473-0.733-2.096
					c0.171-0.206,0.355-0.404,0.562-0.589c2.123-1.885,5.137-2.118,7.471-0.787C151.663,234.672,151.475,234.423,151.263,234.185z"
					/>
				<path style="fill:#E0E0E0;" d="M68.18,273.645c-0.803-1.101-4.371-0.66-5.515-0.445c-2.035,0.383-3.91,1.644-5.037,3.379
					c-1.269,1.953-1.584,4.496-0.831,6.7c-2.312-0.533-4.895,0.394-6.341,2.275c-1.446,1.881-1.678,4.616-0.569,6.713
					c-4.536-1.019-11.502-0.225-15.048,3.208c-1.945,1.884-2.689,5.124-1.217,7.397c-0.274-0.423-3.845-0.465-6.784,1.358
					c-1.805,1.119-2.927,3.238-3.034,5.368c-0.12,2.385,0.985,5.61,2.086,6.76c-0.234-0.451-2.984,1.465-3.23,1.693
					c-0.867,0.802-1.595,1.878-1.932,3.019c-0.625,2.111,1.029,4.641,3.29,4.706c-1.784,0.792-3.476,1.932-4.54,3.57
					c-1.064,1.637-1.399,3.832-0.504,5.567c1.18,2.287,3.969,3.129,6.467,3.751c-1.51,1.705-2.351,4.112-1.777,6.316
					c0.574,2.204,2.775,3.996,5.035,3.712c-2.406,1.518-3.655,4.661-2.949,7.417c0.706,2.755,3.313,4.91,6.152,5.085
					c-1.261-0.077-2.214,2.551-2.533,3.384c-0.578,1.507-1.368,2.584-2.124,4.107h-6.292c-6.429,0-10.103-7.73-5.707-12.421
					c0.175-0.187,0.359-0.367,0.552-0.539c-7.466-2.935-7.011-13.563-2.431-15.75c-6.92-4.932-6.87-17.716,1.923-20.458
					c-6.069-6.08-4.233-19.174,4.564-19.983c-2.152-5.373-1.094-12.727,5.807-14.084c-2.186-6.587,3.909-11.154,10.022-8.789
					c0.267-6.943,10.1-7.342,12.314-2.454c-0.119-2.688,3.906-7.666,6.487-7.676c-4.458-3.49-3.226-10.484,0.599-11.414
					c-5.203-3.947-2.416-12.954,3.799-12.868c-3.31-5.215,1.614-10.611,6.547-11.6c-1.79,1.991-3.419,4.651-2.117,7.399
					c1.165,2.458,4.329,2.887,6.426,3.919c-4.984,1.683-7.269,6.685-3.563,11.07c-5.076,0.639-5.732,7.39-3.699,10.127
					c1.252-1.085,3.842-1.326,5.733-0.966c2.548,0.484,3.921,1.772,6.211,4.329C69.897,263.036,65.312,269.713,68.18,273.645z"/>
			</g>
		</g>
		<g>
			<path style="fill:#E0E0E0;" d="M423.124,246.32c-2.581-2.908-7.034-3.173-9.942-0.592c-0.526,0.467-0.953,0.998-1.3,1.567
				c-1.455-1.208-3.385-1.837-5.407-1.572c-3.087,0.403-5.431,2.733-5.994,5.612c1.31-1.548,3.169-2.646,5.343-2.93
				c3.651-0.477,7.054,1.466,8.589,4.593c0.032-0.39,0.011-0.794-0.043-1.204c-0.13-0.994-0.464-1.91-0.951-2.717
				c0.222-0.267,0.461-0.524,0.729-0.763c2.753-2.444,6.661-2.746,9.686-1.021C423.644,246.952,423.399,246.629,423.124,246.32z"/>
			<path style="fill:#E0E0E0;" d="M349.873,234.185c1.991-2.243,5.425-2.447,7.668-0.456c0.405,0.36,0.735,0.77,1.002,1.208
				c1.122-0.932,2.611-1.417,4.171-1.213c2.38,0.311,4.189,2.108,4.623,4.328c-1.01-1.194-2.444-2.041-4.121-2.26
				c-2.816-0.368-5.441,1.131-6.625,3.542c-0.025-0.301-0.008-0.612,0.033-0.929c0.1-0.767,0.358-1.473,0.733-2.096
				c-0.171-0.206-0.355-0.404-0.562-0.589c-2.123-1.885-5.137-2.118-7.471-0.787C349.473,234.672,349.661,234.423,349.873,234.185z"
				/>
			<path style="fill:#E0E0E0;" d="M432.956,273.645c0.803-1.101,4.371-0.66,5.515-0.445c2.035,0.383,3.91,1.644,5.037,3.379
				c1.269,1.953,1.584,4.496,0.831,6.7c2.312-0.533,4.895,0.394,6.341,2.275c1.446,1.881,1.678,4.616,0.569,6.713
				c4.536-1.019,11.502-0.225,15.048,3.208c1.945,1.884,2.689,5.124,1.217,7.397c0.274-0.423,3.845-0.465,6.784,1.358
				c1.805,1.119,2.927,3.238,3.034,5.368c0.12,2.385-0.985,5.61-2.086,6.76c0.234-0.451,2.984,1.465,3.23,1.693
				c0.867,0.802,1.595,1.878,1.932,3.019c0.624,2.111-1.029,4.641-3.29,4.706c1.784,0.792,3.476,1.932,4.54,3.57
				c1.064,1.637,1.399,3.832,0.504,5.567c-1.18,2.287-3.969,3.129-6.467,3.751c1.51,1.705,2.35,4.112,1.777,6.316
				c-0.574,2.204-2.775,3.996-5.035,3.712c2.406,1.518,3.655,4.661,2.949,7.417c-0.706,2.755-3.313,4.91-6.152,5.085
				c1.261-0.077,2.214,2.551,2.533,3.384c0.578,1.507,1.368,2.584,2.124,4.107h6.292c6.429,0,10.103-7.73,5.707-12.421
				c-0.175-0.187-0.359-0.367-0.552-0.539c7.466-2.935,7.012-13.563,2.431-15.75c6.92-4.932,6.87-17.716-1.923-20.458
				c6.069-6.08,4.233-19.174-4.564-19.983c2.152-5.373,1.094-12.727-5.807-14.084c2.186-6.587-3.91-11.154-10.022-8.789
				c-0.267-6.943-10.1-7.342-12.314-2.454c0.119-2.688-3.906-7.666-6.487-7.676c4.458-3.49,3.226-10.484-0.599-11.414
				c5.203-3.947,2.416-12.954-3.799-12.868c3.31-5.215-1.614-10.611-6.547-11.6c1.79,1.991,3.419,4.651,2.117,7.399
				c-1.165,2.458-4.329,2.887-6.426,3.919c4.984,1.683,7.27,6.685,3.563,11.07c5.076,0.639,5.732,7.39,3.699,10.127
				c-1.252-1.085-3.842-1.326-5.733-0.966c-2.548,0.484-3.921,1.772-6.211,4.329C431.239,263.036,435.825,269.713,432.956,273.645z"
				/>
		</g>
	</g>
	<path id="Floor_00000000945524411608799980000006865655560487885986_" style="fill:#FAFAFA;" d="M86.593,271.496
		c-90.244,49.006-90.242,128.46,0.005,177.465c90.247,49.006,236.564,49.006,326.809,0c90.244-49.006,90.242-128.46-0.005-177.465
		C323.155,222.491,176.838,222.491,86.593,271.496z"/>
</g>
<g id="Clouds">
	<path id="Cloud_00000168820926036885921040000014715320966514429362_" style="fill:#F0F0F0;" d="M251.53,72.383
		c-0.979-0.443-2.143-0.484-2.984-0.551c-0.966-0.076-1.272-0.268-1.458-0.477c-2.35-3.362-6.233-3.491-8.552-2.527
		c-0.568-2.313-3.367-4.322-6.448-3.645c0.105-3.006-3.732-6.236-7.181-6.97c-3.307-0.704-6.19-0.408-8.077,1.766
		c-2.02-3.945-9.938-5.056-14.223-2.969c-2.464,1.2-4.554,2.431-5.576,4.69c-0.674,1.49-0.915,2.483-0.928,4.489
		c-1.67-1.472-5.014-1.87-7.244-1.007c-2.405,0.93-2.587,2.743-2.706,4.586c-2.357-0.594-3.935-0.21-4.378-0.079
		c-1.515,0.449-2.388,1.638-2.18,2.6c-1.198-0.067-4.054,0.902-3.726,2.168c0.368,1.42,3.63,1.277,4.848,1.232
		c1.008-0.037,2.314-0.307,3.41-0.536c0.333,0.165,1.217,0.341,1.773,0.337c2.077-0.015,2.956-0.905,3.289-1.677
		c1.013,2.134,4.62,3.76,7.17,4.412c4.801,1.229,11.595,0.48,14.551-3.108c0.31,0.646,0.829,1.247,1.43,1.742
		c1.173,0.966,2.757,1.643,4.442,1.8c1.971,0.184,7.263,0.437,8.754-2.698c1.056,2.084,5.766,3.034,9.349,2.525
		c1.34-0.19,2.844-0.655,4.011-1.211c0.941-0.448,1.476-0.884,2.306-1.383c0.706-0.424,1.024-0.419,1.966-0.135
		c2.459,0.741,5.312,1.044,7.821-0.008C252.99,74.91,253.408,73.234,251.53,72.383z"/>
	<path id="Cloud_00000127005639088758973240000000493363573839889299_" style="fill:#F5F5F5;" d="M307.945,100.736
		c-0.753-0.341-1.649-0.373-2.297-0.424c-0.744-0.059-0.979-0.206-1.122-0.367c-1.808-2.588-4.797-2.687-6.582-1.945
		c-0.437-1.781-2.591-3.326-4.963-2.806c0.081-2.313-2.873-4.799-5.527-5.364c-2.545-0.542-4.764-0.314-6.217,1.36
		c-1.555-3.036-7.649-3.892-10.947-2.285c-1.897,0.924-3.505,1.871-4.292,3.61c-0.519,1.147-0.705,1.911-0.714,3.455
		c-1.285-1.133-3.859-1.439-5.576-0.775c-1.851,0.716-1.991,2.111-2.083,3.53c-1.814-0.457-3.029-0.162-3.369-0.061
		c-1.166,0.346-1.838,1.261-1.678,2.001c-0.922-0.051-3.12,0.694-2.868,1.668c0.284,1.093,2.794,0.983,3.731,0.948
		c0.776-0.029,1.781-0.236,2.624-0.412c0.256,0.127,0.937,0.262,1.365,0.259c1.598-0.011,2.275-0.696,2.532-1.291
		c0.78,1.643,3.556,2.894,5.518,3.396c3.695,0.946,8.924,0.37,11.2-2.392c0.239,0.497,0.638,0.96,1.101,1.341
		c0.903,0.744,2.122,1.264,3.419,1.385c1.517,0.142,5.59,0.336,6.738-2.076c0.813,1.604,4.438,2.335,7.195,1.943
		c1.031-0.146,2.189-0.504,3.087-0.932c0.724-0.345,1.136-0.681,1.775-1.064c0.543-0.326,0.788-0.322,1.513-0.104
		c1.892,0.57,4.089,0.803,6.02-0.006C309.069,102.682,309.39,101.391,307.945,100.736z"/>
	<path id="Cloud_00000123420141586402503190000013573391442334047361_" style="fill:#F5F5F5;" d="M477.794,126.841
		c-0.753-0.341-1.649-0.373-2.297-0.424c-0.744-0.059-0.979-0.206-1.122-0.367c-1.808-2.588-4.797-2.687-6.582-1.945
		c-0.437-1.781-2.591-3.326-4.963-2.806c0.081-2.313-2.873-4.799-5.527-5.364c-2.545-0.542-4.764-0.314-6.217,1.36
		c-1.555-3.036-7.649-3.892-10.947-2.285c-1.897,0.924-3.505,1.871-4.292,3.61c-0.519,1.147-0.705,1.911-0.714,3.455
		c-1.285-1.133-3.859-1.439-5.576-0.775c-1.851,0.716-1.991,2.111-2.083,3.53c-1.814-0.457-3.029-0.162-3.369-0.061
		c-1.166,0.346-1.838,1.261-1.678,2.001c-0.922-0.051-3.12,0.694-2.868,1.668c0.284,1.093,2.794,0.983,3.731,0.948
		c0.776-0.029,1.781-0.236,2.624-0.412c0.256,0.127,0.937,0.262,1.365,0.259c1.598-0.011,2.275-0.696,2.532-1.291
		c0.78,1.642,3.556,2.894,5.518,3.396c3.695,0.946,8.924,0.37,11.2-2.392c0.238,0.497,0.638,0.96,1.101,1.341
		c0.903,0.744,2.122,1.264,3.419,1.385c1.517,0.142,5.59,0.337,6.738-2.076c0.813,1.604,4.438,2.335,7.195,1.943
		c1.031-0.146,2.189-0.504,3.087-0.932c0.724-0.345,1.136-0.681,1.775-1.064c0.543-0.326,0.788-0.322,1.513-0.104
		c1.892,0.57,4.089,0.803,6.02-0.006C478.918,128.786,479.239,127.496,477.794,126.841z"/>
	<path id="Cloud_00000072266315207061666500000002904236810372855435_" style="fill:#F5F5F5;" d="M80.469,164.454
		c-0.753-0.341-1.649-0.373-2.297-0.424c-0.744-0.059-0.979-0.206-1.122-0.367c-1.808-2.588-4.797-2.687-6.582-1.945
		c-0.437-1.781-2.591-3.326-4.963-2.806c0.081-2.313-2.873-4.799-5.527-5.364c-2.545-0.542-4.765-0.314-6.217,1.359
		c-1.555-3.036-7.649-3.891-10.947-2.285c-1.897,0.924-3.505,1.872-4.292,3.61c-0.519,1.147-0.705,1.911-0.714,3.455
		c-1.285-1.133-3.859-1.439-5.576-0.775c-1.851,0.716-1.991,2.111-2.083,3.53c-1.814-0.457-3.029-0.162-3.369-0.061
		c-1.166,0.346-1.838,1.261-1.678,2.001c-0.922-0.051-3.12,0.694-2.868,1.668c0.284,1.093,2.794,0.983,3.731,0.948
		c0.776-0.029,1.781-0.236,2.624-0.412c0.256,0.127,0.937,0.262,1.365,0.259c1.598-0.011,2.275-0.696,2.532-1.291
		c0.78,1.643,3.556,2.894,5.518,3.396c3.695,0.946,8.924,0.37,11.2-2.392c0.238,0.497,0.638,0.96,1.101,1.341
		c0.903,0.744,2.122,1.264,3.419,1.385c1.517,0.142,5.59,0.336,6.738-2.076c0.813,1.604,4.438,2.335,7.195,1.943
		c1.031-0.146,2.189-0.504,3.087-0.932c0.724-0.345,1.136-0.681,1.775-1.064c0.543-0.326,0.788-0.322,1.513-0.104
		c1.892,0.57,4.089,0.803,6.02-0.006C81.593,166.4,81.915,165.109,80.469,164.454z"/>
</g>
<g id="Plants">
	<g id="Plants_00000183235440971287015050000000125163414139619974_">
		<g>
			<g>
				<path style="fill:#BA68C8;" d="M102.637,378.673c-0.115-0.064-0.196-0.175-0.221-0.304
					c-3.558-17.815-20.243-29.213-27.368-34.08c-1.152-0.787-2.062-1.408-2.652-1.874c-2.643-2.086-4.007-5.05-3.648-7.928
					c0.322-2.593,2.053-4.771,4.747-5.974c6.59-2.946,18.196,4.385,26.416,16.682c11.52,17.235,8.445,31.173,8.412,31.312
					c-0.034,0.146-0.139,0.266-0.28,0.318l-5.03,1.876c-0.058,0.021-0.118,0.031-0.178,0.028
					C102.767,378.726,102.698,378.707,102.637,378.673z M99.165,345.694c-7.985-11.945-19.1-19.131-25.304-16.363
					c-2.436,1.088-3.936,2.959-4.223,5.265c-0.319,2.563,0.919,5.222,3.315,7.112c0.566,0.447,1.464,1.061,2.601,1.838
					c7.147,4.883,23.791,16.254,27.635,34.13l4.305-1.606C107.833,374.209,109.647,361.378,99.165,345.694z"/>
			</g>
			<g>
				<path style="fill:#BA68C8;" d="M105.693,377.663c0.02,0.001,0.04,0.001,0.061-0.002c0.247-0.021,0.43-0.239,0.407-0.486
					c-1.841-21.053-18.527-39.758-28.755-42.891c-0.238-0.074-0.488,0.06-0.561,0.298c-0.072,0.237,0.061,0.488,0.298,0.561
					c10.113,3.098,26.378,22.145,28.124,42.111C105.287,377.48,105.472,377.653,105.693,377.663z"/>
			</g>
		</g>
		<g>
			<g>
				<path style="fill:#BA68C8;" d="M107.866,376.853c0.065,0.003,0.131-0.008,0.195-0.035l3.394-1.431
					c0.137-0.058,0.236-0.179,0.266-0.324c0.042-0.206,4.1-20.937-3.318-47.496c-3.778-13.53-13.23-26.118-22.475-29.932
					c-4.445-1.831-8.607-1.68-12.371,0.454c-2.128,1.207-3.373,2.785-3.7,4.691c-0.906,5.27,5.212,12.324,11.689,19.793
					c4.532,5.225,9.218,10.629,11.619,15.584c0.108,0.224,0.377,0.315,0.6,0.208c0.223-0.108,0.316-0.376,0.208-0.6
					c-2.453-5.062-7.178-10.511-11.748-15.781c-6.334-7.304-12.317-14.202-11.483-19.053c0.283-1.65,1.349-2.979,3.259-4.062
					c3.51-1.991,7.407-2.129,11.584-0.404c9.01,3.716,18.243,16.057,21.953,29.343c6.939,24.85,3.764,44.511,3.344,46.845
					l-3.171,1.338c-0.228,0.096-0.336,0.359-0.239,0.588C107.542,376.743,107.698,376.845,107.866,376.853z"/>
			</g>
			<g>
				<path style="fill:#BA68C8;" d="M107.381,363.975c0.011,0.001,0.022,0.001,0.032,0c0.248-0.006,0.443-0.212,0.438-0.46
					c-0.797-32.785-21.684-56.892-27.522-60.792c-0.205-0.137-0.485-0.083-0.623,0.124c-0.138,0.206-0.083,0.485,0.123,0.623
					c5.753,3.843,26.335,27.637,27.123,60.067C106.959,363.775,107.148,363.964,107.381,363.975z"/>
			</g>
		</g>
	</g>
	<g id="Plants_00000166640604499768869710000015005651144991239564_">
		<g>
			<g>
				<path style="fill:#BA68C8;" d="M402.541,378.729c-0.059,0.003-0.12-0.007-0.178-0.028l-5.03-1.876
					c-0.14-0.052-0.246-0.172-0.28-0.318c-0.033-0.139-3.109-14.077,8.412-31.312c8.221-12.297,19.826-19.628,26.416-16.682
					c2.694,1.203,4.425,3.381,4.747,5.974c0.359,2.878-1.005,5.842-3.648,7.928c-0.591,0.466-1.5,1.088-2.652,1.874
					c-7.125,4.867-23.809,16.266-27.367,34.08c-0.026,0.129-0.107,0.24-0.221,0.304C402.678,378.707,402.61,378.726,402.541,378.729
					z M397.883,376.071l4.305,1.606c3.844-17.876,20.488-29.248,27.635-34.13c1.137-0.777,2.035-1.391,2.601-1.838
					c2.395-1.89,3.633-4.549,3.315-7.112c-0.288-2.307-1.788-4.177-4.223-5.265c-6.204-2.768-17.319,4.418-25.304,16.363
					C395.729,361.378,397.544,374.209,397.883,376.071z"/>
			</g>
			<g>
				<path style="fill:#BA68C8;" d="M399.684,377.663c-0.02,0.001-0.04,0.001-0.061-0.002c-0.247-0.021-0.43-0.239-0.408-0.486
					c1.841-21.053,18.527-39.758,28.755-42.891c0.238-0.074,0.488,0.06,0.561,0.298c0.072,0.237-0.061,0.488-0.298,0.561
					c-10.113,3.098-26.378,22.145-28.124,42.111C400.09,377.48,399.905,377.653,399.684,377.663z"/>
			</g>
		</g>
		<g>
			<g>
				<path style="fill:#BA68C8;" d="M397.511,376.853c-0.065,0.003-0.131-0.008-0.195-0.035l-3.394-1.431
					c-0.137-0.058-0.236-0.179-0.266-0.324c-0.042-0.206-4.1-20.937,3.318-47.496c3.778-13.53,13.23-26.118,22.475-29.932
					c4.445-1.831,8.607-1.68,12.371,0.454c2.128,1.207,3.373,2.785,3.7,4.691c0.906,5.27-5.212,12.324-11.689,19.793
					c-4.532,5.225-9.218,10.629-11.619,15.584c-0.108,0.224-0.377,0.315-0.6,0.208c-0.223-0.108-0.316-0.376-0.208-0.6
					c2.453-5.062,7.178-10.511,11.748-15.781c6.334-7.304,12.317-14.202,11.483-19.053c-0.283-1.65-1.349-2.979-3.259-4.062
					c-3.51-1.991-7.407-2.129-11.584-0.404c-9.01,3.716-18.242,16.057-21.953,29.343c-6.939,24.85-3.764,44.511-3.344,46.845
					l3.171,1.338c0.228,0.096,0.336,0.359,0.239,0.588C397.834,376.743,397.678,376.845,397.511,376.853z"/>
			</g>
			<g>
				<path style="fill:#BA68C8;" d="M397.995,363.975c-0.01,0.001-0.022,0.001-0.032,0c-0.248-0.006-0.443-0.212-0.438-0.46
					c0.797-32.785,21.685-56.892,27.522-60.792c0.205-0.137,0.485-0.083,0.623,0.124c0.138,0.206,0.083,0.485-0.123,0.623
					c-5.753,3.843-26.335,27.637-27.123,60.067C398.417,363.775,398.228,363.964,397.995,363.975z"/>
			</g>
		</g>
	</g>
</g>
<g id="Shadows">
	
		<ellipse id="Shadow_00000101801449831906683580000000739711192442604979_" style="fill:#E0E0E0;" cx="345.108" cy="404.178" rx="81.131" ry="46.841"/>
	
		<ellipse id="Shadow_00000074414803281626097050000003786207313977234601_" style="fill:#E0E0E0;" cx="160.091" cy="404.178" rx="81.131" ry="46.841"/>
</g>
<g id="Character_2">
	<g id="Character_00000086685168814931222660000006327832599846278564_">
		<g id="Bottom_21_">
			<g>
				<path style="fill:#FFA8A7;" d="M394.39,381.769c-0.587-11.947-0.986-39.344-1.25-44.551c-0.89-17.519-3.202-22.572-4.556-28.599
					c-1.354-6.028-1.185-26.138-2.49-56.011c-1.078-24.684-1.815-33.266-2.43-40.738h-68.927
					c-2.677,23.498-5.947,56.528-6.998,80.823c-0.936,21.631,3.596,53.404,1.667,65.521c-0.852,5.356-4.608,9.435-7.908,12.313
					c-3.062,2.67-6.396,5.029-9.705,7.379c-1.708,1.213-3.547,2.333-5.17,3.656c-1.426,1.163-3.248,2.042-4.404,3.52
					c-0.988,1.263-1.409,3.113-0.576,4.484c0.718,1.181,2.136,1.712,3.466,2.088c6.605,1.862,14.079,1.782,19.915-1.829
					c3.987-2.467,6.917-6.369,10.863-8.901c3.034-1.947,6.614-3.048,9.334-5.413c0.828-0.72,1.567-1.555,2.085-2.522
					c1.734-3.241,0.625-7.117,0.75-10.586c0.023-0.641,0.357-4.539,0.314-4.824c0.136-3.006,6.975-31.983,8.758-42.134
					c2.108-12.002,1.365-20.636,1.365-20.636l9.12-34.08c0,0,8.372,39.323,11.443,54.539c2.256,11.18,15.562,59.884,17.359,68.491
					c0.324,4.446,3.535,23.429,4.122,28.17c2.598,20.98,20.026,10.416,18.614,2.445C396.941,401.91,394.516,384.343,394.39,381.769z
					"/>
			</g>
			<g>
				<path style="fill:#263238;" d="M278.623,390.065c-0.32,0.014-0.662,3.675,1.136,5.145c2.075,1.696,8.077,4.367,15.818,2.983
					c7.741-1.384,11.858-4.056,14.867-6.884c3.01-2.828,7.227-6.815,10.716-7.772c3.24-0.889,8.487-3.027,9.493-4.117
					c1.006-1.089,0.681-5.72,0.681-5.72L278.623,390.065z"/>
				<path id="XMLID_3561_" style="fill:#37474F;" d="M328.37,357.578c0,0,1.069,0.457,1.312,1.522
					c0.289,1.267,0.363,2.903,0.959,4.978c0.827,2.884,0.946,8.829,0.61,11.225c-0.337,2.395-7.359,4.734-10.713,6.224
					c-3.426,1.522-7.341,4.519-10.756,7.682c-3.536,3.273-11.107,6.737-16.175,7.039c-7.737,0.461-12.835-1.483-14.494-4.286
					c-2.053-3.468-1.243-7.194,7.489-11.844c1.653-0.88,7.429-4.757,9.394-6.156c2.077-1.479,4.059-3.108,5.874-4.92
					c0.918-0.917,1.793-1.88,2.609-2.895c1.189-1.479,2.27-3.004,2.738-4.882c0.176-0.708,0.27-1.439,0.514-2.127
					s0.668-1.351,1.319-1.681c0.693-0.351,1.516-0.273,2.287-0.184c2.523,0.291,5.091,0.607,7.471,1.542
					c2.124,0.835,2.72,2.544,2.895,4.715c0.043,0.535,0.053,1.075,0.078,1.611c0.011,0.229-0.068,0.645,0.239,0.535
					c0.293-0.104,0.592-0.92,0.693-1.197c0.224-0.611,0.357-1.26,0.604-1.863c0.283-0.689,0.501-1.493,1.032-1.993
					c1.431-1.349,3.463-1.156,3.873-1.614C328.221,359.012,328.34,358.035,328.37,357.578z"/>
				<path style="fill:#FAFAFA;" d="M286.124,380.376c11.24,0.299,14.727,9.393,15.374,13.793c-2.738,1.139-5.576,1.941-7.892,2.079
					c-7.737,0.461-13.153-1.466-14.812-4.269C276.857,388.708,278.298,383.841,286.124,380.376z"/>
				<g>
					<g>
						<path style="fill:#F0F0F0;" d="M302.612,381.855c0.122-0.005,0.243-0.052,0.342-0.143c0.227-0.208,0.246-0.565,0.046-0.798
							c-1.637-1.902-6.85-5.914-10.906-5.275c-0.3,0.046-0.507,0.336-0.462,0.643c0.044,0.308,0.315,0.521,0.622,0.474
							c3.786-0.585,8.628,3.401,9.926,4.91C302.293,381.798,302.453,381.862,302.612,381.855z"/>
					</g>
					<g>
						<path style="fill:#F0F0F0;" d="M307.327,378.737c0.122-0.005,0.243-0.052,0.342-0.143c0.227-0.208,0.247-0.565,0.046-0.799
							c-1.638-1.904-6.853-5.922-10.906-5.275c-0.3,0.046-0.507,0.336-0.461,0.644c0.044,0.308,0.31,0.521,0.622,0.474
							c3.786-0.59,8.628,3.401,9.925,4.91C307.008,378.681,307.168,378.745,307.327,378.737z"/>
					</g>
					<g>
						<path style="fill:#F0F0F0;" d="M311.671,375.224c0.122-0.005,0.243-0.053,0.342-0.143c0.227-0.208,0.247-0.565,0.046-0.798
							c-1.637-1.904-6.868-5.916-10.906-5.275c-0.3,0.046-0.507,0.336-0.462,0.644c0.044,0.308,0.312,0.519,0.623,0.474
							c3.781-0.586,8.628,3.401,9.926,4.91C311.352,375.167,311.512,375.23,311.671,375.224z"/>
					</g>
					<g>
						<path style="fill:#F0F0F0;" d="M315.925,371.713c0.119-0.005,0.238-0.05,0.335-0.138c0.23-0.204,0.255-0.562,0.058-0.797
							c-2.255-2.702-7.79-5.931-11.841-5.291c-0.3,0.046-0.507,0.336-0.462,0.643c0.044,0.308,0.313,0.512,0.622,0.475
							c3.648-0.574,8.849,2.517,10.85,4.912C315.601,371.655,315.764,371.72,315.925,371.713z"/>
					</g>
				</g>
			</g>
			<g>
				<path style="fill:#263238;" d="M379.579,421.408c0.581,5.357,1.574,8.875,3.585,11.923c2.01,3.048,5.546,3.841,9.028,2.72
					c3.482-1.122,7.875-3.843,8.646-8.536c0.772-4.693,1.198-7.904,0.138-12.843L379.579,421.408z"/>
				<path id="XMLID_3560_" style="fill:#37474F;" d="M394.39,381.769c1.46,0.036,1.443,7.181,2.655,14.359
					c1.299,7.694,2.54,10.704,3.671,17.008c1.293,7.203,0.297,10.51-1.939,15.035c-2.235,4.525-10.73,9.318-15.351,3.278
					c-3.767-4.925-4.206-10.596-4.261-17.858c-0.057-7.507-1.024-12.496-1.907-18.121c-0.914-5.82-2.076-11.038-0.844-11.713
					c0.294,1.563,0.951,4.635,1.285,5.738c0.125,0.412,0.784,1.372,0.929-0.155c0.043-0.453-0.144-1.484-0.13-1.932
					c0.039-1.26,0.766-1.508,1.23-1.81c1.003-0.652,3.284-1.577,6.124-1.752c2.84-0.175,5.292-0.411,6.92,0.338
					c0.979,0.45,1.002,1.388,1.154,2.298c0.18,1.085,0.232,1.759,0.479,1.526C394.902,387.539,394.277,382.552,394.39,381.769z"/>
				<path style="fill:#FAFAFA;" d="M401.336,417.318c0.484,4.491-0.4,7.635-2.15,11.177c-2.235,4.525-11.432,9.372-16.053,3.332
					c-2.299-3.005-3.063-6.669-3.552-10.422C381.906,416.417,397.062,413.425,401.336,417.318z"/>
				<g>
					<g>
						<path style="fill:#F0F0F0;" d="M382.346,413.337c0.06-0.01,0.119-0.029,0.177-0.061c0.057-0.031,6.637-3.283,13.268-2.087
							c0.293,0.048,0.573-0.151,0.626-0.454c0.051-0.303-0.146-0.592-0.44-0.645c-7.013-1.261-13.722,2.068-13.972,2.207
							c-0.262,0.149-0.358,0.487-0.216,0.757C381.901,413.266,382.128,413.373,382.346,413.337z"/>
					</g>
					<g>
						<path style="fill:#F0F0F0;" d="M395.186,405.801c0.203-0.033,0.379-0.184,0.438-0.4c0.079-0.298-0.087-0.605-0.374-0.688
							c-6.638-1.913-13.697,1.916-13.961,2.079c-0.257,0.157-0.342,0.498-0.188,0.763c0.153,0.263,0.488,0.344,0.739,0.193
							c0.06-0.036,6.94-3.749,13.116-1.961C395.034,405.81,395.111,405.813,395.186,405.801z"/>
					</g>
					<g>
						<path style="fill:#F0F0F0;" d="M394.692,400.715c0.199-0.032,0.373-0.179,0.434-0.391c0.086-0.297-0.076-0.607-0.362-0.694
							c-7.308-2.248-13.983,1.877-14.229,2.052c-0.247,0.174-0.31,0.521-0.141,0.775c0.168,0.255,0.511,0.32,0.751,0.145
							c0.054-0.04,6.507-3.993,13.309-1.903C394.535,400.723,394.616,400.727,394.692,400.715z"/>
					</g>
					<g>
						<path style="fill:#EBEBEB;" d="M394.076,395.716c0.196-0.032,0.368-0.175,0.432-0.383c0.09-0.294-0.067-0.607-0.352-0.699
							c-6.854-2.219-14.049,2.029-14.317,2.212c-0.251,0.166-0.321,0.512-0.159,0.77c0.161,0.259,0.495,0.336,0.747,0.163
							c0.062-0.041,7.04-4.145,13.404-2.083C393.914,395.723,393.997,395.729,394.076,395.716z"/>
					</g>
				</g>
			</g>
			<path style="fill:#37474F;" d="M383.871,211.869l-71.441-10.183c-3.499,19.701-6.766,55.691-8.055,79.199
				c3.85,10.353,28.45,14.368,37.208,10.536l5.08-21.903c0,0,2.307,12.494,3.952,24.189c2.182,1.677,5.986,5.455,20.441,4.132
				c16.385-1.499,17.865-6.178,18.956-7.814c-0.546-10.365-2.08-33.324-2.601-40.746
				C386.224,232.336,384.932,218.464,383.871,211.869z"/>
			<path style="fill:#263238;" d="M346.663,269.519l-4.195-37.165c0,0-10.495-3.057-17.136-10.482
				c0.408,5.456,9.664,12.606,14.037,13.769l4.587,33.338l-2.372,22.443L346.663,269.519z"/>
		</g>
		<g id="Top_3_">
			<g id="Arm_00000145020529120273838770000002924701129841898138_">
				<g>
					<path style="fill:#F28F8F;" d="M423.035,45.155c1.253,1.797,4.073,0.614,5.672,1.718c1.097,0.758,0.876,2.07-0.157,2.698
						c-1.129,0.687-2.525,0.503-3.777,0.695c-1.48,0.226-2.809,0.856-4.064,1.656c-2.611,1.665-5.982,3.096-9.006,1.524
						c0.149,0.077,1.625-1.189,1.771-1.296C416.66,49.819,419.86,47.504,423.035,45.155z"/>
					<path style="fill:#FFA8A7;" d="M446.554,37.187c-0.107-0.222-0.413-0.257-0.653-0.202c-0.345,0.08-0.639,0.095-0.978,0.138
						c-0.139,0.018-1.063,0.106-1.112,0.208c0.083-0.207,0.145-0.426,0.135-0.648c-0.01-0.222,0.01-0.701-0.165-0.838
						c-0.245-0.192-0.751-0.229-1.06-0.265c-1.393-0.163-2.128-0.248-3.377-0.406c-1.961-0.247-3.838-0.813-5.666-0.551
						c-1.828,0.262-3.582,0.313-6.291,0.492c-2.709,0.178-4.554-0.004-7.968,0.748c-1.965,0.433-9.114,2.267-12.982,3.217
						c-11.831,2.907-38.071,8.572-44.727,11.786c-6.656,3.214-9.123,3.938-13.38,15.007c-4.324,11.243-8.215,23.202-13.227,43.847
						c-3.827,15.764-4.109,17.739-7.55,30.217c0.746,4.548,9.856-6.807,17.526-12.875c10.404-8.231,17.499-16.174,17.828-19.129
						c0.591-5.312,0.078-7.125,0.886-12.11c1.03-6.353,7.284-24.918,7.284-24.918s12.101-6.333,19.556-10.573
						c8.867-5.043,15.584-10.034,18.863-7.769c2.752,1.759,4.939,0.767,6.999-0.672c2.06-1.439,3.741-4.012,5.226-5.526
						c2.203-2.248,3.369-2.014,5.091-2.427c1.722-0.413,3.447-1.174,4.39-1.821c0.074-0.051,0.62,0.119,0.733,0.133
						c0.245,0.031,0.491,0.049,0.738,0.062c0.509,0.025,1.019,0.022,1.528,0.039c0.388,0.014,0.789,0.022,1.193,0.016
						c0.603-0.007,1.211-0.045,1.788-0.141c0.542-0.09,1.071-0.249,1.615-0.323c0.901-0.122,1.817-0.09,2.706-0.319
						c0.489-0.126,0.971-0.386,1.227-0.821c0.081-0.138,0.14-0.293,0.256-0.403c0.089-0.085,0.204-0.135,0.317-0.182
						c0.764-0.315,1.589-0.536,2.236-1.051c0.482-0.382,0.84-0.917,1.011-1.507C446.59,37.478,446.619,37.32,446.554,37.187z"/>
					<path style="fill:#F28F8F;" d="M438.469,41.888c-2.297,0.504-4.697,0.48-6.974,0.093c-0.071,0.012-0.231-0.062-0.486,0.065
						c-1.087,0.799-2.839,1.447-3.735,1.659c-0.896,0.212-2.104,0.48-2.918,0.649c0.097-0.058,0.195-0.115,0.292-0.172
						c0.358-0.204,0.705-0.416,1.064-0.606c0.712-0.396,1.447-0.719,2.227-1.025c-0.84,0.015-1.663,0.293-2.403,0.689
						c-0.63,0.347-1.199,0.785-1.709,1.288c-0.69,0.288-1.295,0.755-1.773,1.198c-1.15,1.136-2.337,2.67-3.626,4.067
						c-1.301,0.676-2.699,1.221-4.091,1.064c-0.723-0.067-1.425-0.211-2.116-0.478c-0.692-0.27-1.415-0.865-2.106-1.247
						c0.491,0.623,1.107,1.152,1.809,1.548c0.699,0.404,1.491,0.646,2.296,0.735c1.452,0.151,2.871-0.52,4.007-1.407
						c-2.416,2.568-5.191,4.566-8.733,2.554c2.722,2.16,6.18,0.602,8.428-1.51c2.255-1.915,3.667-5.013,6.42-6.214
						c0.632-0.18,1.579-0.325,3.058-0.694c1.478-0.369,2.813-0.875,3.907-1.725c0.069,0.011,0.149,0.028,0.231,0.047
						c2.326,0.286,4.691,0.259,6.945-0.338c1.372-0.377,3.359,0.022,4.246-1.365C441.693,42.045,439.913,41.596,438.469,41.888z"/>
					<path style="fill:#F28F8F;" d="M433.55,39.184c0.257-0.155,0.526-0.31,0.825-0.342c0.225-0.024,0.451,0.025,0.675,0.059
						c0.957,0.145,1.954,0.015,2.842-0.372c0.208-0.091,0.415-0.197,0.641-0.223c0.229-0.027,0.459,0.03,0.687,0.066
						c0.832,0.129,1.679-0.035,2.505-0.199c0.205-0.041,0.417-0.084,0.609-0.165c0.113-0.047,0.219-0.107,0.313-0.187
						c-0.68,0.237-1.4,0.358-2.12,0.361c-0.7,0.003-1.321-0.174-1.995-0.296l-0.095-0.017l-0.118,0.054
						c-0.293,0.133-0.641,0.252-0.973,0.347c-0.332,0.096-0.674,0.152-1.014,0.199c-0.686,0.095-1.383,0.07-2.063-0.063
						l-0.209-0.041l-0.108,0.096c-0.183,0.164-0.413,0.336-0.64,0.481c-0.231,0.146-0.466,0.291-0.715,0.411
						c-0.248,0.12-0.499,0.245-0.765,0.337c-0.264,0.098-0.537,0.167-0.817,0.243C431.944,40.009,432.765,39.655,433.55,39.184z"/>
					<path style="fill:#F28F8F;" d="M442.331,40.39c0.166-0.026,0.33-0.113,0.492-0.133c-0.538,0.068-1.122-0.045-1.659-0.091
						c-0.116-0.01-0.232-0.02-0.349-0.014c-0.124,0.006-0.247,0.029-0.369,0.053c-0.62,0.118-1.216,0.269-1.85,0.242
						c-0.675-0.018-1.333-0.165-1.943-0.42l-0.192-0.081l-0.155,0.135c-0.254,0.223-0.588,0.446-0.912,0.634
						c-0.333,0.186-0.679,0.357-1.038,0.502c-0.361,0.139-0.729,0.272-1.11,0.375c-0.378,0.118-0.769,0.184-1.164,0.272
						c1.353,0.021,2.519-0.411,2.979-0.645c0.288-0.147,0.57-0.307,0.848-0.471c0.188-0.111,0.494-0.381,0.733-0.339
						c0.041,0.007,0.079,0.027,0.116,0.046c0.631,0.323,1.362,0.45,2.065,0.359c0.67-0.087,1.304-0.364,1.981-0.405
						c0.33-0.02,0.663,0.024,0.994,0.019C441.977,40.426,442.155,40.418,442.331,40.39z"/>
				</g>
			</g>
			<g>
				<path id="Chest_1_" style="fill:#BA68C8;" d="M367.298,117.647c0,0,1.729,1.346,10.601,5.286
					c7.694,3.417,24.914,12.639,24.914,12.639s9.228,15.052-2.342,29.448c-1.24,1.543-12.921,11.737-14.575,20.734
					c-1.727,9.395-1.927,17.07-1.369,28.576c0,0-15.471,12.535-44.424,7.024c-22.395-4.263-28.272-19.32-28.272-19.32
					s3.254-26.24,8.513-42.168c4.269-12.928,8.829-25.294,12.948-31.419c9.552-14.201,29.613-20.514,29.613-20.514
					C363.376,112.116,364.852,115.598,367.298,117.647z"/>
			</g>
			<g>
				<g id="Head_3_">
					<g>
						<g id="XMLID_00000148626804967269318700000009037070740228232327_">
							<g id="XMLID_00000111899615954341050690000012866248984057908896_">
								<path style="fill:#263238;" d="M385.9,75.924c0,0-3.122-1.362-7.093,1.379c-1.996,1.377-4.541,4.468-7.087,15.813
									c-1.638,7.301-1.021,11.192-1.028,13.461c-0.008,2.269,1.642,3.78,1.642,3.78l3.839-7.723l2.529-5.458
									c0,0,6.338-1.617,8.728-5.235c3.075-4.657,2.633-8.453,2.633-8.453L385.9,75.924z"/>
								<path style="fill:#263238;" d="M384.937,74.938c3.012-3.889,11.15-6.121,21.924-1.129
									c8.827,4.09,11.995,9.724,12.621,16.292c0.693,7.281-5.068,12.028-5.068,12.028l-26.038-16.054L384.937,74.938z"/>
								<path style="fill:#FFA8A7;" d="M368.237,100.483c2.931,4.011,6.387,1.843,6.387,1.843l-7.732,16.023
									c-11.606,5.68,7.994,17.08,20.1,9.217l1.883-3.592c0,0,1.323,0.704,3.595,1.477c3.786,1.3,7.422,1.656,11.305-3.029
									c4.843-5.843,9.049-13.944,11.99-24.594c0.568-2.056,0.838-4.486-0.409-6.216c-3.096-4.296-8.559-3.362-15.609-4.18
									c-2.92-0.339-9.008-3.034-10.172-4.58c0.847,3.331-2.177,9.53-6.71,10.825c-0.189,0.24-1.466,2.584-3.175,2.579
									c-1.918-0.005-1.522-3.504-2.001-5.197c-0.494-1.689-3.99-4.827-7.682-2.052C366.258,91.838,365.521,96.767,368.237,100.483
									z"/>
								<path style="fill:#F28F8F;" d="M388.875,123.974c-4.571-2.456-8.34-5.179-10.442-7.753
									c-2.102-2.575-2.561-7.506-1.423-11.553c-1.548,2.922-3.012,8.783-0.051,13.109c2.962,4.326,7.677,6.972,10.643,8.626
									L388.875,123.974z"/>
							</g>
							<g id="XMLID_00000100373337254492071980000014514151307683439521_">
								<path id="XMLID_00000149364620845184530120000006376226328478784904_" style="fill:#263238;" d="M396.491,92.773
									l-4.726,0.558c-0.118-1.34,0.845-2.552,2.15-2.706C395.22,90.471,396.373,91.433,396.491,92.773z"/>
								<path id="XMLID_00000164508911543102481600000010997769996645240499_" style="fill:#263238;" d="M411.718,100.737
									l-3.11-3.65c0.984-0.904,2.477-0.819,3.336,0.189C412.803,98.284,412.702,99.833,411.718,100.737z"/>
								<path style="fill:#263238;" d="M392.525,97.405c-0.467,0.964-0.065,2.124,0.899,2.591c0.964,0.467,2.124,0.065,2.591-0.899
									c0.467-0.964,0.065-2.124-0.899-2.591C394.152,96.039,392.992,96.441,392.525,97.405z"/>
								<path style="fill:#263238;" d="M405.708,102.691c-0.467,0.964-0.065,2.124,0.899,2.591c0.964,0.467,2.124,0.064,2.591-0.899
									c0.467-0.964,0.065-2.124-0.899-2.591C407.191,101.255,406.245,101.583,405.708,102.691z"/>
								<path id="XMLID_00000111180737829658788310000014758865717476552373_" style="fill:#F28F8F;" d="M401.925,97.964
									l-4.365,11.656l6.889,0.925C404.435,105.612,403.594,101.418,401.925,97.964z"/>
							</g>
						</g>
					</g>
					<path id="XMLID_00000062160093726775566650000017205463400117098419_" style="fill:#B16668;" d="M390.797,108.405l4.901,5.113
						c-1.414,1.429-3.657,1.444-5.012,0.032C389.333,112.137,389.383,109.834,390.797,108.405z"/>
					<path style="fill:#F28F8F;" d="M390.857,109.809c-0.225-0.191-0.468-0.341-0.717-0.472c-0.707,1.37-0.542,3.077,0.547,4.212
						c0.273,0.285,0.588,0.496,0.919,0.665C392.589,112.953,392.271,111.007,390.857,109.809z"/>
				</g>
			</g>
			<g id="Arm_00000077320976819687147080000011022518417771925415_">
				<g id="Arm_00000032608731473302414320000007870706486294804393_">
					<g>
						<path style="fill:#F28F8F;" d="M390.516,232.664c1.806-0.948,3.924-1.598,5.155-3.324c0.634-0.889,0.95-2.066,0.589-3.097
							c-0.075-0.215-0.18-0.432-0.158-0.659c0.018-0.188,0.121-0.356,0.217-0.52c0.399-0.679,0.718-1.449,0.642-2.233
							c-0.064-0.664-0.426-1.294-0.967-1.684c0.729-0.94,1.142-2.12,1.159-3.309c0.02-1.406-0.914-2.871-2.266-1.773
							c-0.66,0.535-1.234,1.181-1.768,1.839c-1.333,1.645-2.441,3.489-3.354,5.397c-0.956,1.999-3.561,7.685-0.452,9.118
							C389.556,232.53,390.26,232.799,390.516,232.664z"/>
						<path style="fill:#FFA8A7;" d="M402.813,135.571c9.548,4.872,11.782,7.028,18.582,22.877
							c5.18,12.073,12.379,27.763,12.902,33.522c0.648,7.129,0.407,9.689-8.472,13.844c-4.575,2.141-10.714,4.445-17.117,7.236
							c-5.054,2.203-10.956,4.342-15.934,6.712c-1.32,0.628-2.166,1.415-2.353,2.963c-0.108,0.902-0.031,1.827-0.242,2.711
							c-0.272,1.137-0.997,2.108-1.444,3.188c-0.447,1.081-0.553,2.468,0.278,3.292c0.402,0.398,0.957,0.596,1.501,0.749
							c-1.178,0.326-2.388,0.605-3.61,0.559c-1.222-0.046-2.471-0.45-3.327-1.323c-0.831-0.847-1.245-2.074-2.2-2.778
							c-0.515-0.38-1.147-0.574-1.673-0.938c-0.541-0.374-0.957-0.925-1.168-1.548c-0.335-0.989-0.19-2.184-0.883-2.965
							c-0.331-0.373-0.806-0.585-1.178-0.917c-0.761-0.678-1.005-1.797-0.863-2.806c0.142-1.01,0.615-1.939,1.098-2.836
							c1.191-2.21,2.492-4.361,3.896-6.442c0.542-0.803,1.656-1.895,2.446-2.456c0.879-0.625,1.742-1.287,2.655-1.859
							c6.195-3.884,26.148-17.087,26.148-17.087l-14.04-22.985c-0.917-1.502-1.47-3.192-1.629-4.945
							C395.652,155.454,395.348,141.937,402.813,135.571z"/>
						<g>
							<path style="fill:#F28F8F;" d="M390.515,232.665c-2.731,0.852-6.326,0.865-7.736-2.081c-0.388-0.621-0.814-1.287-1.48-1.718
								c-1.335-0.662-2.601-1.375-2.732-2.995c-0.124-0.702-0.138-1.515-0.631-2.211c-0.531-0.689-1.294-0.888-1.629-1.469
								c-0.376-0.554-0.516-1.269-0.465-1.956c0.713-3.41,3.323-6.623,5.14-9.599c1.211-1.853,3.293-2.798,5.012-4.128
								c0,0,3.71-2.44,3.71-2.44c7.183-4.719,15.087-9.985,22.152-14.799c-7.24,4.523-15.236,9.669-22.442,14.342l-3.723,2.416
								c-1.761,1.334-3.975,2.354-5.19,4.283c-1.247,1.846-2.411,3.749-3.491,5.697c-0.68,1.295-1.544,2.596-1.681,4.192
								c-0.051,0.78,0.1,1.604,0.569,2.276c0.472,0.713,1.305,0.944,1.671,1.458c0.4,0.525,0.454,1.275,0.588,2.01
								c0.107,0.748,0.45,1.526,1.028,2.058c0.574,0.566,1.342,0.776,1.933,1.148c1.24,0.788,1.643,2.461,2.909,3.279
								C385.957,233.74,388.439,233.303,390.515,232.665L390.515,232.665z"/>
						</g>
						<path style="fill:#F28F8F;" d="M411.857,189.267c2.433,5.034,8.159,7.428,10.355,8.069
							c-8.689,0.363-12.157-6.878-12.157-6.878L411.857,189.267z"/>
					</g>
				</g>
			</g>
		</g>
	</g>
</g>
<g id="Character_1">
	<g id="Character_00000058586431015461510660000006932105681833068433_">
		<g id="Bottom_00000170982294021971339350000007424895526605974174_">
			<g>
				<path style="fill:#FFA8A7;" d="M111.05,380.406c1.129-11.638,2.793-38.371,3.293-43.443c1.684-17.064,4.176-21.891,5.778-27.713
					c1.602-5.822-0.477-21.637-0.048-50.863c0.277-18.854,5.378-27.347,9.962-40.272h64.534c2.782,23.879,5.335,55.575,5.23,79.346
					c-0.093,21.164-5.995,51.977-4.676,63.898c0.583,5.269,4.06,9.427,7.149,12.39c2.866,2.75,6.011,5.208,9.133,7.657
					c1.611,1.264,3.355,2.443,4.878,3.81c1.339,1.202,3.076,2.145,4.136,3.642c0.906,1.279,1.231,3.105,0.354,4.405
					c-0.756,1.12-2.165,1.573-3.482,1.877c-6.536,1.511-13.83,1.085-19.36-2.712c-3.778-2.594-6.458-6.541-10.193-9.197
					c-2.872-2.042-6.316-3.284-8.862-5.72c-0.775-0.741-1.458-1.591-1.918-2.56c-1.542-3.245-0.279-6.978-0.24-10.372
					c0.007-0.627-0.137-4.449-0.083-4.724c0.007-2.942-5.322-31.553-6.591-41.548c-1.5-11.817-0.372-20.213-0.372-20.213
					l-7.319-33.701c0,0-10.004,38.007-13.71,52.721c-2.723,10.812-17.98,57.748-20.135,66.068
					c-0.523,4.326-4.542,22.712-5.335,27.314c-3.513,20.365-20.039,9.239-18.289,1.522
					C107.622,399.954,110.807,382.914,111.05,380.406z"/>
			</g>
			<g>
				<path style="fill:#263238;" d="M223.701,393.892c0.311,0.029,0.475,3.619-1.348,4.971c-2.105,1.56-8.09,3.888-15.584,2.176
					c-7.494-1.712-11.389-4.512-14.196-7.413c-2.807-2.901-6.739-6.99-10.102-8.088c-3.123-1.019-8.146-3.351-9.078-4.462
					c-0.932-1.11-0.399-5.617-0.399-5.617L223.701,393.892z"/>
				<path id="XMLID_00000158739132219647730210000017511818171684376975_" style="fill:#37474F;" d="M176.639,359.857
					c0,0-1.065,0.397-1.352,1.425c-0.341,1.224-0.49,2.818-1.168,4.816c-0.941,2.777-1.335,8.577-1.118,10.932
					c0.217,2.354,6.965,4.965,10.171,6.576c3.274,1.646,6.957,4.754,10.145,8.002c3.3,3.361,10.531,7.095,15.466,7.626
					c7.533,0.81,12.601-0.851,14.352-3.511c2.166-3.29,1.548-6.967-6.762-11.913c-1.573-0.936-7.033-4.99-8.887-6.448
					c-1.959-1.54-3.819-3.224-5.507-5.077c-0.854-0.938-1.663-1.919-2.412-2.948c-1.092-1.5-2.076-3.038-2.446-4.895
					c-0.139-0.7-0.197-1.418-0.403-2.101c-0.206-0.683-0.59-1.35-1.21-1.702c-0.66-0.375-1.467-0.337-2.225-0.286
					c-2.477,0.167-4.999,0.356-7.366,1.159c-2.113,0.717-2.774,2.358-3.046,4.469c-0.067,0.52-0.102,1.047-0.151,1.57
					c-0.021,0.223,0.036,0.633-0.259,0.512c-0.281-0.115-0.535-0.926-0.621-1.201c-0.19-0.607-0.289-1.247-0.503-1.847
					c-0.244-0.686-0.42-1.481-0.915-1.994c-1.334-1.384-3.327-1.289-3.707-1.756C176.717,361.264,176.647,360.304,176.639,359.857z"
					/>
				<path style="fill:#FAFAFA;" d="M216.827,384.082c-10.989-0.231-14.817,8.487-15.653,12.753c2.62,1.239,5.354,2.155,7.609,2.397
					c7.533,0.81,12.911-0.82,14.662-3.479C225.488,392.65,224.307,387.83,216.827,384.082z"/>
				<g>
					<g>
						<path style="fill:#F0F0F0;" d="M200.659,384.759c-0.119-0.01-0.235-0.062-0.327-0.156c-0.212-0.213-0.214-0.563-0.008-0.781
							c1.687-1.781,6.963-5.456,10.894-4.643c0.291,0.059,0.48,0.351,0.421,0.65c-0.057,0.299-0.332,0.494-0.63,0.434
							c-3.67-0.747-8.583,2.919-9.92,4.332C200.974,384.719,200.814,384.774,200.659,384.759z"/>
					</g>
					<g>
						<path style="fill:#F0F0F0;" d="M196.2,381.496c-0.119-0.011-0.234-0.062-0.327-0.155c-0.212-0.213-0.215-0.563-0.008-0.782
							c1.688-1.783,6.967-5.463,10.894-4.643c0.291,0.059,0.479,0.351,0.421,0.65c-0.057,0.298-0.327,0.494-0.63,0.434
							c-3.669-0.753-8.583,2.919-9.92,4.333C196.515,381.456,196.355,381.511,196.2,381.496z"/>
					</g>
					<g>
						<path style="fill:#F0F0F0;" d="M192.122,377.863c-0.119-0.011-0.235-0.063-0.327-0.156c-0.212-0.213-0.215-0.563-0.008-0.782
							c1.687-1.783,6.982-5.457,10.894-4.643c0.291,0.059,0.479,0.352,0.421,0.65c-0.057,0.299-0.329,0.492-0.63,0.434
							c-3.665-0.749-8.583,2.92-9.92,4.333C192.437,377.823,192.278,377.877,192.122,377.863z"/>
					</g>
					<g>
						<path style="fill:#F0F0F0;" d="M188.132,374.238c-0.116-0.011-0.23-0.06-0.321-0.15c-0.215-0.21-0.223-0.56-0.02-0.781
							c2.327-2.534,7.882-5.428,11.808-4.615c0.291,0.059,0.48,0.352,0.421,0.65c-0.057,0.299-0.33,0.486-0.63,0.434
							c-3.535-0.73-8.757,2.046-10.823,4.292C188.451,374.196,188.289,374.252,188.132,374.238z"/>
					</g>
				</g>
			</g>
			<g>
				<path style="fill:#263238;" d="M123.667,419.799c-0.817,5.204-1.95,8.592-4.055,11.475c-2.105,2.882-5.594,3.493-8.942,2.236
					c-3.348-1.257-7.51-4.119-8.045-8.737c-0.535-4.618-0.802-7.773,0.463-12.546L123.667,419.799z"/>
				<path id="XMLID_00000132052425324697482240000002847958856122161798_" style="fill:#37474F;" d="M111.05,380.406
					c-1.427-0.033-1.743,6.945-3.26,13.897c-1.626,7.452-2.978,10.333-4.376,16.437c-1.597,6.973-0.779,10.248,1.194,14.771
					c1.972,4.522,10.044,9.598,14.837,3.915c3.908-4.633,4.599-10.151,4.992-17.239c0.405-7.327,1.581-12.153,2.705-17.605
					c1.163-5.64,2.54-10.681,1.369-11.398c-0.36,1.512-1.144,4.481-1.522,5.543c-0.141,0.396-0.829,1.303-0.9-0.194
					c-0.021-0.445,0.21-1.442,0.217-1.881c0.02-1.232-0.678-1.508-1.117-1.825c-0.949-0.683-3.133-1.693-5.898-1.996
					c-2.765-0.303-5.148-0.647-6.772,0.008c-0.977,0.394-1.043,1.309-1.233,2.19c-0.226,1.051-0.309,1.707-0.539,1.468
					C110.281,386.016,111.124,381.176,111.05,380.406z"/>
				<path style="fill:#FAFAFA;" d="M102.614,414.793c-0.681,4.363,0.035,7.474,1.579,11.013c1.972,4.523,10.726,9.683,15.519,4
					c2.385-2.828,3.301-6.369,3.953-10.011C121.628,414.818,106.968,411.191,102.614,414.793z"/>
				<g>
					<g>
						<path style="fill:#F0F0F0;" d="M121.341,411.791c-0.059-0.013-0.115-0.034-0.17-0.068c-0.054-0.033-6.328-3.514-12.858-2.655
							c-0.288,0.033-0.552-0.174-0.59-0.473c-0.036-0.299,0.17-0.572,0.459-0.609c6.906-0.905,13.302,2.658,13.54,2.805
							c0.249,0.158,0.327,0.492,0.175,0.75C121.779,411.741,121.553,411.835,121.341,411.791z"/>
					</g>
					<g>
						<path style="fill:#F0F0F0;" d="M109.155,403.834c-0.196-0.041-0.361-0.197-0.409-0.411c-0.064-0.294,0.113-0.587,0.397-0.655
							c6.57-1.559,13.284,2.508,13.535,2.68c0.244,0.165,0.31,0.503,0.148,0.754c-0.162,0.25-0.492,0.313-0.731,0.154
							c-0.057-0.038-6.602-3.983-12.716-2.525C109.303,403.85,109.228,403.849,109.155,403.834z"/>
					</g>
					<g>
						<path style="fill:#F0F0F0;" d="M109.873,398.891c-0.193-0.04-0.355-0.192-0.406-0.402c-0.07-0.294,0.103-0.589,0.385-0.661
							c7.24-1.855,13.566,2.484,13.798,2.665c0.233,0.182,0.279,0.523,0.102,0.763c-0.176,0.241-0.513,0.289-0.74,0.107
							c-0.051-0.041-6.168-4.202-12.907-2.478C110.027,398.906,109.948,398.907,109.873,398.891z"/>
					</g>
					<g>
						<path style="fill:#EBEBEB;" d="M110.707,394.039c-0.19-0.04-0.352-0.188-0.404-0.394c-0.074-0.291,0.094-0.589,0.376-0.666
							c6.796-1.848,13.623,2.635,13.877,2.826c0.237,0.174,0.289,0.515,0.119,0.76c-0.169,0.245-0.499,0.305-0.737,0.124
							c-0.059-0.043-6.681-4.374-12.991-2.657C110.866,394.053,110.785,394.055,110.707,394.039z"/>
					</g>
				</g>
			</g>
			<path style="fill:#37474F;" d="M126.96,218.401c-1.182,2.937-4.349,6.942-6.849,23.024c-2.027,13.041-0.547,65.405-0.547,65.405
				s-5.013,12.12-6.196,26.894c-1.182,14.774-1.428,36.098-1.428,36.098s2.85,4.191,9.298,5.621
				c6.448,1.431,9.815-0.903,9.815-0.903s16.054-42.13,19.695-57.237c3.641-15.106,11.312-48.783,11.312-48.783l5.961,28.934
				c0,0-1.5,9.5-0.179,19.495c1.321,9.995,7.585,34.335,7.585,34.335s5.457,3.183,11.777,2.585c6.32-0.598,8.1-4.782,8.1-4.782
				s5.177-35.706,5.649-49.165c0.472-13.46,2.199-61.606-5.954-89.572L126.96,218.401z"/>
			<path style="fill:#263238;" d="M162.059,268.521l5.937-28.263c0,0,10.39-2.496,17.22-9.437
				c-0.652,5.308-10.023,11.859-14.346,12.791l-4.809,24.298l1.959,29.545L162.059,268.521z"/>
		</g>
		<g id="Top">
			<g>
				<path style="fill:#F28F8F;" d="M177.194,142.574c-4.677-4.032-17.13-19.815-21.27-28.007s-17.766-32.773-21.494-38.465
					c-3.728-5.692-5.167-8.152-18.695-19.081c-6.873-5.552-21.732-17.293-25.526-20.116c-3.794-2.823-6.899-3.513-10.176-2.306
					c-3.277,1.207-6.599,3.733-8.279,4.527c-2.923,1.382-3.967,2.717-2.76,3.925c0,0-2.759,1.552-6.554,2.415
					c-3.794,0.862-7.416,0.862-7.761,2.242c-0.345,1.38,1.581,2.492,1.581,2.492s-1.014,0.901,1.979,2.309
					c2.994,1.408,8.513,1.236,15.239-0.489c6.726-1.725,8.624-4.829,10.176-3.967c1.552,0.862,24.136,27.087,26.723,30.536
					c2.587,3.449,28.305,57.462,28.305,57.462L177.194,142.574z"/>
				<path style="fill:#B16668;" d="M78.84,40.559c-0.265-0.086-0.57-0.05-0.848,0.01c-1.396,0.301-2.623,1.099-3.896,1.748
					c-0.454,0.232-0.92,0.443-1.403,0.608c-0.444,0.152-0.864,0.323-1.337,0.369c-0.765,0.075-1.542,0.016-2.286-0.173
					c0.555,0.483,1.441,0.506,2.139,0.459c1.003-0.068,2.103-0.519,3.034-0.887c0.981-0.389,1.902-0.912,2.866-1.339
					c0.624-0.277,1.267-0.512,1.922-0.705C78.969,40.609,78.906,40.581,78.84,40.559z"/>
			</g>
			<path style="fill:#BA68C8;" d="M126.037,136.804c-1.259,0.917-3.674,0.899-4.754,0.023c0,0-9.846,7.079-10.748,15.739
				c-0.902,8.66,2.241,15.961,5.669,19.931c3.428,3.969,13.182,19.676,14.301,25.157c1.493,7.313-0.12,11.792-3.545,20.749
				c0,0,13.719,6.895,33.57,6.149C191.782,223.378,195,210.35,195,210.35s-1.809-10.07-4.481-21.713
				c-2.393-10.427-4.601-17.965-4.601-17.965s6.131-10.95-0.148-21.972c-8.49-14.903-39.711-17.776-39.711-17.776L126.037,136.804z"
				/>
			<g id="Head_6_">
				<g>
					<path style="fill:#37474F;" d="M88.045,96.819c0.172,0.759,0.505,1.461,1.021,1.991c1.274,1.31,3.545,1.532,3.787,3.818
						c0.164,1.554-1.782,2.509-3.264,2.45c0.731,2.798,4.523,1.436,6.027,0.375c0.786,1.83,1.319,2.519,3.519,2.543
						c3.328,0.036,4.684-1.47,6.129-4.119c1.304-2.39,4.314-1.921,6.639-2.867c2.639-1.075,3.752-3.585,3.422-6.412
						c-0.19-1.629-2.228-3.108-2.083-4.592c0.305-3.123,5.705-2.016,7.234-4.031c2.104-2.773-0.279-7.393-3.545-7.943
						c-1.015-0.171-2.098,0.382-3.066,0.221c-1.028-0.171-1.495-1.026-2.113-1.775c-2.095-2.537-4.978-3.928-8.328-3.385
						c-1.261,0.204-2.512,0.592-3.518,1.409c-1.149,0.934-1.544,2.401-2.603,3.381c-2.023,1.874-5.318,1.624-6.766,4.401
						c-0.623,1.194-0.709,2.531-0.297,3.806c0.292,0.903,1.213,1.59,1.217,2.523c0.006,1.734-2.29,2.976-3.002,4.396
						C87.925,94.063,87.751,95.524,88.045,96.819z"/>
					<path style="fill:#37474F;" d="M125.937,135.725c-0.153-0.167,1.491-3.083,1.604-3.317c3.082-6.373,6.163-12.746,9.244-19.119
						c1.701-3.518,3.403-7.036,5.104-10.555c0.932-1.928,1.577-4.287,3.647-5.279c1.527-0.731,2.894-0.612,4.501-0.42
						c2.026,0.242,4.04-0.071,5.493-1.772c0.747-0.875,0.979-1.906,0.682-2.952c-0.109-0.384-0.378-0.913-0.49-1.173
						c0.155,1.698-1.384,2.297-2.358,2.154c-1.168-0.171-1.584-1.05-2.114-2.057c-0.55-1.044-0.86-2.482-1.872-3.218
						c-0.853-0.621-2.016-0.709-2.879-0.118c0.137-1.325,0.663-2.586,0.635-3.923c-0.027-1.273-0.394-2.554-1.022-3.665
						c-1.105-1.955-3.19-2.64-5.268-3.03c-2.49-0.466-4.482,0.328-6.793,1.178c-1.615,0.594-3.128,1.463-4.802,1.897
						c-1.424,0.37-2.948,0.492-4.399,0.756c-3.756,0.683-7.292,2.279-10.538,4.253c-16.772,10.198-14.159,28.384-8.322,36.064
						C114.047,132.034,119.919,129.172,125.937,135.725z"/>
					<g>
						<g id="XMLID_712_">
							<path style="fill:#FFA8A7;" d="M153.379,103.507c6.09,13.721,2.99,18.53,1.237,20.535c-1.754,2.005-4.493,3.308-8.952,4.572
								l1.98,6.212c8.695,4.991-6.89,15.097-21.563,1.904l-3.147-11.974c0,0-0.655,3.037-5.181,2.576
								c-4.338-0.442-7.365-5.87-6.661-9.107c0.642-2.955,4.502-4.379,6.789-2.6c0.898,0.699,1.085,1.067,1.791,2.234
								c0.323,0.534,0.589,1.302,1.123,1.336c2.421,0.154,2.868-3.415,1.998-5.673c1.401-2.38,1.739-4.744-0.076-8.411
								c2.39,0.267,5.346-2.299,6.568-4.35c2.106-3.533,1.328-5.856,1.245-8.937c-0.081-3.013,2.591-4.62,5.358-4.918
								c1.512-0.163,5.04,0.202,8.04,2.571c1.415,1.117,2.475,2.639,3.551,4.083C149.942,96.866,151.712,99.744,153.379,103.507z"/>
						</g>
						<g id="XMLID_707_">
							<path id="XMLID_708_" style="fill:#F28F8F;" d="M145.657,128.614c-3.945,0.826-8.386,1.381-11.973,0.664
								c-2.848-0.57-5.114-2.17-6.474-3.449c0,0,2.879,5.029,6.646,6.064c3.767,1.035,12.671-0.569,12.671-0.569L145.657,128.614z"
								/>
						</g>
						<g>
							<g id="XMLID_703_">
								<path id="XMLID_705_" style="fill:#263238;" d="M135.991,108.027c0.565,0.961-0.856,0.157-1.782,0.698
									c-0.927,0.541-1.009,2.223-1.574,1.261c-0.565-0.961-0.271-2.179,0.656-2.72
									C134.217,106.725,135.426,107.065,135.991,108.027z"/>
							</g>
							<g id="XMLID_479_">
								<path id="XMLID_480_" style="fill:#263238;" d="M147.61,102.333c0.239,1.089-0.862-0.117-1.911,0.11
									c-1.049,0.227-1.649,1.8-1.888,0.711c-0.238-1.089,0.419-2.156,1.468-2.382C146.328,100.545,147.372,101.244,147.61,102.333
									z"/>
							</g>
							<g id="XMLID_699_">
								<polygon id="XMLID_700_" style="fill:#F28F8F;" points="138.884,103.415 146.427,114.213 150.892,109.022 								"/>
							</g>
							<path id="XMLID_689_" style="fill:#263238;" d="M132.028,103.591l-3.098,4.122c-1.138-0.91-1.368-2.572-0.512-3.71
								C129.273,102.865,130.889,102.681,132.028,103.591z"/>
							<path id="XMLID_681_" style="fill:#263238;" d="M146.482,97.058l-5.145-0.731c0.15-1.439,1.423-2.443,2.844-2.241
								C145.602,94.287,146.632,95.618,146.482,97.058z"/>
						</g>
					</g>
				</g>
				<path style="fill:#B16668;" d="M146.191,118.063c-0.126-0.146-0.324-0.216-0.503-0.136c-0.828,0.372-1.685,0.671-2.596,0.748
					c-0.792,0.067-1.564-0.142-2.297-0.423c-0.051-0.02-0.05,0.083-0.03,0.106c0.596,0.7,1.494,0.929,2.389,0.936
					c1.064,0.008,2.078-0.364,3.04-0.787C146.372,118.43,146.282,118.169,146.191,118.063z"/>
			</g>
			<g>
				<path style="fill:#FFA8A7;" d="M121.284,136.827c-5.842-5.492-26.999-28.794-30.661-33.979
					c-3.662-5.186-15.453-38.711-16.227-41.031c-0.773-2.32-2.674-4.072,1.547-5.93c0.238-0.105,0.474-0.215,0.707-0.331
					c2.65-1.313,4.98-3.246,7.001-5.389c0.946-1.003,1.83-2.066,2.639-3.183c0.358-0.495,0.713-0.999,1.028-1.522
					c0.339-0.564,0.487-1.044,0.687-1.666c0.166-0.515,0.577-0.912,0.826-1.393c0.304-0.587,0.352-1.301,0.128-1.923
					c-0.097-0.269-0.243-0.527-0.263-0.812c-0.049-0.673,0.611-1.299,0.419-1.946c-0.108-0.366-0.472-0.609-0.846-0.684
					c-1.469-0.297-2.952,0.624-4.141,1.367c-2.055,1.285-3.724,2.374-5.245,3.344c-1.714-0.507-5.516,3.423-9.304,5.038
					c-5.672,2.418-10.334,1.866-11.755,6.841c-0.385,1.349,0.491,4.299,2.553,15.128c2.063,10.828,5.637,31.797,8.672,41.926
					c1.675,5.591,2.437,7.942,9.25,16.319c8.585,10.557,33.367,39.119,37.906,45.497c4.538,6.379,11.473,1.988,12.652-6.777
					C130.036,156.953,128.987,144.069,121.284,136.827z"/>
				<path style="fill:#F28F8F;" d="M72.841,49.989c0.041-0.275,0.209-0.532,0.387-0.755c0.891-1.116,2.152-1.86,3.3-2.71
					c0.41-0.303,0.806-0.627,1.169-0.986c0.334-0.33,0.674-0.63,0.926-1.033c0.407-0.651,0.701-1.374,0.863-2.124
					c0.186,0.712-0.189,1.516-0.542,2.119c-0.508,0.868-1.4,1.652-2.145,2.321c-0.785,0.706-1.664,1.296-2.475,1.97
					c-0.526,0.436-1.023,0.906-1.487,1.406C72.828,50.127,72.83,50.057,72.841,49.989z"/>
			</g>
			<path style="opacity:0.1;" d="M167.993,172.537c-0.597,7.212-18.614,15.6-32.715,3.7c1.763,5.204,8.964,9.987,17.073,9.734
				C159.142,185.759,168.111,180.945,167.993,172.537z"/>
		</g>
	</g>
</g>
</svg>
